<svg width="125" height="104" viewBox="0 0 125 104" fill="none" xmlns="http://www.w3.org/2000/svg">
<path fill-rule="evenodd" clip-rule="evenodd" d="M43.1789 65.311C42.1402 64.311 42.2534 62.2029 42.0533 60.8019C41.4966 56.9048 41.9388 53.4281 43.4711 49.853C43.9544 48.7251 44.4927 47.0982 45.3615 46.2297C46.1094 45.4815 46.7333 44.3932 47.6458 43.7089C51.7796 40.6085 57.8726 37.4204 63.321 38.5103C65.4279 38.9315 67.4676 39.3302 69.5435 39.8494C71.8519 40.4263 73.5261 43.2496 75.2938 44.5754C77.381 46.141 78.9706 48.595 79.7836 51.0344C80.4587 53.0595 80.6154 56.4853 80.1775 58.6751C79.5493 61.8166 79.8414 64.5651 78.1294 67.4186C77.8071 67.9556 77.7225 68.6918 77.2632 69.1513C76.0539 70.3606 74.2691 71.062 72.9308 72.066C70.091 74.1956 65.1613 76.9328 61.4306 75.6893C60.7202 75.4526 59.7962 75.8716 59.0673 75.6893C57.398 75.2719 55.8206 74.7004 54.1048 74.2715C51.3499 73.5827 48.1417 72.0892 46.1493 70.0968C44.4498 68.3971 43.7392 66.3796 42.6833 64.2678" fill="#F58773"/>
<path fill-rule="evenodd" clip-rule="evenodd" d="M51.8263 6.50603C51.701 6.91218 51.8595 7.41929 51.8071 7.83796C51.6123 9.39661 51.1867 10.9366 51.0308 12.4963C50.903 13.7748 51.0303 15.1111 50.8192 16.3781C50.7492 16.797 50.4026 18.8518 50.9603 19.1306C52.5376 19.9191 54.9351 19.3364 56.677 19.5541C63.3224 20.3848 70.256 19.2012 76.9333 19.2012C81.0725 19.2012 85.159 19.4131 89.2847 19.4131C90.4482 19.4131 92.7074 20.2254 93.0254 18.6365C93.3559 16.9841 92.9009 15.2192 93.1665 13.6255C93.5977 11.0373 93.6491 8.66201 92.5313 6.42654C91.7034 4.77101 87.6389 5.2973 86.1086 5.2973C79.7424 5.2973 73.0945 4.87658 66.7699 5.50893C62.8595 5.9 58.7085 5.50893 54.7715 5.50893C54.4134 5.50893 51.3133 5.49155 51.3133 5.93246" fill="#5BCFB9"/>
<path fill-rule="evenodd" clip-rule="evenodd" d="M116.852 59.0914C116.941 59.1335 117.254 59.2795 117.384 59.3117C117.662 59.3807 117.887 59.3232 118.037 59.245C118.428 59.041 118.58 58.5582 118.376 58.1674C118.244 57.9146 117.995 57.762 117.731 57.7408C117.594 57.6802 117.268 57.5396 117.164 57.5238C116.372 57.4013 115.553 57.1728 114.752 57.0944C112.308 56.8551 109.375 57.2503 107.484 58.9741C104.102 62.0561 101.283 66.4851 103.078 71.1685C103.353 71.8862 103.691 72.675 104.216 73.2738C107.079 76.545 111.155 78.2304 115.478 78.039C116.529 77.9925 117.825 77.7954 118.909 77.2972C119.718 76.9253 120.411 76.3878 120.855 75.6532C121.083 75.276 120.962 74.7844 120.584 74.5564C120.207 74.3282 119.716 74.4494 119.488 74.8266C119.129 75.4209 118.492 75.7808 117.803 76.0221C117.009 76.2996 116.137 76.4108 115.408 76.443C111.574 76.613 107.957 75.1229 105.418 72.2218C105.016 71.763 104.78 71.1465 104.569 70.5967C103.022 66.5592 105.644 62.8119 108.56 60.1549C110.125 58.7282 112.573 58.4861 114.596 58.6842C115.346 58.7578 116.11 58.9712 116.852 59.0914Z" fill="black"/>
<path fill-rule="evenodd" clip-rule="evenodd" d="M120.756 75.3761C121.268 74.8682 122.502 73.8744 123.373 72.0305C124.241 70.1902 124.765 67.4941 123.778 63.5589C123.592 62.8164 123.157 62.1948 122.629 61.6189C122.202 61.154 121.711 60.719 121.314 60.2346C120.956 59.7991 120.583 59.2971 120.141 58.9073C119.578 58.4109 118.913 58.0827 118.084 58.1195C117.643 58.1389 117.302 58.5124 117.321 58.9528C117.34 59.3932 117.714 59.7349 118.154 59.7152C118.534 59.6986 118.826 59.8783 119.084 60.1053C119.462 60.4391 119.773 60.8762 120.079 61.2488C120.496 61.7554 121.005 62.2129 121.451 62.6991C121.796 63.0746 122.107 63.4633 122.228 63.9472C123.09 67.3842 122.687 69.7411 121.928 71.3483C121.171 72.9522 120.076 73.8001 119.631 74.2417C119.318 74.552 119.316 75.0581 119.626 75.3712C119.937 75.6843 120.443 75.6864 120.756 75.3761Z" fill="black"/>
<path fill-rule="evenodd" clip-rule="evenodd" d="M109.729 64.3492C111.41 64.2883 113.148 64.3965 114.84 64.4156C115.407 64.422 116.006 64.5708 116.565 64.546C117.005 64.5265 117.347 64.1531 117.327 63.7127C117.308 63.2723 116.935 62.9306 116.494 62.95C115.964 62.9735 115.396 62.8243 114.858 62.8181C113.141 62.799 111.377 62.6911 109.671 62.7527C109.231 62.7685 108.886 63.1392 108.902 63.5798C108.918 64.0202 109.289 64.365 109.729 64.3492Z" fill="black"/>
<path fill-rule="evenodd" clip-rule="evenodd" d="M112.856 63.8188C112.867 64.4307 112.77 65.2116 112.494 65.89C112.27 66.4418 111.935 66.9415 111.374 67.1081C110.951 67.2339 110.71 67.6792 110.836 68.1017C110.962 68.5242 111.407 68.7652 111.83 68.6394C112.669 68.3895 113.292 67.7952 113.717 67.0315C114.267 66.0405 114.471 64.7569 114.454 63.7897C114.446 63.3488 114.081 62.9976 113.64 63.0055C113.2 63.0137 112.848 63.3779 112.856 63.8188Z" fill="black"/>
<path fill-rule="evenodd" clip-rule="evenodd" d="M111.072 68.6341C111.188 68.7726 111.595 69.2583 111.663 69.3464C112.444 70.3642 113.194 71.3271 114.14 72.1928C114.466 72.4903 114.971 72.4678 115.269 72.1427C115.566 71.8176 115.544 71.3117 115.219 71.0142C114.343 70.2124 113.654 69.316 112.93 68.3734C112.814 68.2228 112.322 67.556 111.986 67.309C111.705 67.1025 111.426 67.0609 111.23 67.0854C110.793 67.1404 110.482 67.5399 110.537 67.9774C110.576 68.2903 110.792 68.5382 111.072 68.6341Z" fill="black"/>
<path fill-rule="evenodd" clip-rule="evenodd" d="M100.224 84.5853C100.416 85.6529 101.557 87.4217 102.045 88.4589C102.233 88.8579 102.709 89.0294 103.108 88.8416C103.507 88.6539 103.678 88.1778 103.49 87.7788C103.05 86.8417 101.97 85.2672 101.796 84.3026C101.718 83.8686 101.303 83.5798 100.869 83.6577C100.435 83.7357 100.146 84.1513 100.224 84.5853Z" fill="black"/>
<path fill-rule="evenodd" clip-rule="evenodd" d="M24.5583 58.5851C24.8921 58.2789 25.4554 58.1335 26.03 57.9962C26.7748 57.8183 27.5501 57.6887 28.1073 57.4996C28.5247 57.358 28.7486 56.904 28.607 56.4866C28.4651 56.069 28.0112 55.8451 27.5938 55.9869C26.9591 56.2024 26.0246 56.3289 25.2019 56.5605C24.511 56.755 23.8924 57.028 23.4786 57.4076C23.1535 57.7056 23.1318 58.2112 23.4295 58.536C23.7276 58.8612 24.2331 58.8829 24.5583 58.5851Z" fill="black"/>
<path fill-rule="evenodd" clip-rule="evenodd" d="M60.1209 90.7822C60.1439 90.3297 60.4432 89.8308 60.7563 89.3298C61.162 88.6804 61.6236 88.0442 61.8879 87.5184C62.0857 87.1245 61.9267 86.644 61.5329 86.4459C61.139 86.2481 60.6584 86.4071 60.4606 86.8009C60.1595 87.3998 59.5826 88.1454 59.1588 88.8879C58.8031 89.5113 58.5541 90.1398 58.5255 90.7006C58.503 91.141 58.8422 91.5168 59.2823 91.5392C59.7227 91.5615 60.0984 91.2223 60.1209 90.7822Z" fill="black"/>
<path fill-rule="evenodd" clip-rule="evenodd" d="M50.59 0.355257C49.6857 0.264008 48.801 0.202664 47.945 0.416601C46.4955 0.779042 45.7627 1.76898 45.4067 3.01708C44.9806 4.51208 45.1799 6.43291 45.0023 7.67641C44.8707 8.59784 44.7986 9.5405 44.7986 10.4773C44.7986 16.3205 44.8477 22.1756 44.8477 28.0227C44.8477 30.8805 44.4883 33.9229 44.8037 36.7611C44.9701 38.2587 45.092 39.9807 45.092 41.4626C45.092 41.9033 45.4499 42.2614 45.8908 42.2614C46.3314 42.2614 46.6895 41.9033 46.6895 41.4626C46.6895 39.9249 46.564 38.1385 46.3912 36.5848C46.0822 33.8038 46.4452 30.823 46.4452 28.0227C46.4452 22.1756 46.3961 16.3205 46.3961 10.4773C46.3961 9.6159 46.4625 8.74942 46.5837 7.9021C46.7281 6.89146 46.6072 5.42099 46.8038 4.11513C46.9515 3.13491 47.2731 2.23111 48.3325 1.9663C49.0109 1.79684 49.7128 1.87224 50.4292 1.94483C50.8678 1.98905 51.2599 1.66904 51.3044 1.23043C51.3486 0.791822 51.0286 0.399731 50.59 0.355257Z" fill="black"/>
<path fill-rule="evenodd" clip-rule="evenodd" d="M97.3514 45.2241C97.3567 45.2575 97.3754 45.3802 97.3772 45.462C97.3825 45.7077 97.3542 45.9944 97.3212 46.2868C97.2356 47.0439 97.1397 47.8307 97.2322 48.2723C97.4927 49.5166 97.2131 50.8887 97.425 52.1534C97.7869 54.3142 97.563 56.7797 97.563 59.0168C97.563 61.4194 97.2322 64.3417 97.6236 66.6776C97.7077 67.1791 97.6458 67.7202 97.599 68.26C97.539 68.9481 97.4973 69.6341 97.6294 70.2662C97.7846 71.0069 97.6622 71.9361 97.6622 72.7108C97.6622 74.6909 97.6752 76.1358 96.9795 77.797C96.9628 77.8368 96.9171 77.8471 96.8795 77.867C96.789 77.915 96.6888 77.9496 96.5902 77.98C96.3238 78.0625 96.0629 78.1213 95.8817 78.1934C95.2641 78.439 94.4603 78.4293 93.6492 78.3808C92.6959 78.3235 91.7317 78.196 90.9639 78.196C88.8726 78.196 86.2059 77.8621 84.1816 78.4666C83.6356 78.6295 83.0183 78.451 82.4184 78.3877C81.8152 78.3243 81.2266 78.335 80.6888 78.5492C80.515 78.6182 80.2343 78.6266 79.9361 78.6233C79.4149 78.6177 78.84 78.5464 78.5489 78.4306C78.2315 78.3043 77.8322 78.2524 77.4107 78.2522C76.943 78.2519 76.4423 78.3146 76.0688 78.3146C74.514 78.3146 72.9848 78.2553 71.4514 78.2553C68.4256 78.2553 65.4916 77.8997 62.4648 77.8997C61.8526 77.8997 60.842 78.0715 59.9361 78.0932C59.509 78.1034 59.1088 78.1062 58.8526 77.9534C58.445 77.7101 57.8893 77.6352 57.2932 77.6807C56.6931 77.7267 56.0423 77.8997 55.6132 77.8997C55.5099 77.8997 55.2868 77.911 55.1567 77.9184C54.9351 77.6796 54.5798 77.5915 54.2618 77.7246C53.8554 77.8949 53.6635 78.3631 53.8337 78.7698C54.0129 79.1979 54.351 79.4208 54.7761 79.4967C55.0503 79.5455 55.3867 79.4972 55.6132 79.4972C56.0099 79.4972 56.5786 79.3748 57.1422 79.3022C57.4752 79.2595 57.8093 79.191 58.0337 79.3249C58.4966 79.6012 59.2023 79.7086 59.9745 79.6902C60.8668 79.6687 61.8618 79.4972 62.4648 79.4972C65.4916 79.4972 68.4256 79.8528 71.4514 79.8528C72.9848 79.8528 74.514 79.9121 76.0688 79.9121C76.3881 79.9121 76.7981 79.8683 77.2034 79.8538C77.479 79.8436 77.7535 79.8333 77.9582 79.9149C78.6713 80.1986 80.5352 80.3297 81.2795 80.0335C81.6808 79.8737 82.1327 79.9578 82.5853 80.0168C83.2913 80.1091 84.0001 80.1878 84.6386 79.9974C86.5259 79.4338 89.0142 79.7935 90.9639 79.7935C91.8641 79.7935 93.0402 79.9765 94.1433 80.0002C94.9981 80.0184 95.8132 79.9402 96.4723 79.6777C96.7333 79.5739 97.1671 79.5005 97.5298 79.3278C97.9405 79.1322 98.2759 78.837 98.453 78.414C99.2338 76.5496 99.2597 74.9332 99.2597 72.7108C99.2597 71.8323 99.3691 70.779 99.1932 69.9388C99.0915 69.4537 99.1444 68.9266 99.1904 68.3983C99.2492 67.7215 99.3044 67.0428 99.1991 66.4136C98.8213 64.1584 99.1605 61.3366 99.1605 59.0168C99.1605 56.6936 99.3765 54.1335 99.0005 51.8893C98.7853 50.6039 99.0608 49.2096 98.796 47.9452C98.7633 47.7888 98.7868 47.5643 98.8113 47.3131C98.8637 46.774 98.9614 46.1483 98.9736 45.6358C98.9874 45.0669 98.8712 44.6004 98.67 44.3238C98.4106 43.9673 97.9106 43.8886 97.554 44.148C97.2108 44.398 97.1251 44.8711 97.3514 45.2241Z" fill="black"/>
<path fill-rule="evenodd" clip-rule="evenodd" d="M51.0219 0.455158C50.6334 0.324291 50.2019 0.511135 50.0358 0.894279C49.8602 1.29864 50.046 1.76945 50.4504 1.94505C50.5922 2.00665 50.7737 2.04601 50.9754 2.05368C51.1967 2.06186 51.4641 2.0225 51.6328 2.0225C52.3986 2.0225 53.1991 2.01841 53.9593 1.94249C56.139 1.72447 58.3528 1.83208 60.5445 1.83208C64.5178 1.83208 68.4932 1.90824 72.4652 1.90824C74.2071 1.90824 76.0081 2.03937 77.7441 1.90594C80.4026 1.70146 83.1659 1.71782 85.8331 1.71782C88.0287 1.71782 90.3682 1.43871 92.5513 1.71169C93.395 1.81725 94.2462 1.85661 95.0025 2.02684C95.8861 2.2257 96.6166 2.6344 96.9026 3.77872C97.0066 4.19433 97.0312 4.71115 97.0312 5.14644C97.0312 5.87771 96.9246 6.74215 96.7799 7.4655C96.6935 7.89772 96.9744 8.31895 97.4067 8.40534C97.8389 8.49173 98.2601 8.21108 98.3465 7.77886C98.5106 6.95788 98.6287 5.97637 98.6287 5.14644C98.6287 4.58744 98.5857 3.92493 98.4526 3.39123C97.981 1.50491 96.8098 0.796128 95.3532 0.468449C94.5496 0.287485 93.646 0.238665 92.7494 0.126457C90.5019 -0.154447 88.0934 0.120322 85.8331 0.120322C83.1255 0.120322 80.3203 0.105498 77.6217 0.313045C75.9258 0.443656 74.1667 0.310745 72.4652 0.310745C68.4932 0.310745 64.5178 0.234576 60.5445 0.234576C58.2996 0.234576 56.0327 0.129524 53.8003 0.352918C53.092 0.423719 52.3462 0.424997 51.6328 0.424997C51.4868 0.424997 51.0909 0.450557 51.0219 0.455158Z" fill="black"/>
<path fill-rule="evenodd" clip-rule="evenodd" d="M96.7123 7.25488C97.2293 9.15271 97.0982 12.3344 96.7171 14.2397C96.438 15.635 96.5535 17.0735 96.6783 18.5205C96.79 19.8161 96.9109 21.1194 96.6547 22.3992C96.5108 23.1187 96.5523 24.3617 96.7255 25.0541C96.9116 25.7992 96.8007 26.6273 96.722 27.4501C96.6233 28.4802 96.5655 29.5023 96.8671 30.4074C97.305 31.7212 96.8886 33.927 96.8886 35.3246V46.8476C96.8886 47.2885 97.2465 47.6463 97.6874 47.6463C98.128 47.6463 98.4861 47.2885 98.4861 46.8476V35.3246C98.4861 33.7831 98.8657 31.3511 98.3826 29.9021C98.1482 29.1989 98.2354 28.403 98.3121 27.6024C98.4087 26.5943 98.5035 25.5796 98.2752 24.6666C98.148 24.1569 98.1155 23.2421 98.2213 22.7125C98.5071 21.284 98.3946 19.8294 98.2699 18.3832C98.1582 17.0886 98.034 15.8014 98.2837 14.5528C98.7047 12.4479 98.8248 8.93188 98.2538 6.83493C98.1377 6.40962 97.6984 6.15836 97.273 6.2744C96.8477 6.39019 96.5965 6.82957 96.7123 7.25488Z" fill="black"/>
<path fill-rule="evenodd" clip-rule="evenodd" d="M52.9951 5.97235C52.8859 5.9565 52.7722 5.96289 52.6605 5.9951C52.6076 5.99433 52.2063 5.98922 52.0222 6.00507C51.6851 6.0342 51.4298 6.16507 51.2784 6.31639C51.1269 6.46796 51.0236 6.65761 50.9671 6.87692C50.9214 7.05481 50.9385 7.2754 50.8973 7.44052C50.7177 8.15875 50.8391 9.0761 50.8391 9.82501C50.8391 11.5063 50.7811 13.2902 50.5078 14.9309C50.4396 15.3403 50.4702 15.7813 50.5024 16.2206C50.5237 16.5084 50.5523 16.7955 50.4863 17.0593C50.3284 17.6914 50.3941 18.5489 50.3941 19.204C50.3941 19.3747 50.366 19.6165 50.3823 19.8179C50.3946 19.9693 50.4268 20.1086 50.4748 20.2284C50.4736 20.3074 50.4707 20.5554 50.4838 20.6778C50.5142 20.9658 50.6246 21.203 50.7992 21.3776C50.9832 21.5616 51.325 21.7204 51.7702 21.7603C52.2927 21.807 53.0344 21.7142 53.3493 21.7142C55.2673 21.7142 57.1455 21.5772 59.0658 21.5772C61.8664 21.5772 64.6494 21.543 67.4523 21.543C68.6132 21.543 69.8583 21.3579 71.0159 21.5026C73.0745 21.76 75.2642 21.6115 77.3448 21.6115C79.3492 21.6115 81.4357 21.759 83.4232 21.5381C85.5209 21.305 87.7329 21.543 89.8388 21.543C90.4082 21.543 91.0741 21.5903 91.595 21.4796C92.1673 21.3582 92.6051 21.0712 92.8467 20.5881C92.9785 20.324 93.0455 19.9493 93.0496 19.5414C93.0534 19.1329 92.9993 18.6813 92.9993 18.3825C92.9993 17.8048 93.1 17.2637 93.1938 16.6996C93.2855 16.1496 93.1518 15.5568 93.2308 15.004C93.3014 14.5112 93.2671 13.9803 93.2385 13.4527C93.2173 13.0601 93.1943 12.6693 93.2835 12.312C93.5291 11.33 93.5813 10.0584 93.5813 9.03776C93.5813 8.60171 93.6321 7.90826 93.5214 7.38275C93.4432 7.01111 93.2881 6.70209 93.0734 6.48738C92.7751 6.1891 92.3751 6.01171 91.9199 5.93171C91.449 5.84915 90.909 5.87701 90.4548 5.87701C89.0791 5.87701 87.703 5.74001 86.313 5.74001C80.4503 5.74001 74.6007 5.94551 68.7188 5.94551C66.6134 5.94551 64.3347 6.18143 62.2595 5.88493C60.842 5.6825 59.0479 5.61809 57.6337 5.85375C56.5055 6.04162 55.2921 5.94551 54.1366 5.94551C53.7744 5.94551 53.3644 5.92404 52.9951 5.97235ZM91.9227 7.59771C91.8125 7.50672 91.6497 7.50007 91.4869 7.48422C91.1428 7.45099 90.7735 7.47451 90.4548 7.47451C89.0791 7.47451 87.703 7.33751 86.313 7.33751C80.4503 7.33751 74.6007 7.54301 68.7188 7.54301C66.5396 7.54301 64.1814 7.77331 62.0336 7.46659C60.7658 7.28537 59.1611 7.21865 57.8964 7.42952C56.6831 7.6317 55.379 7.54301 54.1366 7.54301C53.8091 7.54301 53.4206 7.47119 53.1229 7.57036C53.0221 7.6041 52.6574 7.63145 52.5089 7.64116L52.5069 7.64142L52.4782 7.64372C52.4693 7.71426 52.4588 7.78072 52.447 7.828C52.2968 8.42943 52.4366 9.19802 52.4366 9.82501C52.4366 11.5927 52.3711 13.4683 52.0836 15.1934C52.0228 15.5571 52.09 15.954 52.1114 16.3423C52.1327 16.7226 52.1237 17.0966 52.0363 17.4465C51.9067 17.9643 51.9916 18.6677 51.9916 19.204C51.9916 19.3228 51.979 19.604 51.9757 19.6763C52.0222 19.7896 52.0527 19.9164 52.0657 20.0531C52.0688 20.0868 52.0708 20.1293 52.0721 20.175C52.1166 20.1771 52.1605 20.1781 52.1996 20.1778C52.637 20.1727 53.1154 20.1167 53.3493 20.1167C55.2673 20.1167 57.1455 19.9797 59.0658 19.9797C61.8664 19.9797 64.6494 19.9455 67.4523 19.9455C68.6779 19.9455 69.9919 19.7648 71.214 19.9176C73.2079 20.1668 75.3294 20.014 77.3448 20.014C79.2909 20.014 81.3168 20.165 83.2468 19.9506C85.4023 19.7111 87.6749 19.9455 89.8388 19.9455C90.2413 19.9455 90.7006 19.9849 91.0984 19.9422C91.1786 19.9337 91.2553 19.9215 91.3258 19.9015C91.3601 19.8918 91.4025 19.9041 91.4176 19.8737C91.4805 19.7479 91.4559 19.5503 91.4501 19.3517C91.4396 18.9975 91.4018 18.6361 91.4018 18.3825C91.4018 17.7149 91.5094 17.0886 91.618 16.4369C91.7077 15.8988 91.5722 15.3189 91.6494 14.778C91.7057 14.3844 91.6663 13.9606 91.6436 13.5391C91.6134 12.9829 91.6073 12.4306 91.7338 11.9248C91.9503 11.059 91.9838 9.93722 91.9838 9.03776C91.9838 8.76836 92.0131 8.38521 91.9942 8.02252C91.9866 7.87682 91.9339 7.64551 91.9227 7.59771Z" fill="black"/>
<path fill-rule="evenodd" clip-rule="evenodd" d="M68.3537 10.8191C68.5493 11.0504 68.65 11.3674 68.7537 11.6853C68.9058 12.1523 69.0454 12.6295 69.2557 13.0201C70.1117 14.6102 70.9437 16.3355 72.2025 17.594C72.5141 17.9059 73.0205 17.9059 73.332 17.594C73.6439 17.2825 73.6439 16.7761 73.332 16.4645C72.1803 15.3128 71.4457 13.7174 70.6623 12.2627C70.4527 11.8735 70.3433 11.375 70.1802 10.919C70.0289 10.4955 69.8393 10.1019 69.5737 9.78776C69.289 9.45114 68.7847 9.40896 68.448 9.69345C68.1114 9.97819 68.0692 10.4825 68.3537 10.8191Z" fill="black"/>
<path fill-rule="evenodd" clip-rule="evenodd" d="M32.9983 70.2794L32.633 70.3652C32.313 70.4419 32.0196 70.5736 31.8034 70.7898C31.4287 71.1645 30.7388 71.6719 30.2028 71.9397C29.8388 72.1217 29.5063 72.4157 29.1804 72.7485C28.852 73.0846 28.5353 73.48 28.112 73.6916C26.0743 74.7104 24.1584 76.5699 22.3952 77.8922C21.4968 78.5662 20.5542 79.2688 19.6061 79.9009C19.4599 79.9983 19.2082 80.2099 19.0101 80.382C18.8133 80.4323 18.6019 80.5215 18.3879 80.6475C17.8734 80.9507 17.3001 81.4877 16.9704 81.7349C15.343 82.9553 13.6821 84.1306 12.0539 85.3516C11.0213 86.1263 9.97897 86.8936 8.94609 87.6686C7.38386 88.84 5.54967 90.0309 3.94732 91.4009C2.24426 92.857 0.805739 94.5179 0.134533 96.5315C-0.0574221 97.1074 -0.031095 97.7628 0.132233 98.415C0.333902 99.2212 0.743117 100.024 1.02555 100.588C1.22058 100.979 1.52781 101.57 1.89383 102.059C2.19927 102.467 2.55276 102.802 2.90856 102.98C3.38551 103.218 3.90131 103.348 4.41686 103.47C4.81176 103.563 5.20691 103.649 5.5645 103.828C5.79045 103.941 6.1304 104.007 6.51916 103.999C7.19344 103.985 8.04356 103.764 8.36971 103.601C10.1863 102.693 11.8944 101.617 13.6545 100.444C17.2247 98.0636 20.4821 95.0598 24.1898 92.835C25.6501 91.9588 26.96 90.8191 28.3267 89.7942C30.1918 88.3953 32.2016 87.1173 33.8372 85.4817C34.6863 84.6326 35.9231 83.7707 36.9366 83.0952C37.8105 82.5124 38.3383 81.6331 39.1971 81.0606C39.6321 80.7707 40.6464 80.1616 41.0571 79.493C41.3608 78.9992 41.4262 78.4731 41.1637 77.9481C40.8291 77.2792 40.6083 76.8373 40.2594 76.1398C40.1091 75.8387 39.8632 75.5626 39.5872 75.3052C39.3556 75.0895 39.0777 74.9065 38.9597 74.6703C38.2289 73.2085 36.4075 71.4717 35.2289 70.8749C35.2087 70.8606 34.8736 70.6226 34.6441 70.4734C34.3821 70.3031 34.1102 70.1638 33.9075 70.1094C33.5149 70.0041 33.2081 70.1043 32.9983 70.2794ZM33.6488 71.7414C33.5757 71.7733 33.498 71.8007 33.4162 71.8237C33.2664 71.8659 32.9612 71.9369 32.9007 71.951C32.4224 72.4198 31.5774 73.0386 30.9172 73.3685C30.6289 73.5127 30.3922 73.7926 30.1317 74.0633C29.7412 74.4689 29.3246 74.8712 28.8264 75.1204C26.8708 76.0981 25.0458 77.9014 23.3537 79.1702C22.432 79.8616 21.4649 80.5818 20.4923 81.2303C20.2444 81.3954 19.9415 81.7389 19.6619 81.9314C19.406 82.1078 19.1473 82.1982 18.9196 82.211C18.5403 82.4881 18.1674 82.8342 17.9289 83.0129C16.3015 84.2333 14.6406 85.4086 13.0124 86.6296C11.9798 87.4043 10.9375 88.1716 9.90459 88.9466C8.36792 90.0991 6.56159 91.2675 4.98557 92.6152C3.50999 93.8766 2.23148 95.2919 1.64999 97.0366C1.51758 97.4341 1.62673 97.8969 1.77395 98.3425C1.96412 98.9183 2.25065 99.4663 2.45436 99.874C2.61692 100.199 2.86792 100.695 3.1726 101.102C3.31445 101.291 3.45784 101.468 3.62296 101.551C3.98898 101.734 4.38874 101.822 4.78441 101.915C5.29177 102.035 5.79454 102.161 6.25487 102.387C6.28657 102.389 6.52453 102.405 6.67304 102.391C7.05669 102.356 7.4792 102.261 7.65531 102.173C9.41307 101.294 11.065 100.25 12.7683 99.1144C16.3595 96.7204 19.6383 93.7028 23.3678 91.4653C24.7813 90.6172 26.0452 89.5084 27.3682 88.5162C29.173 87.1625 31.125 85.9349 32.7077 84.3522C33.625 83.4348 34.9554 82.4958 36.0504 81.7658C36.9243 81.1833 37.4521 80.304 38.3109 79.7315C38.5576 79.5669 39.0527 79.2903 39.4328 78.9498C39.5163 78.8747 39.5941 78.797 39.6557 78.7152C39.6753 78.6891 39.6991 78.6467 39.7134 78.6199L38.8306 76.8542C38.7041 76.6009 38.4237 76.4089 38.1929 76.1957C37.915 75.9389 37.6735 75.67 37.5309 75.385C36.9356 74.1939 35.4526 72.7725 34.4976 72.295C34.3951 72.2437 34.1554 72.0719 33.8937 71.8932C33.8254 71.8464 33.7296 71.7887 33.6488 71.7414Z" fill="black"/>
<path fill-rule="evenodd" clip-rule="evenodd" d="M35.2582 70.9818C34.9786 71.0414 34.7401 71.2499 34.6563 71.5441C34.5356 71.9682 34.7818 72.4104 35.2058 72.531C35.3789 72.5803 35.6626 72.589 35.9808 72.4175C36.312 72.2391 36.8754 71.7087 37.0321 71.5871C38.2066 70.6736 39.3649 69.6419 40.6069 68.8138C40.9737 68.5695 41.0731 68.0731 40.8285 67.7063C40.5839 67.3395 40.0875 67.2401 39.7207 67.4847C38.4468 68.334 37.2562 69.3889 36.0513 70.3259C35.9427 70.4105 35.4024 70.8612 35.2582 70.9818Z" fill="black"/>
<path fill-rule="evenodd" clip-rule="evenodd" d="M40.5954 78.0443C41.1486 77.7044 41.6764 77.1001 42.197 76.674C43.1461 75.8978 44.2239 75.2869 45.0935 74.4171C45.4053 74.1055 45.4053 73.5994 45.0935 73.2876C44.7819 72.9758 44.2756 72.9758 43.964 73.2876C43.132 74.1196 42.0933 74.6949 41.1856 75.4377C40.7176 75.8206 40.256 76.3778 39.7591 76.6832C39.3834 76.914 39.2658 77.4063 39.4966 77.7821C39.7274 78.1575 40.22 78.2751 40.5954 78.0443Z" fill="black"/>
<path fill-rule="evenodd" clip-rule="evenodd" d="M40.1319 63.5138C40.0422 63.546 39.9065 63.5961 39.8308 63.6298C39.6734 63.7004 39.5471 63.7886 39.4602 63.8757C38.881 64.4547 38.5738 65.347 38.7481 66.2188C39.2603 68.7797 41.0183 70.6803 42.3015 72.8187C42.6713 73.4354 43.2035 74.2452 43.834 74.8637C44.3291 75.3491 44.8884 75.7161 45.4719 75.8621C46.0376 76.0034 46.7788 76.1169 47.3751 75.9679C47.5753 75.9178 47.7928 75.8102 48.0067 75.6865C48.0962 75.6351 48.2572 75.5518 48.2976 75.5311C48.7111 75.5012 49.0378 75.1559 49.0378 74.7346C49.0378 74.2937 48.68 73.9359 48.239 73.9359C47.9947 73.9359 47.7202 74.0215 47.448 74.1672C47.2905 74.2516 47.1364 74.3809 46.9876 74.4179C46.6331 74.5066 46.1955 74.3962 45.8594 74.3121C45.5305 74.2301 45.2317 73.997 44.9528 73.7232C44.4222 73.2028 43.9825 72.5158 43.6712 71.9969C42.4806 70.0127 40.7898 68.2815 40.3147 65.9055C40.2539 65.6013 40.3466 65.291 40.5312 65.0701C40.6585 65.0216 40.9874 64.8925 41.0991 64.8133C41.3603 64.628 41.4715 64.3869 41.4943 64.1536C41.5375 63.7147 41.2162 63.3236 40.7773 63.2807C40.5286 63.2564 40.2953 63.3489 40.1319 63.5138Z" fill="black"/>
<path fill-rule="evenodd" clip-rule="evenodd" d="M39.8678 63.5152C39.8455 63.589 39.8338 63.667 39.8343 63.748C39.8361 64.1887 40.1954 64.5452 40.6364 64.5432C40.9645 64.5419 41.3119 64.4006 41.4458 63.9065C41.4839 63.7662 41.4934 63.4551 41.429 63.0835C41.3267 62.493 41.0826 61.6764 41.0203 61.5517C40.78 61.0716 40.7194 60.5154 40.6601 59.9519C40.5845 59.2328 40.5216 58.5011 40.2987 57.8327C39.912 56.6725 39.9687 55.3099 40.2323 53.9371C40.6542 51.7402 41.6194 49.5203 42.3967 47.966C45.7611 41.2368 53.3177 35.9426 60.8001 35.9426C62.1522 35.9426 64.1715 35.5546 65.4418 35.9781C70.0275 37.5066 73.1873 38.4132 76.677 41.9029C77.1894 42.4154 77.5399 43.0907 77.8737 43.7836C78.2637 44.5934 78.6264 45.4289 79.1006 46.14C83.5281 52.781 84.0661 63.5903 77.9003 69.7562C77.144 70.5125 76.3084 71.5446 75.3995 72.4755C74.5872 73.3072 73.7228 74.0676 72.7832 74.3807C71.0788 74.9489 69.3954 76.1239 67.5653 76.5814C63.7334 77.5394 58.5846 77.8661 54.782 76.5986C53.3514 76.1216 51.9426 75.6286 50.6042 74.9594C50.478 74.8963 50.3875 74.7723 50.2878 74.657C50.1608 74.5103 50.036 74.36 49.9039 74.2284C49.5522 73.8785 49.1473 73.6515 48.6412 73.6515C48.2003 73.6515 47.8425 74.0096 47.8425 74.4502C47.8425 74.8912 48.2003 75.249 48.6412 75.249C48.6865 75.249 48.7074 75.2953 48.7396 75.3249C48.838 75.4157 48.9278 75.5248 49.0198 75.6324C49.2797 75.9366 49.5583 76.2226 49.8898 76.3882C51.2956 77.0914 52.774 77.613 54.277 78.114C58.3448 79.47 63.8533 79.1561 67.9528 78.1311C69.8223 77.6639 71.5473 76.4766 73.2882 75.8964C74.227 75.5833 75.1252 74.941 75.9631 74.1594C77.0931 73.1055 78.1191 71.7966 79.03 70.8857C85.7232 64.1925 85.236 52.4633 80.4299 45.2538C79.9954 44.602 79.6703 43.8322 79.3127 43.0902C78.8989 42.2314 78.4419 41.4086 77.8065 40.7732C74.1156 37.0823 70.7972 36.0793 65.9469 34.4624C64.538 33.9929 62.2997 34.3451 60.8001 34.3451C52.7462 34.3451 44.5895 40.0084 40.9679 47.2516C40.1372 48.9127 39.1143 51.2883 38.6636 53.636C38.3454 55.293 38.3165 56.9373 38.7833 58.338C38.9704 58.8988 39.0079 59.5153 39.0713 60.119C39.1511 60.8782 39.2679 61.6191 39.5912 62.2661C39.5887 62.2607 39.5782 62.2397 39.5782 62.2397L39.8678 63.5152ZM40.1957 63.0763C40.3204 62.9943 40.4694 62.9465 40.6295 62.9457C40.4694 62.9465 40.3225 62.9863 40.1957 63.0763Z" fill="black"/>
<path fill-rule="evenodd" clip-rule="evenodd" d="M48.1768 54.4394C48.2391 54.2937 48.4421 53.816 48.4753 53.6836C48.6831 52.8521 49.0241 52.0933 49.2866 51.3058C50.5881 47.401 55.0989 43.4203 59.3974 43.4203C59.838 43.4203 60.1961 43.0624 60.1961 42.6215C60.1961 42.1808 59.838 41.8228 59.3974 41.8228C54.473 41.8228 49.262 46.3274 47.7711 50.8004C47.4959 51.6263 47.1434 52.4243 46.9254 53.2964C46.8865 53.4515 46.6662 53.8689 46.6105 54.0872C46.5294 54.4054 46.6041 54.6488 46.6738 54.7799C46.8811 55.1689 47.3652 55.3166 47.7545 55.1094C48.0127 54.9718 48.1645 54.7121 48.1768 54.4394Z" fill="black"/>
</svg>
