<svg width="34" height="32" viewBox="0 0 34 32" fill="none" xmlns="http://www.w3.org/2000/svg">
<path fill-rule="evenodd" clip-rule="evenodd" d="M11.0514 23.9108C11.0827 23.8225 11.4161 23.7423 11.5583 23.7067C11.9277 23.6144 12.3015 23.5045 12.6661 23.3952C13.4895 23.1481 14.3209 23.0821 15.1586 22.9624C15.4306 22.9235 15.8051 22.8568 16.0414 23.0144C16.3175 23.1984 16.2151 23.5872 16.3011 23.8452C16.3472 23.9834 16.3727 24.2686 16.3357 24.4164C16.1834 25.0256 15.7108 25.1992 15.124 25.3165C14.8774 25.3659 14.6467 25.4999 14.397 25.5416C13.8235 25.6371 13.2445 25.7186 12.6661 25.8012C12.1973 25.8682 11.7097 25.8734 11.3159 25.6108C11.1787 25.5193 11.1665 25.2332 11.1428 25.0915C11.0865 24.7534 10.9697 24.434 10.9697 24.0876C10.9697 23.9191 11.0813 23.6154 11.2986 23.724" fill="#5BCFB9"/>
<path fill-rule="evenodd" clip-rule="evenodd" d="M19.2063 22.4638C19.1111 22.4383 18.9365 22.5528 18.8495 22.5854C18.7057 22.6393 18.5198 22.6526 18.4044 22.768C18.0576 23.1148 18.2746 23.702 18.4843 24.069C18.5644 24.2091 18.6479 24.38 18.781 24.4798C18.868 24.5451 18.997 24.5251 19.0891 24.5711C19.4586 24.7559 19.9935 24.5809 20.3901 24.5369C21.0242 24.4664 21.6443 24.3072 22.273 24.2173C22.5632 24.1759 22.8996 24.1468 23.1404 23.9663C23.4883 23.7053 23.5352 23.2541 23.6311 22.8708C23.6494 22.7976 23.6311 22.6953 23.6311 22.6197C23.6311 21.7527 22.4666 21.935 21.8508 22.0034C21.699 22.0203 21.5469 22.0352 21.3943 22.0491C21.1974 22.067 20.9952 22.0901 20.8009 22.129C20.5527 22.1786 20.2938 22.1998 20.0477 22.2545C19.7582 22.3188 19.4494 22.355 19.169 22.4485C19.1218 22.4642 18.9179 22.4842 18.9179 22.5512" fill="#5BCFB9"/>
<path fill-rule="evenodd" clip-rule="evenodd" d="M12.2674 1.46685C12.1551 1.49006 12.0944 1.41892 11.969 1.51299C11.736 1.68771 11.6478 2.29242 11.9826 2.40404C12.3287 2.51939 12.826 2.0274 12.5858 1.6912C12.5173 1.5952 12.3827 1.54043 12.2705 1.54043C12.2443 1.54043 12.0293 1.54594 12.0923 1.60894" fill="#F58773"/>
<path fill-rule="evenodd" clip-rule="evenodd" d="M15.038 26.3894C14.9635 26.3572 14.3886 26.3108 14.62 26.0794C14.7438 25.9556 15.0335 26.0213 15.1692 26.0794C15.298 26.1347 15.4383 26.157 15.5658 26.2116C15.7989 26.3116 15.9975 26.5038 16.2269 26.6185C16.5972 26.8036 17.0255 26.9282 17.3762 27.1473C18.0673 27.5793 18.8057 27.9275 19.573 28.2153C20.0298 28.3866 20.4391 28.6646 20.8952 28.8356C21.3243 28.9966 21.706 29.2576 22.1258 29.4255C22.2808 29.4875 22.4814 29.5924 22.6546 29.5577C22.7876 29.5312 22.9071 29.4218 23.0411 29.395C23.7378 29.2557 24.3348 28.6945 24.9226 28.3271C25.4319 28.0088 25.9646 27.7298 26.499 27.4626C26.7761 27.3241 27.033 27.1445 27.3025 26.9948C27.7801 26.7295 28.2896 26.5267 28.7874 26.3134C29.2703 26.1064 29.8263 25.9497 30.3333 25.8049C30.5413 25.7454 30.7741 25.6119 30.8622 25.876C30.8793 25.9273 30.7762 26.0422 30.7401 26.0693C30.5444 26.2161 30.3374 26.3464 30.1299 26.4761C29.6973 26.7465 29.1867 26.8942 28.7569 27.1677C28.3643 27.4175 28.0024 27.6944 27.6178 27.9508C27.1575 28.2577 26.7121 28.6441 26.2957 29.0085C25.876 29.3756 25.3561 29.6607 24.9023 29.9849C24.5166 30.2604 24.0967 30.6627 23.6208 30.7579C23.4391 30.7942 23.2447 30.5627 23.1123 30.4832C22.9362 30.3775 22.7331 30.3066 22.5529 30.1985C22.4746 30.1515 22.4325 30.07 22.3597 30.0154C22.0147 29.7567 21.6436 29.6573 21.2613 29.4662C21.0528 29.3619 20.8503 29.2197 20.651 29.1001C20.5361 29.0311 20.3335 29.0112 20.2035 28.9678C19.9066 28.8689 19.6104 28.7475 19.3391 28.6119C19.2685 28.5766 19.1734 28.6021 19.1051 28.5509C19.0403 28.5022 18.9964 28.4253 18.9221 28.3881C18.6722 28.2632 18.3645 28.2465 18.1084 28.144C17.8056 28.0229 17.5222 27.8126 17.244 27.6457C16.9725 27.4828 16.7057 27.3386 16.4506 27.1473C16.1865 26.9493 15.8137 26.8034 15.5251 26.6591C15.4578 26.6255 15.046 26.4818 15.098 26.4558" fill="#FC92B6"/>
<path fill-rule="evenodd" clip-rule="evenodd" d="M4.74102 3.38054C4.80503 3.40255 4.76432 4.17362 4.76432 4.38551C4.76432 5.50546 4.68459 6.58851 4.68459 7.69541C4.68459 10.9886 4.76432 14.2769 4.76432 17.5852C4.76432 18.224 4.49493 20.8747 4.72443 21.3338C5.02759 21.9401 6.33752 21.8123 7.07729 21.8123H13.8565C14.9784 21.8123 16.0539 21.6129 17.1664 21.6129C17.8267 21.6129 18.9111 21.7375 19.4794 21.4534C19.7251 21.3305 19.4395 20.2458 19.4395 20.0178C19.4395 18.5959 19.1916 17.0928 19.6389 15.7508C19.9554 14.8014 19.9732 12.9803 19.7187 11.9624C19.3388 10.4427 19.599 7.96328 19.599 6.33953C19.599 5.6919 19.8758 3.62548 19.4794 3.22903C19.1503 2.89995 17.9519 3.30476 17.4855 3.1493C16.8748 2.94572 15.9439 3.10941 15.2922 3.10941H10.5865C9.51429 3.10941 6.96557 3.00041 6.04042 3.30881C5.81074 3.38537 4.68459 3.09029 4.68459 3.38854" fill="#388CE0"/>
<path fill-rule="evenodd" clip-rule="evenodd" d="M6.37116 7.20695C6.2441 7.04211 6.26735 6.64994 6.31653 6.45312C6.35591 6.29559 6.35591 6.13456 6.40706 5.98107C6.47259 5.78448 6.57543 5.58417 6.70452 5.41202C6.76008 5.33794 6.84546 5.27632 6.89206 5.19866C6.97441 5.06135 7.16622 4.89021 7.31235 4.81714C7.44682 4.74991 7.57292 4.67924 7.71974 4.64252C7.82787 4.6155 7.98021 4.5996 8.07538 4.55199C8.11972 4.52984 8.19486 4.54477 8.24348 4.5326C8.44471 4.48232 8.70063 4.52405 8.89015 4.57143C9.04883 4.61109 9.17327 4.65718 9.32336 4.70718C9.40585 4.7347 9.4649 4.8018 9.54968 4.83006C9.6687 4.86972 9.75358 5.01456 9.83419 5.09517C10.1269 5.38785 10.3191 5.72869 10.4485 6.11687C10.4837 6.22229 10.486 6.33809 10.5132 6.44664C10.5319 6.52168 10.4944 6.61083 10.5132 6.68587C10.5451 6.81381 10.5277 7.02368 10.4873 7.145C10.2689 7.80013 9.60841 8.3298 8.96772 8.48999C8.85518 8.51812 8.73969 8.56384 8.63147 8.59991C8.34398 8.69573 7.97433 8.62441 7.70678 8.53526C7.59603 8.49831 7.48243 8.50387 7.37701 8.45116C7.02362 8.27447 6.78586 7.99764 6.56229 7.66231C6.45953 7.50823 6.3424 7.36361 6.3424 7.1644" fill="white"/>
<path fill-rule="evenodd" clip-rule="evenodd" d="M23.2698 24.5114C23.3582 24.4953 23.4365 24.5227 23.5112 24.5657C23.6092 24.6221 23.7009 24.7043 23.7945 24.783C24.0349 24.9854 24.288 25.1546 24.6099 25.0473C24.7167 25.0116 24.8203 24.9313 24.8804 24.8344C24.9278 24.7581 24.9491 24.6722 24.9366 24.5878C24.9236 24.4994 24.8748 24.4078 24.7619 24.3325C24.5907 24.2184 24.4349 24.0827 24.264 23.9753C24.0718 23.8546 23.8619 23.7679 23.6007 23.7679C23.5202 23.7679 23.4548 23.8333 23.4548 23.9139C23.4548 23.9944 23.5202 24.0598 23.6007 24.0598C23.8012 24.0598 23.9613 24.1298 24.1087 24.2225C24.2775 24.3284 24.431 24.4628 24.6 24.5754C24.6266 24.5931 24.6448 24.6095 24.6479 24.6303C24.6515 24.655 24.6362 24.678 24.6193 24.6988C24.5929 24.7313 24.5558 24.7576 24.5176 24.7703C24.3016 24.8423 24.1437 24.6955 23.9825 24.5598C23.8754 24.4696 23.7689 24.3773 23.6568 24.3127C23.5213 24.2348 23.3775 24.195 23.2172 24.2243C23.138 24.2388 23.0855 24.3149 23.0999 24.3942C23.1145 24.4734 23.1906 24.526 23.2698 24.5114Z" fill="black"/>
<path fill-rule="evenodd" clip-rule="evenodd" d="M7.64681 5.52191C7.7622 5.56984 7.95608 5.54948 8.08149 5.55012C8.3523 5.55155 8.64489 5.51952 8.91345 5.55454C8.99332 5.56492 9.06661 5.50854 9.077 5.42867C9.08743 5.3488 9.03104 5.2755 8.95118 5.26507C8.67095 5.22858 8.36558 5.25974 8.08301 5.25827C8.0275 5.25799 7.95673 5.26415 7.88706 5.26521C7.84005 5.2659 7.79331 5.26672 7.75885 5.25239C7.68449 5.22146 7.59897 5.25675 7.56809 5.33111C7.53716 5.40551 7.57246 5.49098 7.64681 5.52191Z" fill="black"/>
<path fill-rule="evenodd" clip-rule="evenodd" d="M7.76661 6.41422C7.73462 6.41353 7.70218 6.42337 7.67484 6.44442C7.61101 6.49349 7.59906 6.58522 7.64818 6.64905C7.69556 6.71058 7.76068 6.73246 7.8405 6.70925C7.87373 6.69955 7.91486 6.6763 7.95415 6.64234C8.01173 6.59266 8.07064 6.51863 8.08613 6.49823C8.24766 6.28518 8.37403 6.00707 8.43212 5.74752C8.45022 5.66669 8.47196 5.59325 8.48262 5.51136C8.48423 5.49923 8.48643 5.47028 8.488 5.44826C8.49976 5.41922 8.50229 5.38623 8.4931 5.35378C8.45937 5.23522 8.36539 5.23991 8.33892 5.24179C8.30248 5.24441 8.25202 5.25824 8.21921 5.32001C8.21388 5.33007 8.20483 5.35093 8.20074 5.3809C8.19757 5.40424 8.19596 5.45235 8.1932 5.47363C8.18369 5.54656 8.16342 5.61177 8.14729 5.68378C8.09794 5.90436 7.99082 6.1408 7.85351 6.32186C7.84491 6.33321 7.79446 6.38555 7.76661 6.41422ZM7.87524 6.46578L7.87952 6.47107C7.87814 6.46923 7.87671 6.46748 7.87524 6.46578ZM8.21599 5.44486L8.21645 5.44597L8.21517 5.44252L8.21599 5.44486ZM8.21434 5.44018L8.21232 5.43365C8.21296 5.4359 8.21365 5.43806 8.21434 5.44018Z" fill="black"/>
<path fill-rule="evenodd" clip-rule="evenodd" d="M7.66051 6.59281C7.67342 6.61409 7.6924 6.64695 7.69626 6.66193C7.72654 6.78012 7.75977 6.91252 7.823 7.02005C8.00695 7.33295 8.22515 7.6669 8.54646 7.8571C8.61576 7.8981 8.70537 7.87516 8.7464 7.80582C8.7874 7.73652 8.76446 7.64696 8.69512 7.60592C8.41604 7.44071 8.23438 7.14389 8.07464 6.87212C8.02497 6.78766 8.00277 6.68228 7.97897 6.58946C7.96518 6.5356 7.89152 6.41001 7.87962 6.39512C7.84634 6.35362 7.81078 6.34641 7.79965 6.34365C7.72732 6.32577 7.67824 6.35353 7.64447 6.40247C7.64102 6.40743 7.58964 6.46704 7.63973 6.56285C7.64552 6.57392 7.65251 6.58394 7.66051 6.59281ZM7.90719 6.4481L7.90521 6.44268C7.90719 6.44764 7.90875 6.45242 7.9099 6.45697L7.90939 6.45509C7.90866 6.45274 7.90792 6.45045 7.90719 6.4481ZM7.90227 6.43565L7.90406 6.43983L7.90301 6.43721L7.90227 6.43565Z" fill="black"/>
<path fill-rule="evenodd" clip-rule="evenodd" d="M7.78009 5.87136C7.7561 5.85693 7.72774 5.84926 7.69773 5.85077C7.62701 5.85436 7.5971 5.89425 7.58221 5.91709C7.55633 5.95693 7.5436 6.00771 7.57701 6.06782C7.58335 6.07931 7.5965 6.10067 7.62531 6.11965C7.63648 6.12701 7.68252 6.14732 7.69815 6.15164C7.73335 6.16143 7.76837 6.16317 7.80348 6.17103C7.89139 6.1907 8.00278 6.17893 8.09207 6.17939C8.25121 6.18027 8.40837 6.23707 8.56788 6.2418C8.68479 6.24529 8.8028 6.231 8.91975 6.22958C9.00031 6.22857 9.06487 6.16239 9.06391 6.08183C9.0629 6.00128 8.99672 5.93671 8.91617 5.93772C8.8033 5.9391 8.68943 5.95344 8.57656 5.95008C8.41471 5.94521 8.25511 5.88837 8.09358 5.88754C8.0236 5.88717 7.93615 5.9016 7.86721 5.88621C7.83826 5.87968 7.80917 5.87894 7.78009 5.87136ZM7.81855 6.08822C7.79341 6.11938 7.75555 6.1401 7.71244 6.14231C7.77135 6.13932 7.80164 6.11074 7.81855 6.08822ZM7.8452 5.95574C7.85747 5.99287 7.85233 6.02595 7.839 6.05444C7.84768 6.0345 7.852 6.01235 7.85085 5.98919C7.85026 5.97761 7.84833 5.9664 7.8452 5.95574Z" fill="black"/>
<path fill-rule="evenodd" clip-rule="evenodd" d="M2.58204 22.7722C2.55529 22.8552 2.55465 22.9577 2.56908 23.0579C2.58641 23.1781 2.6359 23.3462 2.6359 23.3462C2.6359 23.3462 2.63562 23.3379 2.63562 23.3356C2.63562 23.3842 2.65754 23.4775 2.69978 23.5885C2.78497 23.8123 2.94876 24.1229 3.07416 24.2525C3.27691 24.4619 3.50793 24.5501 3.76715 24.5923C3.99771 24.6299 4.2522 24.6292 4.52862 24.6605C5.39076 24.7583 6.31114 24.7315 7.18385 24.7315C7.52424 24.7315 7.92091 24.6792 8.25615 24.7299C8.6366 24.7875 9.07294 24.7433 9.46222 24.7433C9.66736 24.7433 9.89943 24.785 10.0966 24.7253C10.1737 24.7019 10.2174 24.6204 10.194 24.5433C10.1707 24.4662 10.0892 24.4226 10.0121 24.4459C9.8412 24.4976 9.63997 24.4514 9.46222 24.4514C9.08705 24.4514 8.66647 24.4968 8.29985 24.4413C7.95092 24.3885 7.53811 24.4397 7.18385 24.4397C6.32193 24.4397 5.41301 24.4671 4.56152 24.3705C4.29025 24.3397 4.0404 24.3412 3.81412 24.3043C3.61656 24.272 3.4384 24.209 3.28385 24.0494C3.19332 23.9559 3.08345 23.7477 3.00794 23.5718C2.96328 23.4677 2.92752 23.3775 2.92752 23.3356C2.92752 23.3125 2.90855 23.2398 2.8852 23.148C2.86296 23.0605 2.83304 22.945 2.85983 22.8617C2.88456 22.785 2.84237 22.7027 2.76567 22.678C2.68902 22.6533 2.60672 22.6955 2.58204 22.7722Z" fill="black"/>
<path fill-rule="evenodd" clip-rule="evenodd" d="M11.0398 25.4832C10.9898 25.2844 10.8972 24.9479 10.7899 24.7869C10.7552 24.7349 10.7005 24.6944 10.6396 24.6611C10.6103 24.645 10.5603 24.6153 10.5506 24.6095C10.482 24.4664 10.4599 24.2095 10.4252 24.0532C10.4161 24.0121 10.3968 23.9663 10.3766 23.92C10.3685 23.9015 10.3605 23.8828 10.3542 23.8643C10.3511 23.8552 10.3457 23.847 10.3471 23.8388C10.3604 23.7593 10.3067 23.684 10.2272 23.6707C10.1478 23.6574 10.0725 23.7111 10.0592 23.7906C10.0498 23.8469 10.0598 23.9093 10.0828 23.9722C10.1009 24.022 10.1305 24.0724 10.1403 24.1165C10.1799 24.2945 10.2129 24.587 10.2924 24.7462C10.3206 24.8024 10.3736 24.848 10.4395 24.8849C10.4621 24.8975 10.4861 24.9095 10.5091 24.9225C10.5233 24.9306 10.5388 24.9365 10.547 24.9488C10.6427 25.0923 10.7179 25.3989 10.7606 25.5694C10.7704 25.6088 10.7939 25.6494 10.8296 25.6866C10.8612 25.7195 10.9122 25.748 10.9326 25.7786C10.9684 25.8323 10.9998 25.904 11.0433 25.9614C11.0892 26.0218 11.1461 26.0692 11.2183 26.0932C11.6645 26.2419 12.0924 26.261 12.5706 26.1927C13.0216 26.1283 13.4883 26.1751 13.9379 26.1109C14.4276 26.0409 14.8939 25.8896 15.3717 25.794C15.6246 25.7434 15.9313 25.6368 16.1486 25.4918C16.462 25.2829 16.5567 24.9562 16.6413 24.6172C16.7091 24.3452 16.7682 24.0633 17.0201 23.8744C17.261 23.6937 17.684 23.6082 17.9501 23.7856C18.0014 23.8198 18.0208 23.8924 18.0498 23.9559C18.0847 24.0318 18.1233 24.103 18.1733 24.153C18.2302 24.21 18.3227 24.21 18.3797 24.153C18.4366 24.0961 18.4366 24.0036 18.3797 23.9466C18.331 23.898 18.3077 23.8132 18.2716 23.741C18.2306 23.6592 18.1797 23.5879 18.112 23.5427C17.7501 23.3014 17.1727 23.3951 16.8449 23.6409C16.5343 23.8739 16.4417 24.2112 16.358 24.5466C16.2911 24.8149 16.2347 25.0836 15.9867 25.249C15.7989 25.3742 15.533 25.4641 15.3145 25.5078C14.8419 25.6023 14.3809 25.7528 13.8967 25.822C13.447 25.8862 12.9804 25.8393 12.5294 25.9038C12.0984 25.9653 11.7127 25.9503 11.3106 25.8163C11.2784 25.8056 11.2647 25.771 11.2474 25.7412C11.2222 25.6979 11.1999 25.6532 11.1755 25.6167C11.1581 25.5906 11.1311 25.5631 11.0998 25.5364C11.0818 25.5211 11.0507 25.493 11.0398 25.4832Z" fill="black"/>
<path fill-rule="evenodd" clip-rule="evenodd" d="M10.1329 23.5783C10.0715 23.5816 10.0165 23.6238 9.99976 23.6863C9.9789 23.7641 10.0251 23.8442 10.1029 23.865C10.1347 23.8735 10.1776 23.8741 10.2259 23.8568C10.2892 23.834 10.3863 23.7596 10.425 23.7375C10.6139 23.6295 10.815 23.5069 11.0238 23.4472C11.7633 23.2359 12.4876 22.9523 13.2482 22.8436C13.7646 22.7698 14.2978 22.8239 14.8142 22.7501C15.0132 22.7217 15.2935 22.7045 15.4941 22.738C16.0065 22.8233 16.5876 22.9435 17.1198 22.8548C17.562 22.7811 18.0181 22.6744 18.4356 22.5074C18.7259 22.3913 18.9951 22.1573 19.3099 22.0943C20.0071 21.9548 20.7041 21.8365 21.4018 21.697C21.6325 21.6508 21.8847 21.7079 22.1147 21.6619C22.5265 21.5795 23.1483 21.631 23.5466 21.7305C23.653 21.7571 23.8233 21.7746 23.967 21.8086C24.0316 21.8239 24.091 21.8369 24.1215 21.8674C24.1366 21.8824 24.1399 21.9078 24.1455 21.9355C24.1563 21.9889 24.1602 22.0509 24.1635 22.1143C24.1721 22.2782 24.1817 22.4487 24.2344 22.554C24.2408 22.5669 24.2363 22.5928 24.2341 22.6032C24.176 22.6441 24.155 22.7224 24.1877 22.7878C24.2237 22.8598 24.3114 22.8891 24.3835 22.8531C24.4393 22.8251 24.4872 22.7694 24.5117 22.6958C24.5399 22.6115 24.536 22.5045 24.4955 22.4235C24.4751 22.3827 24.4694 22.3257 24.4644 22.2644C24.4577 22.1821 24.4561 22.0929 24.4493 22.0108C24.437 21.8609 24.3991 21.7322 24.3279 21.661C24.2682 21.6013 24.1607 21.5545 24.0343 21.5246C23.8919 21.4908 23.7229 21.4737 23.6173 21.4473C23.1835 21.3389 22.506 21.286 22.0574 21.3757C21.8274 21.4217 21.5753 21.3646 21.3445 21.4108C20.6468 21.5503 19.9499 21.6686 19.2526 21.8081C18.9207 21.8745 18.6334 22.1139 18.3272 22.2364C17.9289 22.3957 17.4937 22.4966 17.0718 22.5669C16.5708 22.6504 16.0245 22.5304 15.5421 22.45C15.3151 22.4122 14.9981 22.429 14.7729 22.4612C14.2565 22.535 13.7233 22.4809 13.2069 22.5547C12.4332 22.6652 11.6959 22.9516 10.9436 23.1665C10.7128 23.2325 10.4889 23.3647 10.2802 23.484C10.2538 23.4991 10.1574 23.5622 10.1329 23.5783Z" fill="black"/>
<path fill-rule="evenodd" clip-rule="evenodd" d="M24.2274 22.7997L24.1763 22.8178C24.1246 22.8358 24.0753 22.8607 24.0354 22.9007C23.9762 22.9598 23.9298 23.0647 23.8717 23.1227C23.8401 23.1544 23.821 23.1955 23.817 23.2456C23.815 23.2707 23.8208 23.3241 23.8232 23.3449C23.805 23.3876 23.7923 23.437 23.7807 23.4872C23.7709 23.5294 23.7697 23.5754 23.7432 23.6019C23.5718 23.7732 23.3607 24.0544 23.1705 24.2446C22.8933 24.5219 22.4035 24.5858 22.0297 24.6605C21.0754 24.8514 19.9906 24.8871 19.0435 24.6503C18.9194 24.6193 18.8449 24.5345 18.774 24.4461C18.6754 24.323 18.5837 24.191 18.4506 24.1008L18.4402 24.0721C18.4343 24.0563 18.4274 24.0411 18.4189 24.0266C18.3959 23.9875 18.3629 23.9517 18.3012 23.9265C18.2266 23.8961 18.1414 23.9319 18.1109 24.0064C18.0832 24.0744 18.1105 24.1511 18.1718 24.1873C18.1854 24.2204 18.2231 24.2998 18.2843 24.3407C18.3946 24.4142 18.4651 24.5274 18.5463 24.6286C18.6562 24.7658 18.7803 24.8854 18.9727 24.9335C19.9604 25.1804 21.0917 25.1457 22.0869 24.9467C22.5124 24.8616 23.0614 24.7665 23.3769 24.451C23.5671 24.2608 23.7782 23.9796 23.9496 23.8082C23.9953 23.7625 24.0258 23.7 24.0459 23.6296C24.0628 23.5708 24.0692 23.5039 24.0938 23.4548C24.1078 23.4267 24.1155 23.3943 24.1161 23.3589C24.1164 23.3411 24.1134 23.3113 24.111 23.2904C24.1548 23.2318 24.1941 23.1547 24.2417 23.107C24.2541 23.0947 24.2725 23.0932 24.2885 23.088C24.322 23.077 24.3544 23.0659 24.3824 23.0508C24.4598 23.0091 24.5182 22.9469 24.5182 22.8169C24.5182 22.7363 24.4528 22.6709 24.3723 22.6709C24.2975 22.6709 24.2359 22.7272 24.2274 22.7997Z" fill="black"/>
<path fill-rule="evenodd" clip-rule="evenodd" d="M23.2413 21.7967C23.2323 21.7936 23.2225 21.79 23.2123 21.7865C23.1454 21.7638 23.0705 21.7328 23.03 21.7193C22.9388 21.6889 22.7894 21.7118 22.6917 21.7118C22.4429 21.7118 22.1685 21.6896 21.9268 21.738C21.5604 21.8113 21.1667 21.7575 20.7978 21.8189C20.2333 21.913 19.6506 21.9969 19.1161 22.175C18.8836 22.2526 18.5524 22.334 18.3068 22.4785C18.131 22.582 17.9972 22.7178 17.9434 22.8934C17.9067 23.0132 17.9054 23.1531 17.9603 23.318C18.1544 23.9 18.6111 24.48 19.1204 24.7347C19.1632 24.756 19.2236 24.7675 19.2893 24.7686C19.3517 24.7695 19.4205 24.7617 19.4661 24.7617C19.7168 24.7617 19.9876 24.7491 20.231 24.7005C20.4384 24.659 20.6645 24.6916 20.8689 24.6405C21.3398 24.5228 21.7918 24.4419 22.2596 24.325C22.5462 24.2533 22.8345 24.2225 23.0959 24.0918C23.3809 23.9493 23.5488 23.701 23.6421 23.4079C23.7276 23.139 23.7492 22.8319 23.7492 22.5472C23.7492 22.3317 23.7057 22.1687 23.6169 21.9911C23.5974 21.952 23.5266 21.8019 23.5101 21.7738C23.4774 21.7178 23.4335 21.7065 23.4242 21.7036C23.3598 21.6838 23.311 21.7036 23.2735 21.7443C23.2704 21.7478 23.2515 21.7651 23.2413 21.7967ZM23.3372 22.0837C23.3186 22.0923 23.2979 22.0972 23.276 22.0972C23.2039 22.0972 23.0151 22.022 22.9377 21.9961C22.9135 21.9881 22.8814 21.9915 22.849 21.9935C22.7931 21.997 22.7364 22.0036 22.6917 22.0036C22.4615 22.0036 22.2077 21.9795 21.9841 22.0242C21.6146 22.0981 21.2177 22.0449 20.8458 22.1068C20.2963 22.1984 19.7287 22.2785 19.2085 22.452C18.9923 22.524 18.6831 22.5958 18.4548 22.7301C18.3463 22.794 18.2557 22.8706 18.2224 22.979C18.2011 23.0486 18.2053 23.1298 18.2373 23.2257C18.4076 23.7367 18.8037 24.25 19.2509 24.4735C19.2674 24.4818 19.2934 24.4772 19.3193 24.4766C19.373 24.4753 19.4277 24.4699 19.4661 24.4699C19.698 24.4699 19.9486 24.4593 20.1738 24.4143C20.3768 24.3736 20.5981 24.4073 20.7981 24.3573C21.269 24.2396 21.721 24.1588 22.1888 24.0418C22.4544 23.9754 22.7231 23.9519 22.9653 23.8308C23.1765 23.7252 23.2949 23.5365 23.3639 23.3194C23.4407 23.0783 23.4573 22.8025 23.4573 22.5472C23.4573 22.3823 23.4238 22.2576 23.3558 22.1216L23.3372 22.0837ZM23.5231 21.8099C23.5225 21.8078 23.5218 21.8057 23.521 21.8035L23.5231 21.8099Z" fill="black"/>
<path fill-rule="evenodd" clip-rule="evenodd" d="M11.0157 23.5235C10.9945 23.5346 10.979 23.543 10.975 23.545C10.7612 23.6519 10.6766 23.9396 10.7543 24.1728C10.8432 24.4394 10.8298 24.7833 10.8815 25.0885C10.9435 25.4548 11.0895 25.7686 11.4972 25.9045C11.7252 25.9805 11.9916 25.9522 12.2232 25.9192C12.4687 25.8841 12.7127 25.8897 12.9552 25.8492C13.3771 25.7789 13.8167 25.8329 14.2389 25.7625C14.5938 25.7034 14.9342 25.5975 15.2844 25.5274C15.6047 25.4634 15.9121 25.3507 16.1483 25.1145C16.3421 24.9207 16.3798 24.6597 16.4611 24.4156C16.4737 24.3781 16.4768 24.3323 16.4752 24.285C16.4746 24.2672 16.4746 24.2353 16.4746 24.2268C16.494 24.1832 16.4996 24.1321 16.4965 24.0789L16.493 24.0156C16.5139 23.9654 16.5339 23.866 16.5409 23.7628C16.5481 23.6556 16.5415 23.5455 16.5232 23.4864C16.5231 23.4801 16.5204 23.3665 16.5142 23.3129C16.5061 23.2443 16.4798 23.1926 16.4519 23.1647C16.4275 23.1403 16.3866 23.052 16.3665 23.0118C16.3533 22.9855 16.3221 22.949 16.2743 22.9175C16.2269 22.8864 16.1543 22.853 16.1261 22.8342C15.8967 22.6813 15.5525 22.6709 15.2818 22.6709C14.3439 22.6709 13.4339 22.8207 12.5209 23.0034C12.1192 23.0837 11.7434 23.1729 11.3677 23.3232C11.2581 23.367 11.1103 23.4334 11.0157 23.5235ZM16.1167 23.1643C16.09 23.1496 15.9906 23.0947 15.9642 23.0771C15.7796 22.9541 15.4997 22.9628 15.2818 22.9628C14.3633 22.9628 13.4722 23.1108 12.5781 23.2896C12.1943 23.3664 11.8351 23.4506 11.4761 23.5942C11.4499 23.6047 11.4206 23.6163 11.3904 23.6294C11.3752 23.6918 11.3197 23.739 11.2525 23.7407C11.2477 23.7409 11.243 23.7408 11.2384 23.7404L11.1939 23.7624C11.1681 23.7924 11.1319 23.8096 11.0944 23.8124C11.0129 23.8626 10.9994 23.9851 11.0312 24.0805C11.1244 24.36 11.1152 24.7198 11.1693 25.0398C11.2131 25.2987 11.3013 25.5315 11.5895 25.6275C11.7756 25.6896 11.9929 25.6572 12.1819 25.6302C12.4251 25.5955 12.667 25.6013 12.9071 25.5613C13.3291 25.491 13.7687 25.545 14.1909 25.4746C14.5427 25.416 14.88 25.3107 15.2271 25.2412C15.4909 25.1885 15.7474 25.1026 15.9419 24.9082C16.0139 24.8362 16.0535 24.75 16.0844 24.6602C16.1219 24.5512 16.1467 24.4366 16.1832 24.3265L16.182 24.2486C16.1813 24.1989 16.1883 24.1522 16.2052 24.1138C16.2045 24.1023 16.2011 24.0491 16.2008 24.0216C16.2005 23.9755 16.2086 23.9329 16.2268 23.8965C16.2398 23.8706 16.2454 23.8075 16.2497 23.7432C16.2541 23.6772 16.2565 23.609 16.2449 23.5743C16.2356 23.5463 16.23 23.5018 16.2285 23.452C16.2276 23.42 16.2243 23.3641 16.223 23.3437C16.1892 23.2971 16.1444 23.2176 16.1167 23.1643Z" fill="black"/>
<path fill-rule="evenodd" clip-rule="evenodd" d="M12.3775 26.2538C12.4405 26.2344 12.4844 26.1737 12.4799 26.105C12.4762 26.0472 12.4482 26.0134 12.4188 25.9917C12.3892 25.9698 12.349 25.9543 12.296 25.9657C12.2751 25.9701 12.2328 25.9882 12.1871 26.029C12.108 26.0999 11.9653 26.267 11.941 26.2961C11.8634 26.3892 11.7315 26.5168 11.6543 26.6546C11.5848 26.7787 11.5568 26.9108 11.5998 27.0399C11.6265 27.12 11.6928 27.1748 11.7435 27.2381C11.793 27.3001 11.859 27.3616 11.9411 27.3821C12.0457 27.4083 12.149 27.3857 12.2432 27.3313C12.3519 27.2684 12.448 27.16 12.5123 27.0701C12.7147 26.7866 12.8729 26.4901 13.0804 26.2133C13.1287 26.1489 13.1156 26.0574 13.0512 26.009C12.9868 25.9607 12.8952 25.9738 12.8469 26.0382C12.638 26.3168 12.4785 26.6151 12.2747 26.9004C12.2378 26.9522 12.1871 27.0143 12.1276 27.0584C12.0917 27.0849 12.0536 27.1094 12.0119 27.099C11.992 27.094 11.9834 27.0708 11.9713 27.0558C11.9525 27.0322 11.9306 27.0104 11.9092 26.9882C11.8969 26.9756 11.8824 26.9646 11.8767 26.9476C11.8534 26.8778 11.8964 26.8104 11.9417 26.7455C12.012 26.6445 12.1065 26.5535 12.1652 26.483C12.1843 26.4601 12.3287 26.3058 12.3775 26.2538ZM12.223 26.2087C12.2034 26.1857 12.1908 26.1563 12.1887 26.1239C12.1911 26.1623 12.2045 26.1893 12.223 26.2087Z" fill="black"/>
<path fill-rule="evenodd" clip-rule="evenodd" d="M16.5492 24.8161C16.5785 24.8203 16.6969 24.8366 16.734 24.8366H17.217C17.5408 24.8366 17.9114 24.7531 18.2333 24.8067C18.3496 24.8261 18.4596 24.8551 18.5824 24.8551C18.663 24.8551 18.7283 24.7897 18.7283 24.7092C18.7283 24.6287 18.663 24.5633 18.5824 24.5633C18.4763 24.5633 18.3818 24.5356 18.2813 24.5188C17.9443 24.4626 17.5561 24.5447 17.217 24.5447H16.734C16.6882 24.5447 16.5626 24.5226 16.539 24.5234C16.4947 24.525 16.4683 24.5422 16.4558 24.5512C16.4004 24.5909 16.3867 24.6422 16.397 24.6973C16.4106 24.7704 16.4768 24.8206 16.5492 24.8161ZM16.6538 24.7622C16.6479 24.7696 16.6412 24.7764 16.6339 24.7825C16.6418 24.7761 16.6484 24.7692 16.6538 24.7622ZM16.6591 24.7553L16.6576 24.7573L16.6584 24.7563L16.6591 24.7553ZM16.6851 24.6512C16.6886 24.6774 16.6849 24.703 16.6753 24.726C16.6852 24.7026 16.6888 24.6778 16.6851 24.6512ZM16.685 24.651C16.6847 24.6486 16.6843 24.6461 16.6839 24.6437L16.685 24.651Z" fill="black"/>
<path fill-rule="evenodd" clip-rule="evenodd" d="M2.92923 22.598L2.92927 22.5981C2.92927 22.5981 2.92803 22.4734 2.92619 22.2858C2.90823 20.4072 2.81839 10.745 2.81839 10.6626C2.81839 10.436 2.75649 10.1327 2.81361 9.91454C2.95473 9.37545 2.86402 8.69537 2.86402 8.13303C2.86402 8.01553 2.88723 7.8562 2.89182 7.70809C2.8955 7.58866 2.88672 7.47552 2.85588 7.38715C2.83199 7.31868 2.84265 7.24313 2.85023 7.16744C2.86177 7.05246 2.87174 6.93712 2.84407 6.83129C2.77091 6.55198 2.7677 5.9321 2.84407 5.64043C2.879 5.50684 2.90381 5.19835 2.85588 5.06108C2.81305 4.93843 2.82565 4.69313 2.85928 4.56459C2.93194 4.28708 2.86402 3.89909 2.86402 3.61178C2.86402 3.13078 2.80791 2.54711 2.96245 2.1043C3.00041 1.99561 3.00625 1.85325 3.01925 1.71929C3.02426 1.66801 3.03046 1.61828 3.04347 1.57449C3.05119 1.54834 3.0601 1.52435 3.07771 1.50758C3.16143 1.42757 3.21437 1.33355 3.26547 1.23824C3.30228 1.16963 3.33721 1.09983 3.39736 1.04234C3.55586 0.891012 3.75746 0.771163 3.91499 0.620755C4.00571 0.534085 4.12872 0.533534 4.25565 0.530041C4.44011 0.524986 4.63372 0.525492 4.80568 0.443372C4.84446 0.424852 4.9088 0.419338 4.97846 0.415799C5.10727 0.409228 5.25263 0.418556 5.33571 0.429769C5.41554 0.440476 5.48906 0.384412 5.49982 0.30459C5.51057 0.224767 5.4545 0.151241 5.37468 0.140487C5.26251 0.125368 5.05231 0.113282 4.88885 0.129872C4.80402 0.138511 4.73017 0.155974 4.6799 0.179962C4.51244 0.259922 4.31783 0.230144 4.14338 0.243195C3.98107 0.255373 3.83287 0.295537 3.71339 0.409641C3.55591 0.560049 3.35426 0.679944 3.19581 0.831272C3.11222 0.911048 3.05937 1.00502 3.00827 1.10033C2.97146 1.16894 2.93644 1.23884 2.8761 1.29647C2.79853 1.37054 2.7569 1.48276 2.7381 1.61222C2.71899 1.74383 2.72565 1.897 2.68686 2.00811C2.52239 2.47937 2.57216 3.09989 2.57216 3.61178C2.57216 3.8768 2.64394 4.23469 2.5769 4.4907C2.53172 4.66326 2.52281 4.99261 2.5803 5.15727C2.61417 5.25432 2.58641 5.4721 2.56169 5.56649C2.47584 5.89437 2.47947 6.59122 2.56169 6.90523C2.58089 6.97862 2.5678 7.05862 2.5598 7.13835C2.5479 7.25738 2.54275 7.37566 2.5803 7.48333C2.60713 7.56017 2.60332 7.66444 2.59661 7.76986C2.58834 7.89982 2.57216 8.03147 2.57216 8.13303C2.57216 8.67198 2.66651 9.32394 2.53126 9.84065C2.46849 10.0803 2.52648 10.4136 2.52648 10.6626C2.52648 10.7451 2.61637 20.4095 2.63434 22.2886C2.63613 22.4769 2.63723 22.5871 2.63742 22.602C2.63746 22.6064 2.6376 22.6089 2.63765 22.6093C2.64073 22.6686 2.66986 22.6935 2.67243 22.6965L2.78337 22.7477L2.89959 22.6901C2.90014 22.6893 2.92932 22.6631 2.92932 22.6014L2.92923 22.598Z" fill="black"/>
<path fill-rule="evenodd" clip-rule="evenodd" d="M5.48151 0.100953C5.47195 0.0931869 5.46115 0.0865235 5.44934 0.0812388C5.37581 0.0483814 5.28942 0.0813766 5.25656 0.154949C5.22334 0.229212 5.23349 0.348601 5.39447 0.385364C5.51423 0.412707 5.85976 0.395888 5.92662 0.395888C6.26682 0.395888 6.63 0.382055 6.97952 0.382055C8.06675 0.382055 9.14663 0.354345 10.2351 0.354345C12.0523 0.354345 13.862 0.326635 15.6796 0.326635C16.2316 0.326635 16.7751 0.312756 17.3282 0.312756C17.5312 0.312756 17.8035 0.25945 17.9994 0.308437C18.1232 0.339364 18.2563 0.334079 18.3896 0.326405C18.4928 0.320477 18.5962 0.312159 18.6921 0.336147C19.0493 0.425436 19.4893 0.423598 19.8634 0.423598C19.944 0.423598 20.0094 0.358205 20.0094 0.277647C20.0094 0.197135 19.944 0.131743 19.8634 0.131743C19.512 0.131743 19.0984 0.136843 18.7628 0.0529769C18.6392 0.0220497 18.506 0.0273344 18.3728 0.0350087C18.2695 0.0409368 18.1661 0.0492546 18.0702 0.0252664C17.8536 -0.0289137 17.5526 0.0209008 17.3282 0.0209008C16.7751 0.0209008 16.2316 0.0347331 15.6796 0.0347331C13.862 0.0347331 12.0523 0.0624434 10.2351 0.0624434C9.14663 0.0624434 8.06675 0.0901539 6.97952 0.0901539C6.63 0.0901539 6.26682 0.104032 5.92662 0.104032C5.87616 0.104032 5.56726 0.101642 5.48151 0.100953ZM5.53458 0.232704C5.53316 0.244193 5.53036 0.255635 5.52604 0.266848C5.53059 0.255222 5.53339 0.243825 5.53458 0.232704Z" fill="black"/>
<path fill-rule="evenodd" clip-rule="evenodd" d="M19.8996 0.414156C19.9203 0.415903 20.0122 0.424588 20.0417 0.439293C20.0985 0.467693 20.1995 0.491497 20.295 0.52316C20.3232 0.532488 20.3508 0.54269 20.3752 0.555006C20.3898 0.562313 20.4055 0.565989 20.4113 0.57757C20.426 0.607118 20.4515 0.636161 20.4872 0.659322C20.5176 0.679037 20.5614 0.694569 20.5876 0.70762C20.6171 0.722371 20.681 0.778665 20.7346 0.830732C20.7639 0.859177 20.7914 0.884452 20.7999 0.901409C20.8337 0.968962 20.8968 1.03564 20.9593 1.09906C20.9933 1.13339 21.0305 1.16298 21.0417 1.19685C21.0881 1.33586 21.1554 1.51995 21.2255 1.66007C21.2809 1.771 21.2924 1.89535 21.3008 2.0226C21.311 2.17825 21.315 2.33799 21.3532 2.49065C21.391 2.64202 21.3673 2.82354 21.3673 2.98263V3.96334C21.3673 4.09114 21.3848 4.25203 21.3924 4.41094C21.399 4.54792 21.4 4.68349 21.3656 4.78689C21.3353 4.87765 21.3581 5.03067 21.3581 5.12911C21.3581 5.38126 21.3673 5.63093 21.3673 5.87853V6.3889L21.3674 6.39032C21.368 6.59431 21.4407 6.64413 21.5133 6.61803C21.5859 6.64413 21.6585 6.59431 21.6592 6.39032L21.6592 6.3889V5.87853C21.6592 5.63093 21.65 5.38126 21.65 5.12911C21.65 5.08403 21.6434 5.02645 21.6399 4.96969C21.6379 4.93647 21.6344 4.90357 21.6425 4.87921C21.7254 4.63037 21.6592 4.22827 21.6592 3.96334V2.98263C21.6592 2.80056 21.6797 2.59308 21.6363 2.41988C21.6024 2.28413 21.6011 2.14185 21.592 2.00344C21.5811 1.83662 21.5592 1.67496 21.4865 1.52956C21.4223 1.40107 21.3611 1.232 21.3187 1.10457C21.2993 1.04635 21.255 0.985781 21.1993 0.927098C21.1505 0.875721 21.0885 0.826044 21.0609 0.770899C21.0439 0.736755 20.9969 0.678669 20.9381 0.621502C20.8596 0.545172 20.7613 0.468153 20.7181 0.446554C20.7045 0.439753 20.6719 0.425553 20.6555 0.418522C20.6127 0.355519 20.5378 0.303682 20.4463 0.267516C20.3498 0.229374 20.2324 0.208327 20.1722 0.178227C20.1089 0.146565 19.9262 0.121841 19.8951 0.121887C19.7986 0.121979 19.7664 0.192335 19.7604 0.204927C19.7449 0.237003 19.7414 0.270687 19.7508 0.306026C19.7566 0.327762 19.7683 0.354967 19.7975 0.379737C19.827 0.404828 19.8637 0.416086 19.8996 0.414156ZM20.0373 0.280292C20.0352 0.314436 20.0228 0.351245 19.9851 0.380794C19.9915 0.375509 19.9976 0.369535 20.0032 0.362917C20.0238 0.338699 20.035 0.309748 20.0373 0.280292ZM19.9925 0.162695C20.02 0.188797 20.0352 0.2234 20.0375 0.258923C20.0361 0.230339 20.0272 0.194955 19.9925 0.162695Z" fill="black"/>
<path fill-rule="evenodd" clip-rule="evenodd" d="M21.3743 21.1046C21.3634 21.1207 21.3523 21.1435 21.3474 21.1747C21.3465 21.1804 21.3459 21.1885 21.3455 21.1984C21.2766 21.2357 21.2493 21.3213 21.2846 21.3919C21.2842 21.3911 21.2815 21.3854 21.2815 21.3854C21.2815 21.3854 21.3542 21.5545 21.3837 21.5847C21.4227 21.6244 21.4649 21.6327 21.4952 21.6327C21.5268 21.6327 21.6303 21.6174 21.6431 21.4938C21.6466 21.4594 21.6388 21.2841 21.6364 21.2336C21.6512 21.2024 21.6625 21.1633 21.6668 21.1177C21.6756 21.026 21.6611 20.893 21.6611 20.8263V19.8255C21.6611 18.6846 21.6411 17.556 21.6411 16.423C21.6411 14.6817 21.7012 12.9516 21.7012 11.2193C21.7012 10.5861 21.8692 9.61813 21.6737 9.03152C21.5975 8.80318 21.6011 7.99273 21.6011 7.73672C21.6011 7.67693 21.5852 7.56719 21.5819 7.46954C21.5808 7.4342 21.5759 7.4012 21.5857 7.38167C21.6217 7.30971 21.6508 7.1071 21.6548 6.90343C21.6588 6.69778 21.6363 6.49296 21.6004 6.41981C21.565 6.34747 21.4775 6.31756 21.4052 6.35303C21.3328 6.38851 21.3029 6.47601 21.3384 6.54834C21.3642 6.60096 21.3658 6.74971 21.3629 6.89768C21.36 7.04754 21.3511 7.19818 21.3246 7.25116C21.3038 7.29271 21.2912 7.35401 21.2897 7.42469C21.2876 7.53102 21.3092 7.6676 21.3092 7.73672C21.3092 8.01106 21.3152 8.87909 21.3968 9.12385C21.584 9.68564 21.4093 10.6129 21.4093 11.2193C21.4093 12.9516 21.3492 14.6817 21.3492 16.423C21.3492 17.556 21.3693 18.6846 21.3693 19.8255V20.8263C21.3693 20.8754 21.378 20.9621 21.3782 21.0393C21.3782 21.0618 21.3754 21.0935 21.3743 21.1046Z" fill="black"/>
<path fill-rule="evenodd" clip-rule="evenodd" d="M21.4762 20.3377C21.5232 20.4088 21.6128 20.4669 21.7204 20.5095C21.827 20.5516 21.9541 20.5789 22.0247 20.6213C22.3852 20.8376 22.8009 20.9758 23.1447 21.205C24.1003 21.842 25.1557 22.2524 26.1465 22.8716C26.4508 23.0618 26.7725 23.212 27.0815 23.3885C27.5115 23.6342 27.9361 23.9252 28.4171 24.0856C28.4935 24.111 28.5763 24.0697 28.6017 23.9932C28.6272 23.9168 28.5858 23.8341 28.5094 23.8086C28.0467 23.6544 27.6399 23.3714 27.2263 23.1351C26.9207 22.9605 26.6022 22.8122 26.3012 22.6241C25.3129 22.0064 24.2598 21.5976 23.3066 20.9621C22.959 20.7304 22.5393 20.5897 22.1749 20.371C22.1051 20.3292 21.9903 20.2957 21.8807 20.2576C21.8389 20.243 21.7981 20.2276 21.7635 20.2087C21.7456 20.199 21.7288 20.1904 21.7197 20.1767C21.6753 20.1095 21.5846 20.091 21.5175 20.1355C21.4503 20.1799 21.4318 20.2705 21.4762 20.3377Z" fill="black"/>
<path fill-rule="evenodd" clip-rule="evenodd" d="M11.947 1.26777C11.6645 1.36032 11.5252 1.71081 11.5984 2.0034C11.6129 2.06167 11.625 2.13198 11.6514 2.19283C11.6782 2.25418 11.7175 2.3073 11.7746 2.34526C11.8423 2.39048 11.9382 2.4169 12.0418 2.42352C12.1749 2.43202 12.3205 2.40973 12.4134 2.3788C12.5052 2.3482 12.6111 2.24085 12.662 2.16447C12.7237 2.07192 12.7889 1.93599 12.8044 1.80511C12.8175 1.69505 12.7973 1.58844 12.7316 1.50076C12.6267 1.36101 12.4047 1.23307 12.1993 1.22007C12.1091 1.21437 12.0226 1.22884 11.947 1.26777ZM12.1841 1.51119C12.1602 1.52746 12.1312 1.53674 12.1 1.53628C12.0874 1.53609 12.0752 1.53701 12.0636 1.53904C12.0528 1.54731 12.0431 1.5576 12.0347 1.57024C12.0094 1.60815 11.9694 1.63044 11.9273 1.63453C11.9234 1.64018 11.9199 1.64611 11.9166 1.65213C11.8712 1.73407 11.8583 1.83967 11.8815 1.93259C11.8898 1.96549 11.8964 2.00313 11.9066 2.03985C11.9131 2.06305 11.9162 2.08897 11.9365 2.10243C11.9675 2.12311 12.013 2.12918 12.0604 2.13221C12.1537 2.13819 12.256 2.12357 12.321 2.10188C12.3601 2.08888 12.3975 2.03507 12.4191 2.00258C12.4533 1.95134 12.4905 1.88071 12.5078 1.80819C12.5189 1.76155 12.5259 1.71297 12.4981 1.67589C12.4458 1.60617 12.3431 1.54423 12.2396 1.52024C12.2212 1.51597 12.2025 1.5127 12.1841 1.51119Z" fill="black"/>
<path fill-rule="evenodd" clip-rule="evenodd" d="M4.83406 3.19554C4.85446 3.18695 4.88419 3.1881 4.91503 3.1892C4.98153 3.19155 5.05289 3.20483 5.09264 3.21806C5.34126 3.30092 5.77906 3.23759 6.03994 3.23759C7.09372 3.23759 8.15402 3.21356 9.21198 3.21356C10.1241 3.21356 11.0717 3.23134 11.978 3.14072C12.4502 3.09352 12.9339 3.15979 13.4065 3.11682C13.9566 3.06683 14.5347 3.11742 15.0875 3.11742C16.5712 3.11742 18.0511 3.17748 19.5331 3.17748C19.6137 3.17748 19.6791 3.11209 19.6791 3.03158C19.6791 2.95102 19.6137 2.88563 19.5331 2.88563C18.0511 2.88563 16.5712 2.82552 15.0875 2.82552C14.526 2.82552 13.9388 2.77534 13.3801 2.82616C12.9066 2.86918 12.422 2.803 11.949 2.85029C11.0522 2.93999 10.1145 2.92166 9.21198 2.92166C8.15402 2.92166 7.09372 2.94569 6.03994 2.94569C5.80452 2.94569 5.40927 3.01595 5.18497 2.94119C5.08024 2.90626 4.83677 2.87782 4.72106 2.92639C4.64679 2.95759 4.61182 3.0432 4.64298 3.11747C4.67418 3.19173 4.7598 3.2267 4.83406 3.19554Z" fill="black"/>
<path fill-rule="evenodd" clip-rule="evenodd" d="M4.84772 3.16699C4.88034 3.1294 4.89289 3.07605 4.87612 3.02541C4.8508 2.94894 4.76817 2.9074 4.6917 2.93272C4.64216 2.94917 4.60076 2.98501 4.5764 3.04379C4.56395 3.0738 4.55595 3.11359 4.55379 3.15725C4.55081 3.21791 4.55949 3.28987 4.55949 3.32269C4.55949 3.58973 4.57847 3.84114 4.57847 4.10184V11.8744C4.57847 12.4735 4.715 13.3416 4.52893 13.8997C4.49888 13.99 4.49042 14.1062 4.49405 14.2287C4.4986 14.3827 4.52144 14.5481 4.52144 14.6681C4.52144 15.1196 4.57838 15.7336 4.46882 16.172C4.43569 16.3044 4.44828 16.4503 4.46179 16.5949C4.47176 16.7019 4.48436 16.8081 4.45292 16.9024C4.34484 17.2266 4.38629 18.0791 4.46882 18.4092C4.49947 18.532 4.48555 18.6654 4.47448 18.7988C4.46064 18.9647 4.44961 19.1306 4.4878 19.2834C4.66803 20.0044 4.55949 20.8831 4.55949 21.6425C4.55949 21.723 4.62488 21.7884 4.7054 21.7884C4.78595 21.7884 4.85135 21.723 4.85135 21.6425C4.85135 20.8603 4.95663 19.9553 4.77097 19.2126C4.74027 19.0898 4.7542 18.9564 4.76532 18.823C4.77915 18.6571 4.79018 18.4912 4.75199 18.3384C4.67837 18.044 4.63343 17.2838 4.72984 16.9947C4.7735 16.8637 4.76629 16.7165 4.75241 16.5677C4.74202 16.4566 4.72653 16.3445 4.75199 16.2428C4.86674 15.7837 4.81334 15.141 4.81334 14.6681C4.81334 14.5647 4.79735 14.4286 4.78922 14.294C4.78251 14.1829 4.77897 14.0727 4.80585 13.992C5.00042 13.4084 4.87037 12.5009 4.87037 11.8744V4.10184C4.87037 3.84114 4.85135 3.58973 4.85135 3.32269C4.85135 3.29585 4.84877 3.20316 4.84772 3.16699Z" fill="black"/>
<path fill-rule="evenodd" clip-rule="evenodd" d="M19.3989 3.22428L19.3984 3.3757C19.3984 3.49789 19.4364 3.60515 19.4364 3.73676C19.4364 4.08757 19.5272 4.51458 19.4407 4.86062C19.3262 5.31883 19.253 6.2698 19.4059 6.72852C19.4822 6.95755 19.4694 7.25157 19.4415 7.54706C19.411 7.8691 19.3604 8.19299 19.3604 8.44974C19.3604 11.8404 19.4174 15.205 19.4174 18.5978V20.9733C19.4174 21.0298 19.4119 21.2859 19.3929 21.4676C19.3884 21.5104 19.3796 21.5597 19.3752 21.5831C19.3541 21.6084 19.3413 21.6409 19.3413 21.6765C19.3413 21.757 19.4067 21.8224 19.4873 21.8224C19.5209 21.8224 19.5548 21.8126 19.5864 21.787C19.6091 21.7686 19.6442 21.7217 19.6614 21.6438C19.6985 21.4766 19.7093 21.0509 19.7093 20.9733V18.5978C19.7093 15.205 19.6523 11.8404 19.6523 8.44974C19.6523 8.14873 19.7249 7.75348 19.7474 7.38006C19.7638 7.10893 19.7536 6.84864 19.6828 6.6362C19.5432 6.21751 19.6193 5.34966 19.7239 4.93139C19.8159 4.56357 19.7283 4.10968 19.7283 3.73676C19.7283 3.60515 19.6903 3.49789 19.6903 3.3757C19.6903 3.34132 19.6922 3.21692 19.6901 3.18839C19.6869 3.14602 19.6712 3.12226 19.6665 3.11495C19.6372 3.06923 19.5985 3.0548 19.5674 3.0496C19.5265 3.0428 19.4781 3.04795 19.4349 3.09602C19.4284 3.10319 19.4067 3.12446 19.3985 3.1729C19.3955 3.19041 19.3958 3.20778 19.3989 3.22428ZM19.6214 3.32C19.6469 3.30608 19.6766 3.27836 19.6862 3.22184C19.6791 3.2638 19.6546 3.29858 19.6214 3.32Z" fill="black"/>
<path fill-rule="evenodd" clip-rule="evenodd" d="M4.80234 21.5494C4.78248 21.535 4.75873 21.5254 4.73262 21.5225C4.65257 21.5137 4.58042 21.5716 4.5716 21.6516C4.56507 21.711 4.59136 21.8 4.71066 21.8314C4.80068 21.855 5.03716 21.8461 5.07383 21.8461C5.4598 21.8461 5.90322 21.767 6.28514 21.8433C6.79574 21.9454 7.51221 21.8919 8.02175 21.8191C8.56525 21.7415 9.13601 21.8493 9.68102 21.7811C10.0659 21.733 10.4891 21.7823 10.8773 21.7823C11.6158 21.7823 12.3605 21.7694 13.1015 21.7694C15.2192 21.7694 17.3825 21.7439 19.4802 21.7439C19.5608 21.7439 19.6262 21.6785 19.6262 21.5979C19.6262 21.5174 19.5608 21.452 19.4802 21.452C17.3825 21.452 15.2192 21.4776 13.1015 21.4776C12.3605 21.4776 11.6158 21.4904 10.8773 21.4904C10.4774 21.4904 10.0414 21.4419 9.64481 21.4915C9.09809 21.5598 8.52564 21.4523 7.98049 21.5301C7.4998 21.5989 6.824 21.6534 6.3424 21.5571C5.94241 21.4771 5.47805 21.5543 5.07383 21.5543C5.04929 21.5543 4.86116 21.5506 4.80234 21.5494ZM4.86235 21.6764L4.86175 21.6835C4.86203 21.6811 4.86221 21.6787 4.86235 21.6764ZM4.86263 21.6692L4.8624 21.6749L4.86263 21.6708V21.6692ZM4.86254 21.6624L4.86263 21.6676V21.6646L4.86254 21.6624ZM4.86221 21.6566L4.8624 21.66L4.86235 21.6584L4.86221 21.6566Z" fill="black"/>
<path fill-rule="evenodd" clip-rule="evenodd" d="M29.536 29.9096C29.5866 29.9041 29.7197 29.9452 29.9063 30.0035C30.7654 30.2719 32.5761 30.996 32.935 31.1273C33.0107 31.155 33.0946 31.116 33.1223 31.0404C33.1499 30.9648 33.111 30.8808 33.0354 30.8532C32.6748 30.7213 30.8561 29.9945 29.9933 29.7249C29.7494 29.6486 29.5713 29.6122 29.5051 29.6193C29.425 29.6278 29.3669 29.6998 29.3755 29.7799C29.384 29.86 29.4559 29.9181 29.536 29.9096Z" fill="black"/>
<path fill-rule="evenodd" clip-rule="evenodd" d="M0.297864 0.633933C0.297956 0.589357 0.277691 0.545287 0.239227 0.516566C0.174661 0.468405 0.0831662 0.481686 0.0349602 0.546252C0.00789313 0.582556 -0.00547956 0.626718 0.00210289 0.679841C0.00803099 0.721429 0.0355576 0.782135 0.0927247 0.84762C0.282654 1.06521 0.876336 1.46598 0.952575 1.52632C1.01572 1.57627 1.10758 1.56561 1.15758 1.50242C1.20753 1.43928 1.19687 1.34742 1.13368 1.29742C1.07546 1.25133 0.704835 1.0018 0.459991 0.79468C0.394139 0.738938 0.324564 0.663619 0.297864 0.633933Z" fill="black"/>
<path fill-rule="evenodd" clip-rule="evenodd" d="M7.17655 4.61254C7.13469 4.63892 7.09163 4.66355 7.04595 4.6794C6.85009 4.74741 6.68259 4.89755 6.54748 5.08587C6.36224 5.34404 6.23693 5.6733 6.16882 5.91801C6.12719 6.06754 6.08013 6.27714 6.09842 6.43485C6.14231 6.81315 6.17365 7.14466 6.32723 7.49718C6.40356 7.6724 6.55098 7.88494 6.69242 8.01669C6.87376 8.18557 7.03212 8.36116 7.22572 8.51456C7.32273 8.59139 7.44189 8.63523 7.56611 8.66515C7.66767 8.6896 7.77249 8.70458 7.86467 8.73022C8.41975 8.88472 9.08076 8.74764 9.57826 8.48184C10.1486 8.17712 10.4398 7.58817 10.5128 7.02785C10.5388 6.8279 10.6024 6.61021 10.5626 6.4054C10.511 6.14024 10.4532 5.89287 10.3594 5.6227C10.2781 5.38843 10.1796 5.15811 10.0211 4.952C9.99561 4.91891 9.93169 4.81515 9.88422 4.77122C9.85784 4.74682 9.83073 4.73202 9.80661 4.72384C9.78979 4.70794 9.7283 4.65027 9.70339 4.63345C9.61433 4.57338 9.52445 4.52849 9.43038 4.4829C9.12101 4.333 8.71322 4.32247 8.35298 4.27556C7.96683 4.22524 7.49897 4.38015 7.17655 4.61254ZM9.69135 4.99299C9.67104 4.98463 9.64935 4.97227 9.62789 4.9554C9.59774 4.93169 9.56401 4.89148 9.54021 4.87549C9.46296 4.82338 9.38465 4.7851 9.30304 4.74558C9.01991 4.60836 8.64497 4.60794 8.3153 4.56498C8.11678 4.5391 7.89275 4.58134 7.68779 4.66341C7.66528 4.71934 7.60921 4.75762 7.54557 4.75463C7.49561 4.75224 7.45131 4.78358 7.40347 4.81304C7.3895 4.82163 7.37544 4.83045 7.36133 4.83928C7.34562 4.85026 7.33032 4.86152 7.31543 4.87296C7.29943 4.88532 7.28165 4.89378 7.26327 4.89856C7.22389 4.92075 7.18349 4.94065 7.14167 4.95517C6.99949 5.00453 6.88272 5.11932 6.78461 5.25604C6.62005 5.48544 6.51054 5.77886 6.45002 5.99631C6.4173 6.11373 6.37401 6.27737 6.38839 6.40126C6.42879 6.74969 6.45337 7.05593 6.59482 7.38059C6.65686 7.52305 6.77638 7.69602 6.89136 7.8031C7.06691 7.96655 7.21952 8.13727 7.40697 8.2858C7.4713 8.33672 7.55209 8.36153 7.63444 8.38138C7.7394 8.40666 7.84767 8.42251 7.94293 8.44903C8.42844 8.58418 9.00558 8.45689 9.44072 8.2244C9.92301 7.96674 10.1616 7.46391 10.2234 6.99012C10.2455 6.8199 10.31 6.63549 10.2761 6.46114C10.2271 6.20954 10.1726 5.97476 10.0837 5.71843C10.0125 5.51329 9.92857 5.31044 9.78974 5.13003C9.77278 5.10802 9.71001 5.01937 9.69135 4.99299Z" fill="black"/>
<path fill-rule="evenodd" clip-rule="evenodd" d="M30.865 25.2787C30.674 25.4226 30.4134 25.5488 30.1288 25.6654C29.5647 25.8964 28.9071 26.084 28.4615 26.2623C27.1008 26.8065 25.8398 27.6453 24.5226 28.3039C24.2019 28.4643 23.4282 28.9795 22.9495 29.231C22.8584 29.2788 22.7791 29.3167 22.7171 29.3389C22.7072 29.3424 22.6959 29.3457 22.6861 29.3484C22.5177 29.2054 22.1715 29.0234 21.7384 28.8307C20.6902 28.3645 19.1196 27.8101 18.5069 27.5038C17.5808 27.0407 16.7638 26.5049 15.852 26.049C15.7366 25.9913 15.4357 25.9134 15.1991 25.8127C15.1318 25.7841 15.0702 25.7538 15.023 25.7205C15.0004 25.7047 14.9786 25.6934 14.9733 25.6752C14.9507 25.5979 14.8695 25.5536 14.7922 25.5762C14.7149 25.5988 14.6705 25.68 14.6932 25.7573C14.7207 25.8513 14.8179 25.9484 14.9642 26.0248C15.2046 26.1503 15.5881 26.2434 15.7214 26.3101C16.6333 26.766 17.4502 27.3018 18.3763 27.7648C18.9914 28.0724 20.5677 28.6295 21.6197 29.0974C22.0477 29.2878 22.3867 29.4582 22.5208 29.5923C22.5505 29.622 22.5947 29.6457 22.658 29.6465C22.7083 29.6471 22.7894 29.6274 22.8905 29.5838C23.3249 29.3966 24.2857 28.7487 24.6532 28.5649C25.9632 27.91 27.2166 27.0746 28.5699 26.5333C29.0162 26.3548 29.6746 26.1668 30.2395 25.9355C30.6362 25.773 30.9874 25.5872 31.2011 25.3736C31.269 25.3056 31.2919 25.1766 31.1289 25.0807C30.9603 24.9816 30.4215 24.8417 30.363 24.8125C29.8091 24.5355 29.1125 24.206 28.6916 23.7851C28.6369 23.7304 28.5428 23.6918 28.4457 23.6627C28.4079 23.6514 28.3515 23.6307 28.3259 23.6212C28.3058 23.5647 28.2518 23.5242 28.1884 23.5242C28.1078 23.5242 28.0424 23.5896 28.0424 23.6701C28.0424 23.759 28.0918 23.8331 28.1909 23.8822C28.2438 23.9083 28.317 23.9281 28.3872 23.95C28.4251 23.9619 28.4637 23.97 28.4852 23.9915C28.9261 24.4325 29.6522 24.7835 30.2325 25.0736C30.2795 25.0971 30.6456 25.1919 30.865 25.2787Z" fill="black"/>
<path fill-rule="evenodd" clip-rule="evenodd" d="M30.7048 25.6804C30.6882 25.691 30.6705 25.7013 30.6525 25.7112C30.5327 25.7775 30.4048 25.8368 30.3735 25.8681C30.0214 26.2202 29.0064 26.5978 28.4839 26.8591C27.5611 27.3205 26.7592 28.0095 25.9592 28.6992C25.1778 29.373 24.3984 30.0474 23.5014 30.496C23.4689 30.5122 23.426 30.4945 23.3741 30.4759C23.2852 30.4439 23.1837 30.3872 23.0765 30.3189C22.7196 30.0917 22.308 29.7431 22.0681 29.6231C20.4086 28.7934 18.3682 28.2098 16.7376 27.1228C16.5465 26.9954 16.3538 26.8255 16.1522 26.6737C15.9323 26.508 15.7016 26.364 15.4555 26.3025C15.3997 26.2885 15.0907 26.163 14.8763 26.054C14.8169 26.0238 14.7501 25.9815 14.7228 25.9639C14.7071 25.9298 14.6783 25.9018 14.6403 25.888C14.5646 25.8605 14.4808 25.8996 14.4533 25.9753C14.4418 26.007 14.4393 26.0424 14.4519 26.0812C14.4625 26.1135 14.5001 26.1684 14.5757 26.2188C14.7706 26.3486 15.3057 26.5659 15.3847 26.5857C15.5946 26.6381 15.7889 26.7654 15.9766 26.9068C16.1827 27.0622 16.3803 27.2354 16.5757 27.3656C18.2163 28.4594 20.2679 29.0494 21.9375 29.8842C22.2134 30.0221 22.718 30.4685 23.1005 30.6715C23.2167 30.7331 23.3241 30.7737 23.4142 30.7863C23.4983 30.7982 23.5715 30.7872 23.6319 30.757C24.5501 30.2979 25.3499 29.61 26.1498 28.9203C26.9313 28.2465 27.713 27.5709 28.6144 27.1202C29.1568 26.8489 30.2017 26.4461 30.5741 26.0801C30.587 26.0741 30.8614 25.9447 30.9608 25.8515C31.038 25.7791 31.0682 25.6961 31.0563 25.6192C31.046 25.5528 31.0017 25.4706 30.8693 25.4043C30.8351 25.3872 30.821 25.3711 30.8083 25.3657C30.7822 25.3546 30.7564 25.3506 30.7285 25.3533C30.7025 25.3558 30.6582 25.3651 30.5917 25.4317C30.5347 25.4886 30.5347 25.5811 30.5917 25.638C30.6227 25.6691 30.6642 25.6832 30.7048 25.6804Z" fill="black"/>
<path fill-rule="evenodd" clip-rule="evenodd" d="M23.0188 27.7819C23.0381 27.7572 23.0496 27.7261 23.0496 27.6923C23.0496 27.6118 22.9842 27.5464 22.9036 27.5464C22.7213 27.5464 22.6752 27.6657 22.6713 27.7246C22.6668 27.7915 22.699 27.856 22.769 27.8894C22.8053 27.9067 22.8584 27.9175 22.9238 27.8943C22.9752 27.8761 23.01 27.832 23.0188 27.7819Z" fill="black"/>
<path fill-rule="evenodd" clip-rule="evenodd" d="M22.4516 28.7044C22.5155 28.7043 22.605 28.6747 22.7009 28.621C22.8658 28.5288 23.0657 28.366 23.1627 28.3013C23.2298 28.2566 23.2479 28.1659 23.2032 28.0989C23.1585 28.0319 23.0679 28.0137 23.0008 28.0585C22.9198 28.1124 22.7658 28.2369 22.6223 28.3279C22.5806 28.3544 22.5399 28.378 22.5029 28.3946C22.4827 28.4038 22.4655 28.4125 22.4509 28.4126C22.3704 28.4128 22.3051 28.4783 22.3053 28.5588C22.3055 28.6394 22.371 28.7046 22.4516 28.7044Z" fill="black"/>
<path fill-rule="evenodd" clip-rule="evenodd" d="M4.29033 27.4843C4.29263 27.4832 4.2987 27.4805 4.30256 27.4793C4.31202 27.4766 4.32223 27.4749 4.33298 27.4738C4.3674 27.4701 4.40559 27.472 4.44433 27.4759C4.57295 27.4888 4.70599 27.521 4.77373 27.521C4.85428 27.521 4.91968 27.4556 4.91968 27.375C4.91968 27.2945 4.85428 27.2291 4.77373 27.2291C4.67998 27.2291 4.45986 27.1666 4.30187 27.1836C4.18625 27.1959 4.09558 27.2444 4.04402 27.3278C4.00165 27.3963 4.02293 27.4863 4.09144 27.5287C4.1589 27.5704 4.24727 27.5504 4.29033 27.4843Z" fill="black"/>
<path fill-rule="evenodd" clip-rule="evenodd" d="M24.9779 16.9212C24.9739 16.9088 24.9681 16.8967 24.9605 16.8853C24.9157 16.8183 24.825 16.8003 24.758 16.845C24.7017 16.8827 24.6838 16.931 24.6821 16.9773C24.6804 17.0213 24.7043 17.1001 24.8025 17.1581C24.996 17.2722 25.6668 17.4443 25.8492 17.4443C25.9298 17.4443 25.9952 17.3789 25.9952 17.2984C25.9952 17.2178 25.9298 17.1524 25.8492 17.1524C25.7002 17.1524 25.1718 17.0186 24.9779 16.9212ZM24.9287 17.0815L24.9272 17.0827L24.9277 17.0824L24.9287 17.0815Z" fill="black"/>
</svg>
