<svg width="208" height="208" viewBox="0 0 208 208" fill="none" xmlns="http://www.w3.org/2000/svg">
<g id="gtillustration-65" clip-path="url(#clip0_2759_12697)">
<g id="Clip path group">
<mask id="mask0_2759_12697" style="mask-type:luminance" maskUnits="userSpaceOnUse" x="0" y="0" width="208" height="208">
<g id="clip0_447_5008">
<path id="Vector" d="M208 0H0V208H208V0Z" fill="white"/>
</g>
</mask>
<g mask="url(#mask0_2759_12697)">
<g id="Group">
<g id="Mask group">
<mask id="mask1_2759_12697" style="mask-type:luminance" maskUnits="userSpaceOnUse" x="0" y="0" width="208" height="208">
<g id="Group_2">
<path id="Vector_2" d="M0 0H208V208H0V0Z" fill="white"/>
</g>
</mask>
<g mask="url(#mask1_2759_12697)">
<g id="Group_3">
<path id="Vector_3" d="M174.382 50.4687C203.131 83.8355 220.334 133.135 187.544 161.422C154.87 189.709 39.298 182.782 10.5494 149.415C-18.1993 116.163 41.1452 94.4575 73.8194 66.1708C106.609 37.884 116.885 -16.0342 174.382 50.4687Z" fill="#E0E6F9"/>
<path id="Vector_4" d="M116.076 191.672C164.683 191.672 204.169 189.247 204.169 186.361C204.169 183.474 164.683 181.05 116.076 181.05C67.4685 181.05 27.9824 183.474 27.9824 186.361C27.9824 189.247 67.4685 191.672 116.076 191.672Z" fill="#E0E6F9"/>
<path id="Vector_5" d="M62.0418 58.8969C62.2727 58.8969 62.2727 58.5505 62.0418 58.5505C61.8109 58.5505 61.8109 58.8969 62.0418 58.8969Z" fill="#B8BFD3"/>
<path id="Vector_6" d="M44.2617 38.6921C49.799 50.0063 55.8475 61.063 62.3884 71.8281C62.9657 72.1745 63.6584 72.059 64.3511 72.059C68.0457 71.8281 71.8558 72.4054 75.3195 73.5599C70.1779 58.2665 59.1724 45.6414 44.7235 38.4612" fill="#BEC3CE"/>
<path id="Vector_7" d="M43.5692 39.0386C48.7412 49.7028 54.3651 60.1418 60.4258 70.3272C60.8876 71.0199 61.234 71.8281 61.9268 72.2899C62.6195 72.7518 63.4277 72.7518 64.2359 72.7518C66.0096 72.676 67.7865 72.7536 69.5469 72.9827H69.7778C71.6153 73.2718 73.4291 73.6967 75.2042 74.2527C75.6661 74.3681 76.2434 73.9063 76.0124 73.4445C72.059 61.3074 64.333 50.7499 53.9603 43.3104C51.1626 41.243 48.1877 39.4271 45.0701 37.884C44.7237 37.7685 44.2619 37.7685 44.031 38.1149C43.9155 38.4613 44.031 38.9231 44.3774 39.0386C47.8419 40.7506 51.1291 42.8002 54.1912 45.1578L54.4221 45.3887C54.3066 45.2732 54.5375 45.5041 54.4221 45.3887L54.5375 45.5041C58.5479 48.6244 62.1546 52.2313 65.275 56.2416H65.3904C68.4409 60.375 71.0346 64.8268 73.126 69.519C73.126 69.6344 73.126 69.6344 73.126 69.519V69.6344C73.7174 70.9987 74.2565 72.3851 74.7424 73.7909L75.5506 72.8672C71.9751 71.7099 68.2213 71.2019 64.4668 71.3663H63.3122H63.1968L62.9659 71.2508H62.8504L62.7349 71.1354H62.6195L62.504 70.9045C62.504 70.9045 62.2731 70.6735 62.3886 70.9045L62.1577 70.4426L59.6176 66.0554C54.3439 57.0085 49.4142 47.7653 44.8392 38.3458C44.6083 37.9994 44.1465 37.884 43.9155 38.1149C43.5692 38.3458 43.4537 38.6922 43.5692 39.0386Z" fill="#B8BFD3"/>
<path id="Vector_8" d="M14.8203 76.4463C28.7905 80.2563 41.9526 86.9528 53.2673 95.9584C52.8055 92.6102 52.8055 89.2619 53.1519 85.9137C53.3828 84.2973 53.6137 82.6809 53.0364 81.18C52.2282 78.8708 49.9191 77.7163 47.7254 76.7926C37.3343 72.6362 25.2114 70.7889 15.1667 75.869" fill="#BEC3CE"/>
<path id="Vector_9" d="M14.7047 77.0237C19.1072 78.2919 23.426 79.8344 27.6358 81.6419C27.5204 81.5265 27.7513 81.6419 27.6358 81.6419H27.7513L27.9822 81.7574C36.4722 85.4548 44.4945 90.1442 51.8817 95.7276H51.9972V95.8431H52.1126L52.2281 95.9585L52.3435 96.074L52.8054 96.4204C53.0363 96.6513 53.3826 96.7667 53.6136 96.5358C53.9599 96.4204 53.9599 96.074 53.9599 95.7276V95.6122C53.6608 93.6254 53.5448 91.6165 53.6136 89.6084L53.8445 86.4911L54.0754 83.6047C54.1908 82.5656 53.9599 81.5265 53.6136 80.6028C53.2672 79.9101 52.8054 79.2174 52.2281 78.6401C51.0735 77.4855 49.4571 76.7928 47.9562 76.2155C44.6079 74.83 41.0288 73.6754 37.4496 72.9827C33.8705 72.29 30.2913 71.9436 26.5967 72.1745C22.5118 72.3897 18.5097 73.4104 14.8202 75.1764C14.4738 75.4073 14.3584 75.8691 14.5893 76.2155C14.8202 76.5619 15.1665 76.5619 15.5129 76.4464C16.0062 76.2007 16.5068 75.9698 17.0139 75.7537L17.2448 75.6382C19.5385 74.7081 21.9457 74.0865 24.4031 73.7909C24.2876 73.7909 24.2876 73.7909 24.4031 73.7909C27.587 73.4279 30.802 73.4279 33.986 73.7909H34.3323L34.5632 73.9064C39.1072 74.4901 43.5415 75.7343 47.7253 77.601C48.6754 78.0074 49.6007 78.4701 50.4962 78.9864L50.7271 79.2174C51.055 79.463 51.3638 79.7328 51.6508 80.0256L51.7662 80.2565C51.7662 80.141 51.8817 80.3719 51.7662 80.2565L51.8817 80.3719C52.0548 80.5899 52.2092 80.8208 52.3435 81.0647V81.2956C52.5066 81.6641 52.6229 82.052 52.6899 82.4501V82.5656C52.8054 83.4892 52.6899 84.4129 52.5744 85.3365C52.1436 88.9416 52.1436 92.5844 52.5744 96.1895L53.729 95.4967C42.2464 86.4579 29.1073 79.7512 15.0511 75.7537C14.7047 75.6382 14.2429 75.8691 14.1274 76.2155C14.1274 76.5619 14.2429 76.9082 14.7047 77.0237Z" fill="#B8BFD3"/>
<path id="Vector_10" d="M46.1089 40.0776C52.1126 50.1223 58.1164 60.1671 63.1964 70.6736C59.2709 64.7853 55.6918 58.6661 52.459 52.5469L64.6974 71.7127C64.1201 69.9809 63.8892 68.1336 63.7737 66.2863C64.6974 68.3645 65.7365 70.3272 67.122 72.0591L63.6583 65.8244C64.4665 67.9026 65.7365 69.8654 67.4683 71.3663L65.0437 65.5935L69.0847 71.7127L67.122 66.4017C67.8147 68.249 68.8538 69.8654 70.0084 71.3663C69.4311 69.6345 68.7384 68.0181 67.8147 66.5172C68.7384 68.3645 69.8929 70.2118 71.2784 71.9436L68.9693 66.5172C70.0084 68.4799 71.1629 70.3272 72.5484 72.0591L70.1238 66.979L73.0102 71.5973C73.3566 69.6345 72.2021 67.9026 71.0475 66.2863L64.1201 56.357L69.2002 65.0162C63.7614 55.7905 56.4925 47.7752 47.8407 41.4631C51.5136 43.9086 54.919 46.7336 58.0009 49.8914C61.1182 52.4315 63.7737 55.3179 66.0829 58.5507L63.7737 55.7797L67.2374 64.7853C65.3901 62.2453 63.6583 59.5898 62.1573 56.8188C62.119 56.8959 62.0805 56.9728 62.0419 57.0497C63.1964 60.5134 64.5819 63.7462 66.0829 66.979L60.5409 57.627L62.9655 65.2471L59.2709 59.128C58.9631 58.6276 58.6551 58.1274 58.3473 57.627L61.1182 63.7462C58.1164 57.8579 54.8836 51.9697 51.3044 46.4277L60.1946 60.8598C57.4236 56.0106 54.4218 51.3924 51.3044 46.7741L59.1555 58.0888L50.3808 45.3886L53.3826 52.5469L50.2653 48.6214L53.3826 53.3551L51.0735 47.3514C53.4981 50.5842 55.9227 53.7015 58.5782 56.8188L57.3082 53.7015C58.4627 54.1633 59.3864 55.087 59.7328 56.1261L57.3082 52.0851L59.9637 55.2024L54.7681 47.6978C55.3454 48.275 55.6918 49.0832 55.8072 49.776L54.1908 48.1596L55.8072 50.1223C58.8091 52.7778 61.3491 56.0106 63.1964 59.7052" fill="#BEC3CE"/>
<path id="Vector_11" d="M45.1858 40.5393C48.6804 46.4479 52.1441 52.3748 55.5769 58.3196C57.9174 62.5339 60.1503 66.8071 62.2734 71.1354L64.1207 70.0963C60.2014 64.2397 56.5791 58.1898 53.2678 51.9695L51.5359 53.0086L56.2696 60.5133L61.1188 68.018L63.7743 72.2899C64.0052 72.7518 64.5825 72.8672 65.0443 72.7518C65.5061 72.5208 65.8525 71.9436 65.6216 71.4817C65.1673 69.7841 64.8963 68.0421 64.8134 66.2861L62.8506 66.8635C63.7743 68.9417 64.9289 70.9044 66.1989 72.6363C66.4298 72.8672 66.5452 73.0981 66.7762 73.0981C67.1225 73.2136 67.3534 73.0981 67.5844 72.9827C68.1616 72.7518 68.2771 72.059 68.0462 71.5972L64.467 65.247C64.2361 64.7852 63.6588 64.6697 63.197 64.9006C62.7352 65.0161 62.3888 65.5934 62.6197 66.0552C63.4884 68.3395 64.871 70.3937 66.6607 72.059C67.0071 72.4054 67.5844 72.5208 67.9307 72.2899L68.3925 71.9436V71.1354L66.0834 65.247L64.2361 66.0552L68.1616 72.1745C68.508 72.6363 68.9698 72.8672 69.4317 72.6363C69.8935 72.4054 70.2399 71.9436 70.1244 71.3663L68.0462 66.1706L66.1989 66.9789C67.0071 68.8262 68.0462 70.5581 69.3162 72.059C69.4317 72.2899 69.6626 72.2899 69.8935 72.4054L70.5862 72.2899C70.9326 72.059 71.1635 71.4817 71.048 71.0199C70.4708 69.2881 69.6626 67.5562 68.6235 65.9397C68.3925 65.4779 67.6998 65.247 67.238 65.5934C66.7762 65.9397 66.6607 66.517 66.8916 66.9789C67.9307 69.0571 69.0853 70.9044 70.5862 72.6363C70.7621 72.8229 71.001 72.9383 71.2568 72.9596C71.5126 72.9808 71.7673 72.9069 71.9717 72.7518L72.3181 72.1745V71.9436L72.2026 71.3663L69.8935 66.0552L68.0462 67.0944C69.0853 69.0571 70.3553 71.0199 71.8562 72.7518C71.9717 72.9827 72.3181 73.0981 72.549 73.0981L73.2417 72.8672C73.7035 72.5208 73.7035 71.9436 73.4726 71.4817L70.9326 66.4016L69.2007 67.4408L72.2026 72.1745C72.2829 72.2918 72.3865 72.3915 72.507 72.4682C72.6274 72.5439 72.7623 72.5938 72.9029 72.616C73.0437 72.6372 73.1874 72.6298 73.3251 72.5938C73.4628 72.5578 73.5917 72.4931 73.7035 72.4054L74.0499 71.9436C74.2996 70.6449 74.0958 69.3001 73.4726 68.1335L71.7408 65.3624L67.4689 59.3587L65.0443 55.895C64.8134 55.6641 64.5825 55.4332 64.3516 55.4332H63.5434C63.0816 55.7796 62.8506 56.3568 63.197 56.9341L67.1225 63.6306L68.2771 65.4779C68.6235 65.9397 69.2007 66.1706 69.778 65.8243C70.2399 65.5934 70.3553 64.9006 70.1244 64.4388C64.5846 55.079 57.1524 46.9783 48.3031 40.6548L47.264 42.3866L51.1895 45.0421L50.9586 44.9267C55.7152 49.1074 60.0466 53.7482 63.8897 58.7814L65.3907 57.2805L60.1951 50.9304L58.6942 49.1985L57.3087 50.6995C59.8427 52.7773 62.1284 55.1406 64.1207 57.7423L64.0052 57.5114L65.1598 59.1278L66.7762 57.8578L64.5825 55.0868L63.8897 54.7405L63.3125 54.8559L62.8506 55.2023V56.0105L65.3907 63.0533L66.1989 65.0161L68.0462 64.2079C66.2113 61.7091 64.5524 59.0858 63.0816 56.3568L61.2342 57.396C63.5933 60.4882 65.7528 63.7275 67.6998 67.0944L69.4317 66.0552L64.467 58.666L62.9661 56.5878C62.7352 56.1259 62.1579 55.895 61.6961 56.1259C61.2342 56.3568 60.8879 56.8187 61.1188 57.396C62.2351 60.8324 63.5852 64.1885 65.1598 67.4408L67.0071 66.4016C65.1213 63.2842 63.2355 60.1669 61.3497 57.0496C61.2081 56.8661 61.0093 56.7351 60.7847 56.6776C60.5602 56.6201 60.3228 56.6393 60.1104 56.7322C59.8981 56.8251 59.7229 56.9864 59.6127 57.1903C59.5025 57.3943 59.4637 57.6293 59.5024 57.8578L61.927 65.5934L63.8897 64.7852L60.1951 58.5505C59.8488 58.0887 59.2715 57.8578 58.6942 58.2041L58.2324 58.7814L58.3478 59.5896L61.5806 67.0944L63.4279 66.0552L60.1951 59.0123L59.2715 57.0496C59.2007 56.9229 59.1043 56.8124 58.9883 56.7252C58.8722 56.6381 58.7393 56.5762 58.5979 56.5436C58.4565 56.5109 58.3098 56.5083 58.1673 56.5358C58.0248 56.5633 57.8897 56.6203 57.7706 56.7032L57.3087 57.2805L57.4242 58.0887L60.1951 64.3233L62.0424 63.2842C59.0525 57.319 55.7774 51.5009 52.2286 45.8503C51.9977 45.3885 51.305 45.1576 50.8432 45.5039C50.3813 45.7348 50.1504 46.4276 50.4968 46.8894C52.7673 50.6611 55.0379 54.4327 57.3087 58.2041L59.2715 61.3215C59.6179 61.7833 60.3106 62.0142 60.7724 61.7833C61.2342 61.4369 61.4652 60.8596 61.1188 60.2824C58.3365 55.4753 55.3709 50.7766 52.2286 46.1967L50.3813 47.3512C52.9985 51.0843 55.6155 54.8173 58.2324 58.5505L60.0797 57.5114L53.1523 47.6976C52.3056 46.6201 51.4589 45.5425 50.6123 44.4648C50.3813 44.3494 50.035 44.3494 49.8041 44.5803C49.5731 44.6957 49.3422 44.9267 49.3422 45.1576C49.2268 45.3885 49.3422 45.7348 49.4577 45.9658L52.575 53.1241L54.1914 51.854L50.9586 47.9285C50.7828 47.7416 50.5439 47.6263 50.2881 47.605C50.0322 47.5836 49.7776 47.6578 49.5731 47.8131C49.2268 48.1594 48.9959 48.7367 49.3422 49.1985L52.4596 53.8168C52.8059 54.2786 53.2678 54.5095 53.7296 54.2786C54.1914 54.0477 54.5378 53.5859 54.4223 53.0086L51.9977 47.0049L50.1504 47.8131C52.8107 51.2514 55.5832 54.6014 58.4633 57.8578L59.156 57.7423L59.5024 57.2805L59.6179 56.4723L58.3478 53.355L57.0778 54.7405L56.8469 54.625L57.886 55.2023L57.6551 54.9714L58.4633 55.895L58.3478 55.6641L58.8097 56.5878L58.6942 56.3568L58.8097 56.4723L60.657 55.6641L58.2324 51.5077L56.616 52.7777L59.156 56.0105C59.3466 56.1809 59.5932 56.2751 59.8488 56.2751C60.1043 56.2751 60.3511 56.1809 60.5415 56.0105C60.8879 55.7796 61.1188 55.0868 60.7724 54.7405L56.8469 48.8522L55.6923 47.2358L54.0759 48.5058L54.4223 48.8522L54.3069 48.7367L54.6532 49.314L54.5378 49.0831L54.7687 49.8913V49.5449V49.7758L56.5005 49.0831L54.9996 47.4667C54.5378 47.0049 53.845 47.0049 53.4987 47.4667L53.1523 48.1594C53.1523 48.5058 53.2678 48.7367 53.4987 48.9676L54.6532 50.3531L55.2305 50.9304C56.6598 52.2385 57.9732 53.6678 59.156 55.2023L58.9251 54.9714C60.1951 56.5878 61.3497 58.3196 62.2734 60.1669C62.5043 60.6287 63.197 60.8596 63.6588 60.5133C64.2361 60.2824 64.3516 59.7051 64.0052 59.1278C62.1684 55.5272 59.7054 52.2822 56.7314 49.5449L56.1542 48.8522L54.9996 47.4667L53.4987 48.9676L54.9996 50.584C55.346 50.8149 55.8078 50.9304 56.1542 50.8149C56.5005 50.584 56.8469 50.2377 56.8469 49.7758C56.7314 48.7367 56.2696 47.6976 55.5769 47.0049C55.1151 46.6585 54.5378 46.6585 54.1914 46.8894C53.7296 47.2358 53.6141 47.8131 53.845 48.2749L57.886 54.0477L59.0406 55.7796L60.657 54.5095L58.0015 51.2768C57.8196 51.1364 57.5963 51.0602 57.3665 51.0602C57.1367 51.0602 56.9133 51.1364 56.7314 51.2768C56.2696 51.5077 56.1542 52.085 56.3851 52.5468L58.9251 56.7032C59.156 57.165 59.7333 57.2805 60.1951 57.0496C60.4261 57.0496 60.5415 56.9341 60.657 56.7032C60.7724 56.4723 60.8879 56.1259 60.7724 55.895C60.5415 55.2023 60.0797 54.5095 59.5024 53.9323C58.9251 53.355 58.3478 53.0086 57.5396 52.6622C57.3087 52.5468 56.8469 52.6622 56.616 52.8931C56.3851 53.2395 56.1542 53.5859 56.2696 53.9323L57.5396 57.0496L59.2715 56.0105C57.4132 53.8189 55.6039 51.5862 53.845 49.314L53.9605 49.4295C53.0646 48.3995 52.1794 47.3604 51.305 46.3121L50.6123 46.4276C50.2659 46.543 49.8041 47.1203 50.035 47.5822L52.3441 53.5859L54.3069 52.7777L51.0741 48.1594L49.4577 49.4295L52.6905 53.355C52.881 53.5254 53.1276 53.6196 53.3832 53.6196C53.6388 53.6196 53.8855 53.5254 54.0759 53.355C54.1914 53.2395 54.4223 53.1241 54.4223 52.8931C54.5378 52.5468 54.4223 52.3159 54.3069 52.085L51.1895 44.9267L49.4577 45.9658L56.2696 55.7796L58.2324 58.5505C58.4633 58.7814 58.5787 59.0123 58.9251 59.0123H59.7333C60.0797 58.666 60.4261 57.9732 60.0797 57.5114L53.9605 48.7367C53.1907 47.7361 52.421 46.7355 51.6514 45.7348L50.8432 45.8503C50.3813 46.1967 50.1504 46.774 50.3813 47.3512C53.5212 51.8933 56.4867 56.5535 59.2715 61.3215L61.1188 60.2824L57.6551 54.625L54.1914 49.0831L52.2286 45.8503L50.4968 46.8894C54.0069 52.5421 57.2433 58.3602 60.1951 64.3233C60.4261 64.7852 61.2342 64.9006 61.6961 64.6697L62.1579 64.0924L62.0424 63.2842L59.2715 57.0496L57.4242 58.0887L60.657 65.1315L61.5806 67.0944C61.6514 67.2209 61.7479 67.3318 61.8639 67.4186C61.9799 67.5054 62.1129 67.5673 62.2543 67.6005C62.3956 67.6329 62.5423 67.6356 62.6848 67.6079C62.8274 67.5802 62.9625 67.5239 63.0816 67.4408L63.5434 66.8635L63.4279 66.0552L60.1951 58.5505L58.3478 59.5896L62.0424 65.8243C62.2734 66.2861 62.8506 66.4016 63.3125 66.2861C63.7743 66.0552 64.1207 65.4779 64.0052 65.0161L61.4652 57.2805L59.6179 58.0887L64.0052 65.3624L65.1598 67.4408C65.5061 67.9026 66.1989 68.1335 66.6607 67.7871C67.1225 67.5562 67.238 66.9789 67.0071 66.4016L65.2752 62.5915L65.3907 62.8224C64.467 60.8596 63.7743 58.8969 63.0816 56.8187L61.2342 57.6269L66.1989 65.0161C66.8917 65.8627 67.5844 66.7092 68.2771 67.5562L69.0853 67.4408C69.5471 67.0944 69.778 66.517 69.4317 66.0552C67.3525 62.5172 65.0382 59.1229 62.5043 55.895C62.1579 55.7796 61.927 55.7796 61.6961 56.0105C61.1188 56.2414 61.0033 56.8187 61.2342 57.396C62.9037 60.3447 64.7949 63.1623 66.8916 65.8243L67.5844 65.7088C68.0462 65.5934 68.3925 65.0161 68.1616 64.5543L65.5061 57.5114L64.8134 55.5486L63.0816 56.4723L65.3907 59.3587C65.5812 59.5291 65.8278 59.6233 66.0834 59.6233C66.339 59.6233 66.5857 59.5291 66.7762 59.3587C67.1225 59.1278 67.238 58.5505 67.0071 58.0887C64.6627 54.7535 61.8647 51.7613 58.6942 49.1985C58.5787 48.9676 58.3478 48.8522 58.0015 48.8522C57.7706 48.8522 57.4242 48.9676 57.3087 49.1985L56.9624 49.8913C56.9624 50.2377 57.0778 50.4686 57.3087 50.6995L62.5043 56.9341L63.8897 58.7814C64.1207 59.0123 64.467 59.0123 64.6979 59.0123C64.9289 59.0123 65.2752 59.0123 65.3907 58.7814C65.6216 58.5505 65.737 58.3196 65.737 57.9732L65.3907 57.2805C63.4279 54.8559 61.5806 52.4313 59.5024 50.1222C56.2209 46.468 52.4525 43.2823 48.3031 40.6548C47.8413 40.3084 47.1486 40.5393 46.9176 41.0011C46.8022 41.232 46.6867 41.463 46.8022 41.8093L47.264 42.3866C53.2354 46.777 58.56 51.985 63.0816 57.8578L62.9661 57.6269C64.8932 60.1344 66.6668 62.7562 68.2771 65.4779L70.1244 64.4388L66.0834 57.7423L65.0443 55.895L63.197 56.9341L70.2399 66.8635C70.8171 67.6717 71.3944 68.4799 71.7408 69.519L71.6253 69.1726L72.0872 70.6735L71.9717 70.4426V71.4817L72.0872 71.2508V71.3663L73.9345 71.1354L70.9326 66.4016C70.7017 65.9397 70.0089 65.7088 69.5471 66.0552C69.0853 66.4016 68.9698 66.9789 69.2007 67.4408L71.7408 72.5208L73.3572 71.2508L72.6644 70.4426L72.7799 70.5581C71.6253 69.1726 70.7017 67.6717 69.8935 66.0552C69.6626 65.4779 68.9698 65.3624 68.508 65.5934C68.2771 65.8243 68.0462 65.9397 68.0462 66.2861L67.9307 66.517L68.0462 67.0944L70.3553 72.4054L71.9717 71.1354L71.3944 70.4426L71.6253 70.6735C70.4708 69.1726 69.5471 67.6717 68.6235 65.9397L66.8916 66.9789L68.508 70.3272L68.3925 70.0963L69.0853 71.5972L70.8171 70.6735L70.4708 70.3272L70.7017 70.5581C69.5471 69.0571 68.7389 67.5562 67.9307 65.9397C67.8089 65.724 67.6139 65.5588 67.3811 65.4741C67.1482 65.3895 66.8927 65.3908 66.6607 65.4779C66.1989 65.7088 65.8525 66.2861 66.0834 66.748L68.0462 71.9436L70.0089 71.1354L65.968 65.0161C65.737 64.5543 65.1598 64.4388 64.6979 64.5543C64.467 64.6697 64.2361 64.7852 64.2361 65.0161C64.0052 65.247 64.0052 65.5934 64.1207 65.8243L66.4298 71.5972L68.1616 70.6735C67.5771 70.1406 67.0364 69.5615 66.5452 68.9417C65.8525 68.018 65.1598 66.8635 64.6979 65.7088L64.8134 65.9397L64.5825 65.5934L62.7352 66.2861L66.1989 72.6363L68.0462 71.5972C66.6171 69.7462 65.4155 67.7308 64.467 65.5934L64.2361 65.3624H63.5434C63.0816 65.4779 62.7352 65.8243 62.7352 66.2861C62.8506 68.2489 63.0816 70.2117 63.6588 72.059L65.5061 71.2508L60.7724 63.7461L56.0387 56.2414L53.2678 51.9695C53.0368 51.5077 52.3441 51.2768 51.8823 51.6231C51.4204 51.9695 51.1895 52.5468 51.5359 53.0086C54.8096 59.2266 58.3932 65.2765 62.2734 71.1354C62.6197 71.5972 63.197 71.8281 63.7743 71.4817C64.2361 71.2508 64.3516 70.6735 64.1207 70.0963C61.1743 63.9425 57.9379 57.932 54.4223 52.085C52.157 48.1338 49.8477 44.2081 47.4949 40.3084L47.0331 39.5002C46.8022 39.0384 46.1095 38.8075 45.6476 39.1538C45.1858 39.5002 44.9549 40.0775 45.1858 40.5393Z" fill="#B8BFD3"/>
<path id="Vector_12" d="M51.1891 47.4667L53.2674 49.5449C53.4983 49.7758 53.7292 49.8913 54.0756 49.8913L54.7683 49.5449C54.9992 49.4295 55.1147 49.0831 55.1147 48.8522C55.1147 48.6213 54.9992 48.2749 54.7683 48.1594L52.6901 46.0812C52.4592 45.8503 52.2283 45.7349 51.8819 45.7349L51.1891 46.0812C50.9582 46.1967 50.8428 46.5431 50.8428 46.774C50.9582 47.0049 50.9582 47.3513 51.1891 47.4667Z" fill="#B8BFD3"/>
<path id="Vector_13" d="M55.8071 48.1596L58.6936 51.2769C59.0399 51.6233 59.7327 51.6233 60.079 51.2769C60.5409 50.8151 60.5409 50.2378 60.079 49.776L57.3081 46.7741C56.9617 46.3123 56.1535 46.3123 55.8071 46.7741C55.4608 47.1205 55.4608 47.8132 55.8071 48.1596Z" fill="#B8BFD3"/>
<path id="Vector_14" d="M17.1294 75.6381C29.9451 79.7945 41.9525 86.2601 52.69 94.4575L51.42 80.2563L51.1891 79.3327C50.9581 78.9863 50.4963 78.8709 50.1499 78.6399C44.9544 76.6772 39.7589 74.7144 34.3324 73.7908C28.906 72.8671 23.0177 73.2135 18.1685 75.6381C30.0605 78.409 41.3753 83.9509 50.8427 91.6865L49.3418 83.2582C48.9954 81.7573 48.8799 80.1409 49.8036 78.9863L50.1499 82.7964C50.2654 80.6027 47.8408 79.3327 45.8781 78.6399C40.3361 76.6772 34.6788 74.7144 28.7905 74.2526C26.135 74.1371 23.364 74.3681 21.1704 75.869C26.0195 77.4854 31.0996 78.409 35.9488 80.0254C40.798 81.6418 45.6471 84.0664 48.7645 88.1074C45.7626 86.0292 42.5298 84.0664 39.297 82.3345L46.9172 85.9137C47.0326 83.6046 46.9172 81.4109 46.8017 79.1018C47.1481 81.18 47.7254 83.2582 48.4181 85.221C46.2244 83.0273 44.1462 80.6027 42.4144 77.9472L45.9935 80.7182C45.7626 81.6418 44.0308 81.7573 43.6844 80.8336L44.0308 82.6809C42.7607 79.1018 39.0661 77.0236 35.3715 76.2154C31.6769 75.5226 27.8668 75.7535 24.1722 75.4072C29.5987 78.2936 36.757 77.139 41.8371 80.7182" fill="#BEC3CE"/>
<path id="Vector_15" d="M16.784 76.6771C19.7501 77.6396 22.6772 78.7175 25.5587 79.9099L25.7896 80.0254L25.6741 79.9099L25.905 80.0254C35.2623 84.0017 44.0705 89.1621 52.1136 95.3811C52.46 95.612 52.9218 95.4965 53.1527 95.3811C53.4991 95.1502 53.73 94.8038 53.73 94.4574L52.8064 83.9509L52.5755 81.4108L52.46 80.0254C52.3446 79.4481 52.2291 78.9862 51.8827 78.5244L50.6127 77.7162L49.5736 77.3699L47.149 76.4462C44.0317 75.2916 40.9144 74.1371 37.6816 73.4443C34.4488 72.6361 31.216 72.1743 27.9832 72.2898C24.3785 72.3895 20.8363 73.255 17.5922 74.8298C17.2458 74.9453 17.0149 75.4071 17.1303 75.8689C17.1303 76.2153 17.4767 76.5617 17.8231 76.6771C22.2017 77.659 26.489 79.0103 30.6387 80.7181L30.9851 80.949L31.216 81.0645C37.2532 83.6294 42.9531 86.926 48.1881 90.8783L48.419 91.1092H48.5345L48.6499 91.3401C49.3107 91.7927 49.965 92.2545 50.6127 92.7256L51.3054 92.6101C51.7673 92.2637 51.8827 91.9174 51.7673 91.3401L50.4972 84.0663L50.1509 82.219L50.2663 82.4499L50.1509 80.7181V80.949C50.1753 80.7541 50.2139 80.5611 50.2663 80.3717L50.3818 80.1408L50.4972 79.9099V79.7944C50.3818 80.0254 50.4972 79.9099 50.4972 79.7944H50.6127L48.7654 78.9862L49.1118 82.7963L49.4581 83.489C49.5736 83.72 49.92 83.8354 50.1509 83.8354C50.7282 83.8354 51.19 83.3736 51.19 82.7963C51.3054 80.7181 49.6891 79.2172 47.9572 78.409L45.0708 77.2544C41.6757 76.1183 38.2492 75.0792 34.7952 74.1371C32.486 73.5598 30.0615 73.2134 27.7523 73.2134C25.2494 73.0915 22.7642 73.6928 20.594 74.9453C20.2477 75.1762 20.0167 75.5226 20.1322 75.9844C20.1322 76.4462 20.4786 76.6771 20.8249 76.908C24.9814 78.2935 29.2533 79.1017 33.5252 80.3717C35.165 80.8372 36.7831 81.3767 38.3743 81.9881L38.6052 82.1036C38.3743 81.9881 38.8361 82.219 38.6052 82.1036L38.8361 82.219C40.8775 83.0725 42.8144 84.1578 44.609 85.4518L44.7244 85.5673C45.8722 86.4918 46.9175 87.5365 47.8417 88.6846C47.9572 88.6846 48.0727 88.9155 47.8417 88.6846L49.3427 87.2991C46.2775 85.1332 43.0767 83.1667 39.7598 81.4108L38.7207 83.2581L46.4563 86.8373C46.8026 86.9527 47.149 87.0682 47.4954 86.8373C47.8417 86.6064 47.9572 86.26 47.9572 85.9136C48.0727 83.6045 47.9572 81.4108 47.8417 79.1017L45.7635 79.3326C46.2254 81.4108 46.8026 83.489 47.4954 85.4518L49.2272 84.4127C47.7794 83.0873 46.4289 81.6602 45.1863 80.1408V80.0254L45.0708 79.9099C44.4641 79.1229 43.8864 78.3148 43.3389 77.4853L41.9535 78.8708L45.4172 81.5263L44.9553 80.3717V80.4872L45.0708 80.3717H44.9553V80.4872L45.0708 80.3717H44.9553L44.7244 80.4872H44.9553H44.4935H44.8399L44.4935 80.3717L44.609 80.4872C44.5675 80.4521 44.5289 80.4133 44.4935 80.3717C44.4935 80.1408 44.1471 79.9099 43.9162 79.7944L43.2235 79.9099C42.7617 80.1408 42.5308 80.6026 42.6462 81.0645L43.108 82.9118L45.0708 82.4499C44.609 81.0645 43.8008 79.7944 42.7617 78.7553C41.838 77.8317 40.568 77.0235 39.4134 76.4462C38.028 75.8689 36.7579 75.4071 35.3725 75.1762C33.5252 74.8298 31.7933 74.7144 29.946 74.5989L24.1732 74.368C23.9423 74.2525 23.7114 74.368 23.4804 74.5989C23.365 74.7144 23.1341 74.8298 23.1341 75.0607C23.0186 75.5226 23.1341 75.9844 23.5959 76.2153C25.7896 77.4853 28.3296 78.0626 30.7542 78.5244C33.1788 78.8708 35.6034 79.2172 37.9125 79.9099L38.8361 80.2563L39.0671 80.3717C39.8358 80.7264 40.5702 81.1513 41.2607 81.6417C41.4916 81.7572 41.838 81.8727 42.0689 81.7572C42.2998 81.6417 42.6462 81.5263 42.7617 81.2954C42.9926 80.7181 42.8771 80.1408 42.4153 79.7944C40.3371 78.409 37.9125 77.7162 35.4879 77.1389C33.0633 76.6771 30.6387 76.4462 28.3296 75.8689C27.4661 75.6556 26.6175 75.3859 25.7896 75.0607L25.5587 74.9453L24.635 74.4834L24.1732 76.4462C26.5978 76.6771 29.1378 76.6771 31.6778 76.7926L33.8715 77.0235H33.5252C34.9447 77.2156 36.3387 77.5638 37.6816 78.0626H37.797C38.7241 78.4847 39.6126 78.9872 40.4525 79.5635L40.6835 79.7944C41.1439 80.1787 41.5689 80.6036 41.9535 81.0645L42.0689 81.1799V81.0645L42.2998 81.4108C42.5629 81.7757 42.7946 82.1618 42.9926 82.5654C42.8771 82.4499 43.108 82.9118 42.9926 82.5654L43.108 82.9118C43.108 83.2581 43.3389 83.3736 43.5699 83.6045L44.3781 83.72C44.9553 83.489 45.1863 82.9118 45.0708 82.4499L44.609 80.6026L42.7617 81.4108C43.108 82.1036 44.0317 82.5654 44.8399 82.5654C45.879 82.4499 46.6872 81.8727 46.9181 80.949V80.2563L46.4563 79.7944L42.9926 77.0235L42.2998 76.908C42.0689 77.0235 41.838 77.0235 41.7226 77.2544C41.3762 77.6008 41.2607 78.0626 41.6071 78.5244C43.3597 81.2113 45.4126 83.6904 47.7263 85.9136C48.0727 86.26 48.5345 86.3755 48.9963 86.0291C49.3427 85.7982 49.5736 85.3364 49.4581 84.8745C48.7654 82.9118 48.1881 80.949 47.8417 78.8708C47.7263 78.2935 47.149 78.0626 46.6872 78.0626C46.2254 78.1781 45.7635 78.6399 45.7635 79.1017C45.879 81.4108 45.9944 83.6045 45.879 85.9136L47.4954 84.99C44.6475 83.7588 41.7995 82.5266 38.9516 81.2954L38.3743 81.7572C38.1434 82.3345 38.2589 82.9118 38.7207 83.2581C42.0344 84.9771 45.2351 86.9047 48.3036 89.031C48.6499 89.2619 49.2272 89.2619 49.4581 88.9155L49.8045 88.4537L49.6891 87.6455C48.4796 86.055 47.0398 84.6547 45.4172 83.489C43.9162 82.3345 42.2998 81.4108 40.568 80.7181C36.7579 78.9862 32.6015 77.9471 28.5605 76.908C26.1359 76.2153 23.7114 75.638 21.4022 74.8298L21.6331 76.7926C21.9981 76.5303 22.3842 76.2984 22.7877 76.0998L22.9032 75.9844V76.0998C23.6463 75.7886 24.4203 75.5558 25.2123 75.4071C27.175 75.1762 29.2533 75.2916 31.216 75.5226H30.9851C35.5088 76.1414 39.9332 77.344 44.1471 79.1017L46.1099 79.7944L46.2254 79.9099C46.8237 80.1768 47.4025 80.4853 47.9572 80.8336C48.0727 80.8336 48.3036 81.0645 47.9572 80.8336L48.6499 81.4108L48.7654 81.5263L48.9963 81.8727V82.1036L49.1118 82.4499C49.1119 82.5654 49.1119 82.6809 49.1118 82.7963H51.19L50.8436 78.9862C50.8436 78.6399 50.6127 78.2935 50.2663 78.0626C49.92 77.9471 49.4581 77.9471 49.1118 78.2935C47.8417 79.679 47.9572 81.5263 48.1881 83.2581L49.2272 88.6846L49.8045 91.9174L51.5364 90.8783C41.8573 83.0512 30.5271 77.5241 18.4004 74.7144L18.6313 76.5617L19.4395 76.2153L19.6704 76.0998C19.4395 76.2153 19.9013 75.9844 19.6704 76.0998C21.5303 75.3785 23.4675 74.8751 25.4432 74.5989H25.0968C27.8596 74.2488 30.6578 74.2876 33.4097 74.7144L33.0633 74.5989C38.7298 75.8033 44.2898 77.4641 49.6891 79.5635L49.92 79.679L50.2663 79.9099L50.6127 82.6809L50.8436 85.5673L51.3054 91.2246L51.6518 94.4574L53.1527 93.5338C42.3924 85.2227 30.2865 78.8181 17.3612 74.5989C16.8994 74.4834 16.2067 74.8298 16.0912 75.4071C15.9758 75.8689 16.3221 76.4462 16.784 76.6771Z" fill="#B8BFD3"/>
<path id="Vector_16" d="M64.9284 58.8969L66.4294 61.5524C66.6603 62.0142 67.353 62.2451 67.8149 61.8988C68.3921 61.5524 68.5076 60.9751 68.2767 60.5133L66.7757 57.7423C66.4294 57.2805 65.7366 57.1651 65.2748 57.396C64.813 57.7423 64.6975 58.3196 64.9284 58.8969Z" fill="#B8BFD3"/>
<path id="Vector_17" d="M49.2266 83.0272L49.6884 86.1446C50.0348 85.2209 50.2657 84.1818 50.1502 83.1427C50.2657 83.72 50.3811 84.2973 50.2657 84.8745C50.0348 85.4518 49.6884 86.0291 49.1111 86.1446C48.4184 86.3755 47.7256 85.7982 47.0329 85.3364C44.031 82.9118 40.221 81.7572 36.5264 80.7181C38.4891 80.2563 40.5673 80.949 41.9528 82.45C40.221 82.45 38.6046 82.1036 37.1036 81.4109C38.72 82.1036 40.221 83.0272 41.7219 83.8354" fill="#BEC3CE"/>
<path id="Vector_18" d="M48.187 83.2582L48.7643 86.3756L48.8798 86.6065L49.1107 86.9528L49.688 87.1838C50.2653 87.1838 50.6116 86.8374 50.7271 86.3756C51.0735 85.3364 51.3044 84.2973 51.1889 83.1428L49.1107 83.4891L49.2262 83.8355V83.4891V84.6437V84.4128L49.1107 84.9901L49.2262 84.7592L48.9952 85.1055L49.1107 84.8746L48.8798 85.221L49.1107 84.9901L48.7643 85.221L48.9952 85.1055H48.6489L48.8798 85.221L48.418 85.1055H48.7643L47.6098 84.5283C46.6453 83.7302 45.6005 83.0329 44.4924 82.45C42.0257 81.2401 39.431 80.3109 36.7569 79.6791V81.6418H37.1032H36.8723H38.3732H38.1423L39.6433 81.9882L39.4124 81.8728L40.6824 82.6809L40.4515 82.5655L41.1442 83.1428L41.9524 81.4109L40.336 81.2955L40.6824 81.4109L37.9114 80.6027L38.1423 80.7182L37.565 80.4873C37.3341 80.3718 37.1032 80.2564 36.7569 80.3718C36.5259 80.3718 36.295 80.6027 36.1796 80.8336C35.9487 81.2955 36.0641 81.9882 36.5259 82.2191L41.2597 84.7592C41.7215 84.9901 42.4142 84.8746 42.6451 84.4128C42.876 83.951 42.7606 83.2582 42.2988 83.0273L37.565 80.4873L36.5259 82.2191C38.2578 83.0273 40.1051 83.4891 41.9524 83.4891C42.1461 83.4744 42.3317 83.406 42.4883 83.2906C42.6449 83.176 42.766 83.019 42.8382 82.8389C42.9103 82.6588 42.9304 82.462 42.8964 82.2708C42.8622 82.0797 42.7752 81.9014 42.6451 81.7573C41.8366 80.8854 40.8169 80.2351 39.6846 79.8712C38.5522 79.5073 37.345 79.4417 36.1796 79.6791C35.8332 79.7945 35.3714 80.2564 35.4868 80.7182C35.4868 81.18 35.7177 81.5264 36.1796 81.6418C38.2578 82.3346 40.2205 82.9119 42.1833 83.7201L41.9524 83.6046C43.3379 84.1819 44.7233 84.8746 45.9934 85.7983C46.6861 86.2601 47.2634 86.8374 48.0716 87.0683C48.6489 87.2992 49.2262 87.2992 49.688 87.0683C50.1498 86.8374 50.4962 86.491 50.8425 86.0292C51.4198 85.1055 51.3044 83.951 51.1889 82.9119C51.1889 82.6809 50.8425 82.3346 50.7271 82.2191L50.0343 82.1037C49.5725 82.2191 49.1107 82.6809 49.1107 83.1428V84.5283V84.2973L48.7643 85.7983H50.7271L50.1498 82.6809C50.0696 82.4233 49.8923 82.2062 49.6552 82.0778C49.4181 81.9485 49.1401 81.9162 48.8798 81.9882L48.3025 82.45C48.187 82.6809 48.0716 83.0273 48.187 83.2582Z" fill="#B8BFD3"/>
<path id="Vector_19" d="M52.5743 75.4071C52.4143 101.732 52.5683 128.058 53.0361 154.379C53.0361 156.688 52.9207 159.344 54.3062 161.307C54.768 161.884 55.2298 162.346 55.9226 162.808C56.6153 163.27 57.7699 162.923 58.2317 162.115C58.6935 161.307 58.4626 160.383 57.6544 159.806C57.308 159.575 57.8853 160.037 57.6544 159.806L57.308 159.575L57.0771 159.229L56.9617 158.882L56.7308 158.189L56.6153 157.497V157.612V156.919L56.4998 155.303C56.0205 128.674 55.8666 102.04 56.038 75.4071C56.038 74.5989 55.2298 73.6753 54.3062 73.6753C53.3825 73.7907 52.5743 74.4835 52.5743 75.4071Z" fill="#2E395F"/>
<path id="Vector_20" d="M57.6547 71.5972C55.8074 71.1354 54.0756 72.059 53.1519 73.4445C52.1128 74.83 52.1128 76.5618 52.1128 78.1782V129.095L52.2282 149.53C52.3437 152.879 52.3437 156.342 52.5746 159.69C52.5746 161.538 53.2674 163.154 55.1147 163.731C55.9229 163.962 56.8465 163.962 57.6547 164.078L60.1947 164.193L62.6193 164.309C63.543 164.424 64.3512 163.501 64.3512 162.577C64.2357 161.653 63.543 160.96 62.6193 160.845L57.7702 160.614L56.7311 160.499H56.2692H56.3847L56.0383 160.383C55.8074 160.383 56.2692 160.614 56.0383 160.383C56.1538 160.499 56.2692 160.614 56.0383 160.383L56.1538 160.499V160.383L56.0383 160.152V159.344C55.8905 156.497 55.775 153.65 55.6919 150.8L55.5765 131.404V77.8318C55.5947 77.3303 55.6332 76.8297 55.6919 76.3309V76.4464V75.9845L55.8074 75.6382L55.9229 75.4072L56.0383 75.2918L56.1538 75.1763L56.2692 75.0609L56.3847 74.9454H56.5001H56.7311C57.5392 75.1763 58.5784 74.5991 58.8093 73.6754C59.0402 72.7517 58.5784 71.8281 57.6547 71.5972Z" fill="#2E395F"/>
<path id="Vector_21" d="M52.9219 158.882C54.6537 161.999 58.3484 162.577 61.5811 162.692C74.4661 163.242 87.3631 163.473 100.259 163.385C117.462 163.447 134.666 163.37 151.868 163.154L177.73 162.923H180.501C180.963 162.808 180.501 163.269 179.924 162.692L179.462 161.884L179.578 161.999V161.076L179.462 161.191L179.924 160.383L180.155 160.268L180.963 160.037H180.848L182.118 160.614L182.002 160.499C181.425 159.806 180.27 159.806 179.578 160.499C178.885 161.191 178.885 162.23 179.578 162.923C180.617 164.078 182.464 163.385 182.926 161.999C183.388 160.383 181.771 159.459 180.386 159.459H173.805L160.412 159.575C142.67 159.741 124.929 159.857 107.187 159.921C93.9072 159.897 80.6285 159.704 67.354 159.344L61.0039 159.113H59.8493L59.5029 158.998C58.7573 158.865 58.0236 158.672 57.3092 158.42L56.9629 158.305C56.5011 157.959 56.1547 157.728 55.9238 157.15C55.4619 156.342 54.3074 156.111 53.4992 156.573C52.691 157.035 52.4601 158.074 52.9219 158.882Z" fill="#2E395F"/>
<path id="Vector_22" d="M53.8449 155.072C54.0758 156.573 54.5376 158.189 55.6922 159.459C56.3849 160.152 57.1931 160.614 58.1168 160.845C58.925 161.076 59.8486 161.076 60.7723 161.191C66.7311 161.587 72.6977 161.855 78.668 162C79.3608 162 79.938 161.422 79.938 160.73C79.938 160.152 79.3608 159.575 78.668 159.575C72.8904 159.421 67.1164 159.151 61.3496 158.767L59.3868 158.651H59.7332L58.1168 158.189L58.3477 158.305C58.1495 158.243 57.9564 158.166 57.7704 158.074L57.0777 157.381L57.3086 157.612C57.1302 157.357 56.9756 157.087 56.8467 156.804L56.154 154.379C56.0486 154.083 55.8366 153.835 55.5593 153.686C55.2819 153.537 54.9589 153.495 54.6531 153.571C54.3067 153.571 54.0758 153.802 53.9603 154.033C53.7294 154.379 53.7294 154.726 53.8449 155.072Z" fill="#2E395F"/>
<path id="Vector_23" d="M57.8855 163.847L107.647 163.962H171.148C175.651 164.078 180.269 164.193 184.772 163.385C185.465 163.27 185.811 162.461 185.696 161.884C185.465 161.191 184.772 160.961 184.195 161.076C180.154 161.769 176.113 161.653 172.187 161.538H135.01L85.7105 161.422H57.8855C56.3845 161.422 56.3845 163.847 57.8855 163.847Z" fill="#2E395F"/>
<path id="Vector_24" d="M61.0032 163.847C63.0814 164.193 65.1596 164.193 67.3533 164.078L73.588 163.385L77.1671 162.923C77.5135 162.923 77.7444 162.808 77.9753 162.577C78.2062 162.346 78.3217 162 78.3217 161.769C78.3217 161.422 78.2062 161.076 77.9753 160.845L77.1671 160.499L70.817 161.307C67.5589 161.69 64.2694 161.729 61.0032 161.422L60.195 161.769C59.9641 162 59.8486 162.346 59.8486 162.692C59.8486 163.039 59.9641 163.27 60.195 163.501L60.4259 163.731L61.0032 163.847ZM180.154 74.2527C180.919 74.1437 181.692 74.1058 182.463 74.1372H182.694C182.93 74.2 183.161 74.2776 183.387 74.3681H183.618L183.849 74.4836C183.964 74.5991 184.195 74.83 184.08 74.5991L184.311 74.83L184.426 74.9454C184.542 75.0609 184.311 74.7145 184.311 74.9454L184.426 75.0609L184.542 75.1763V75.5227L184.657 77.7164V80.141C184.576 106.004 184.345 131.867 183.964 157.728L183.849 159.575V159.69C183.786 159.926 183.708 160.157 183.618 160.383V160.499L183.503 160.614L183.387 160.96C183.272 161.076 183.503 160.845 183.387 160.96L183.272 161.076H183.156L183.041 161.191C182.348 161.422 182.002 162 182.117 162.692C182.348 163.27 183.041 163.847 183.618 163.616C186.504 162.577 186.389 159.113 186.389 156.689C186.79 133.176 187.021 109.661 187.082 86.1447V76.1C186.966 74.5991 186.504 73.329 185.234 72.5208C184.195 71.8281 182.925 71.7126 181.771 71.7126L180.154 71.8281C179.577 71.9436 179 72.2899 179 72.9827C179 73.6754 179.577 74.3681 180.154 74.2527Z" fill="#2E395F"/>
<path id="Vector_25" d="M181.539 163.616L183.502 163.5C184.079 163.5 184.772 163.385 185.349 163.154C186.042 162.692 186.389 161.884 186.504 161.076L186.389 159.229L186.273 157.15C186.273 156.804 186.158 156.458 185.927 156.227C185.696 155.996 185.349 155.88 185.118 155.88C184.772 155.88 184.426 155.996 184.195 156.227C183.964 156.458 183.848 156.804 183.848 157.15L183.964 159.229V161.307L184.079 160.96L183.964 161.191L184.195 160.96L183.964 161.076L184.31 160.96L183.618 161.076H183.964L182.809 161.191H181.539C181.308 161.191 180.962 161.307 180.731 161.538C180.5 161.769 180.385 162.115 180.385 162.461C180.385 162.692 180.5 163.039 180.731 163.27C180.962 163.5 181.308 163.616 181.539 163.616Z" fill="#2E395F"/>
<path id="Vector_26" d="M177.614 161.769C178.769 161.538 179.923 161.191 180.962 160.73C181.54 160.383 182.117 160.037 182.463 159.575C183.041 159.113 183.387 158.421 183.618 157.728C183.849 157.035 183.964 156.227 183.964 155.419L184.08 153.225L184.311 148.722L184.657 143.527C184.657 143.296 184.542 142.949 184.311 142.718C184.08 142.488 183.733 142.372 183.387 142.372C182.694 142.372 182.232 142.834 182.232 143.527L181.655 153.687L181.424 156.458L181.54 156.111L181.193 157.381L181.309 157.035L180.847 157.843L181.078 157.612C180.938 157.779 180.782 157.934 180.616 158.074C180.154 158.421 179.808 158.651 179.346 158.767L179.577 158.651L177.037 159.46C176.691 159.46 176.46 159.691 176.229 160.037L176.113 160.961L176.691 161.653C177.037 161.769 177.268 161.884 177.614 161.769Z" fill="#2E395F"/>
<path id="Vector_27" d="M182.463 162.115C183.502 161.422 184.079 160.383 184.426 159.113L184.657 157.497C184.853 155.766 185.046 154.034 185.234 152.301L184.541 151.724C184.195 151.724 183.848 151.724 183.618 151.955C183.387 152.07 183.04 152.301 183.04 152.647L182.578 155.534L182.117 158.305C182.057 158.579 181.98 158.849 181.886 159.113L181.424 159.921C181.386 159.96 181.347 159.999 181.308 160.037C180.962 160.152 180.847 160.499 180.731 160.729C180.616 161.076 180.616 161.422 180.847 161.653C180.962 161.999 181.193 162.23 181.539 162.23C181.886 162.346 182.232 162.346 182.463 162.115ZM182.117 78.409C182.044 101.462 182.159 124.516 182.463 147.567C182.463 148.145 183.04 148.837 183.618 148.722C184.31 148.722 184.888 148.26 184.888 147.567C184.58 124.516 184.465 101.462 184.541 78.409C184.541 77.8317 183.964 77.139 183.387 77.2544C182.694 77.2544 182.117 77.7163 182.117 78.409Z" fill="#2E395F"/>
<path id="Vector_28" d="M182.117 128.402C182.406 134.864 182.406 141.336 182.117 147.798C182.117 148.491 182.694 149.068 183.387 149.068C183.964 149.068 184.542 148.491 184.542 147.798C184.831 141.336 184.831 134.864 184.542 128.402C184.542 128.171 184.426 127.824 184.195 127.593C183.964 127.363 183.618 127.247 183.387 127.247C183.069 127.246 182.763 127.363 182.528 127.578C182.293 127.791 182.146 128.085 182.117 128.402ZM60.888 161.999C67.9308 161.076 75.0891 161.538 82.1319 161.769C89.2901 161.999 96.3329 161.999 103.491 161.884C117.692 161.769 131.894 161.307 146.095 161.422C154.177 161.538 162.143 161.884 170.11 162.577C170.802 162.692 171.38 161.999 171.38 161.422C171.38 160.729 170.802 160.268 170.11 160.152C155.908 158.882 141.476 158.882 127.16 159.113C112.843 159.344 98.642 159.806 84.3256 159.459C76.3591 159.229 68.2772 158.536 60.3107 159.69C59.618 159.806 59.2717 160.614 59.3871 161.191C59.618 161.884 60.3107 162.115 60.888 161.999Z" fill="#2E395F"/>
<path id="Vector_29" d="M181.311 159.113L167.802 159.344C160.758 159.49 153.716 159.682 146.674 159.921C146.096 159.921 145.404 160.499 145.519 161.191C145.519 161.769 145.981 162.346 146.674 162.346L160.182 162L173.69 161.653L181.311 161.538C181.888 161.538 182.581 160.961 182.581 160.268C182.465 159.691 182.003 159.113 181.311 159.113Z" fill="#2E395F"/>
<path id="Vector_30" d="M153.37 162.23L154.409 162L154.063 162.115L156.603 162H164.569L175.307 162.115H181.31C181.657 162.115 181.888 162 182.119 161.769C182.35 161.538 182.465 161.191 182.465 160.96C182.465 160.268 182.003 159.69 181.31 159.69H170.111L159.027 159.575H155.91C154.871 159.575 153.716 159.575 152.677 159.921C152.446 160.037 152.1 160.152 151.984 160.499C151.869 160.73 151.754 161.076 151.869 161.422C151.984 161.653 152.1 162 152.446 162.115C152.677 162.346 153.024 162.346 153.37 162.23ZM67.0085 162.115C67.3549 162.115 67.7013 162 67.8167 161.769L68.2785 160.96C68.1631 160.268 67.7013 159.69 67.0085 159.69C66.6621 159.69 66.3158 159.921 66.2003 160.037C65.9694 160.268 65.7385 160.614 65.854 160.96C65.854 161.653 66.3158 162.115 67.0085 162.115Z" fill="#2E395F"/>
<path id="Vector_31" d="M64.8132 161.076L65.0441 161.191L65.3904 161.538H66.3141L66.7759 161.191L66.8914 160.96L67.1223 160.383L67.0068 160.037L66.7759 159.575L66.545 159.344L66.1986 159.113L65.7368 158.998L65.275 159.113L64.8132 159.344L64.6977 159.575L64.4668 160.268L64.5823 160.499L64.8132 161.076ZM69.2005 162.23C87.8925 161.394 106.607 161.201 125.312 161.653C125.89 161.653 126.582 161.076 126.467 160.383C126.467 159.69 126.005 159.229 125.312 159.229C106.607 158.777 87.8925 158.969 69.2005 159.806C68.5078 159.806 67.9305 160.383 67.9305 161.076C67.9305 161.653 68.5078 162.23 69.2005 162.23Z" fill="#2E395F"/>
<path id="Vector_32" d="M103.375 159.113C90.908 159.419 78.4383 159.612 65.9676 159.691C65.3903 159.691 64.813 160.152 64.813 160.845C64.813 161.538 65.2748 162.115 65.9676 162.115C78.4384 162.04 90.908 161.847 103.375 161.538C103.953 161.538 104.645 160.961 104.53 160.268C104.53 159.691 104.068 159.113 103.375 159.113Z" fill="#2E395F"/>
<path id="Vector_33" d="M62.3884 164.309C75.0912 164.633 87.8018 164.44 100.489 163.731C101.182 163.731 101.759 163.27 101.759 162.577C101.644 161.884 101.182 161.307 100.489 161.307C87.8018 162.02 75.0912 162.212 62.3884 161.884C61.8112 161.884 61.2339 162.461 61.2339 163.154C61.2339 163.731 61.8112 164.309 62.3884 164.309ZM56.2693 73.7908C88.9795 73.1534 121.7 73.231 154.407 74.0217L182.001 74.5989C183.502 74.5989 183.502 72.1744 182.001 72.1744C149.291 71.6534 116.577 71.3071 83.8633 71.1353L56.2693 71.3662C54.7683 71.3662 54.7683 73.7908 56.2693 73.7908Z" fill="#2E395F"/>
<path id="Vector_34" d="M55.4627 79.5638C56.6172 77.0237 60.0809 76.9083 62.5055 76.7928C97.6841 76.1952 132.872 76.5416 168.033 77.8319C171.343 77.94 174.653 78.0554 177.962 78.1783L181.08 78.2937L181.772 78.5247L182.003 78.7556V78.2937C181.772 78.871 181.772 79.5638 182.465 79.9101C182.927 80.2565 183.851 80.0256 184.082 79.4483C184.89 77.601 183.273 76.2155 181.542 75.9846C180.387 75.7537 179.348 75.8692 178.193 75.7537C140.305 74.2334 102.382 73.7715 64.4683 74.3682C61.2355 74.4837 57.4254 74.2528 54.7699 76.4464C54.1926 77.0237 53.7308 77.601 53.3844 78.2937C53.0381 78.871 53.1535 79.5638 53.8463 80.0256C54.3081 80.2565 55.2318 80.1411 55.4627 79.5638Z" fill="#2E395F"/>
<path id="Vector_35" d="M54.8853 75.1762C54.1328 75.8893 53.5776 76.7852 53.2742 77.7763C52.9707 78.7683 52.9291 79.8212 53.1535 80.8336C53.269 81.5263 53.9617 81.8727 54.6544 81.7572C55.2317 81.5263 55.5781 80.949 55.4626 80.2563L55.3472 79.7945L55.4626 80.1408V78.8708L55.3472 79.2172L55.6935 77.9472L55.5781 78.2935C55.7064 78.01 55.861 77.7393 56.0399 77.4853L56.6172 76.7926C57.079 76.4462 57.079 75.5226 56.6172 75.1762C56.0399 74.7144 55.3472 74.7144 54.8853 75.1762Z" fill="#2E395F"/>
<path id="Vector_36" d="M55.461 75.2917C54.7793 76.1664 54.2344 77.1399 53.8446 78.1781C53.4982 79.1017 53.2673 80.1409 53.1519 81.18L53.6137 81.9882C53.7291 82.2191 54.0755 82.3345 54.4219 82.3345C55.1146 82.3345 55.5764 81.8727 55.5764 81.18C55.6127 81.0636 55.6512 80.9481 55.6919 80.8336C55.8074 80.0254 55.9228 79.2172 56.2692 78.5245L56.1537 78.8708L57.3083 76.9081L57.0774 77.139L57.1928 77.0235C57.3083 76.7926 57.5392 76.5617 57.5392 76.2153C57.5392 75.869 57.4237 75.5226 57.1928 75.2917C56.9619 75.0608 56.6155 74.9453 56.2692 74.9453C56.0383 74.9453 55.6919 75.0608 55.461 75.2917Z" fill="#2E395F"/>
<path id="Vector_37" d="M55.4618 76.4462C63.7747 74.5989 72.4339 74.8298 80.8623 74.7144C98.3359 74.5112 115.812 74.6645 133.28 75.1762L159.604 75.9844L172.65 76.3308L179.231 76.5617C180.386 76.5617 182.926 76.3308 183.619 77.6008L183.734 78.2935L183.619 78.5244C183.041 78.8708 182.81 79.5636 183.157 80.1408C183.503 80.7181 184.311 81.0645 184.889 80.6027C186.274 79.5636 186.505 77.7163 185.581 76.2153C184.542 74.4835 182.348 74.2526 180.617 74.1371L166.877 73.7907C148.676 73.2541 130.472 72.7923 112.266 72.4053C98.6047 72.2002 84.941 72.2002 71.2794 72.4053C65.7795 72.4958 60.2963 73.0361 54.8846 74.0216C53.3836 74.368 53.9609 76.6771 55.4618 76.4462Z" fill="#2E395F"/>
<path id="Vector_38" d="M182.119 74.9454L182.234 75.0608L182.003 74.9454C182.25 75.1181 182.482 75.3111 182.696 75.5227L183.389 76.6772C183.504 76.9081 183.85 77.1391 184.081 77.1391C184.312 77.2545 184.774 77.2545 185.005 77.0236C185.236 76.9081 185.467 76.6772 185.582 76.3309V75.9845L185.467 75.4072C184.976 74.3792 184.219 73.5017 183.273 72.8672L182.811 72.7517H182.35L181.657 73.329C181.426 73.5599 181.426 73.9063 181.541 74.2526L181.657 74.4836L182.119 74.9454ZM107.303 162.692L107.418 170.428L107.303 172.16V171.929L107.072 172.852C107.033 172.891 106.994 172.929 106.956 172.968L107.187 172.737C107.072 172.852 106.956 173.083 106.726 173.083L107.072 172.968L106.61 173.199L106.841 173.083C106.69 173.132 106.535 173.171 106.379 173.199L104.532 173.314L102.454 173.43L100.491 173.545C99.7982 173.545 99.1054 173.545 98.5282 173.776C97.8354 174.007 97.1427 174.353 96.5654 174.815L95.4108 176.316C94.7236 177.469 94.2867 178.754 94.127 180.086C93.9681 181.418 94.0909 182.77 94.4872 184.052C94.6026 184.398 94.8335 184.629 95.0645 184.744C95.2954 184.975 95.7572 184.975 95.9881 184.86C96.3345 184.86 96.5654 184.629 96.6808 184.398C96.9118 184.052 96.9118 183.705 96.7963 183.359C96.6965 183.018 96.6199 182.671 96.5654 182.32V180.011V180.357C96.6808 179.664 96.7963 178.972 97.1427 178.279L97.0272 178.51L97.9509 176.893L97.72 177.124C97.8567 176.919 98.0109 176.725 98.1818 176.547L98.99 176.201L98.6436 176.316C98.99 176.085 99.4518 176.085 99.7982 175.97H99.5673L101.53 175.854H103.608L105.802 175.739C106.495 175.623 107.303 175.623 107.996 175.162L108.804 174.584L109.15 174.007L109.497 173.43C109.727 172.852 109.727 172.275 109.843 171.582V167.541L109.727 162.692C109.727 162.346 109.612 162 109.381 161.769C109.266 161.538 124.852 161.769 108.573 161.422C107.88 161.422 107.303 162 107.303 162.692ZM123.582 163.039L123.698 167.426V169.62L123.813 171.352C123.813 171.929 123.929 172.622 124.159 173.199C124.39 173.776 124.737 174.469 125.314 174.815C125.891 175.277 126.584 175.623 127.277 175.739L129.24 175.854L131.087 175.739H132.819H132.472C133.165 175.854 133.858 175.97 134.435 176.316L134.204 176.201C134.527 176.324 134.836 176.479 135.128 176.663C135.293 176.805 135.447 176.959 135.59 177.124L136.167 178.048L136.052 177.817C136.398 178.741 136.513 179.78 136.744 180.704L137.206 184.052C137.206 184.398 137.437 184.629 137.668 184.744C138.014 184.975 138.361 184.975 138.707 184.975L139.4 184.398L139.515 184.052V183.474L138.938 179.203L138.476 177.355C138.245 176.663 137.899 176.085 137.437 175.508C136.744 174.584 135.59 174.122 134.551 173.776C133.511 173.43 132.357 173.314 131.318 173.314H129.586L127.623 173.43H127.97L127.046 173.199L127.392 173.314L126.815 172.968C126.737 172.891 126.66 172.815 126.584 172.737L126.815 172.968L126.353 172.275L126.584 172.622L126.238 171.352V171.582L126.122 168.581L126.007 165.001V163.039C126.007 162.692 125.891 162.346 125.66 162.115L124.852 161.769C124.159 161.884 123.582 162.346 123.582 163.039Z" fill="#2E395F"/>
<path id="Vector_39" d="M96.4482 185.206C110.292 186.025 124.173 185.986 138.013 185.091C138.59 185.091 139.283 184.514 139.167 183.821C139.167 183.244 138.705 182.666 138.013 182.666C124.173 183.559 110.292 183.596 96.4482 182.782C95.7555 182.666 95.1782 183.359 95.1782 183.936C95.1782 184.629 95.7555 185.091 96.4482 185.206Z" fill="#2E395F"/>
<path id="Vector_40" d="M143.617 94.4371C143.341 94.1609 140.973 94.5516 139.824 94.7816C134.308 95.3331 132.469 100.882 132.239 103.589V122.709L132.929 140.638C134.308 146.707 140.629 148.224 143.617 148.224C147.478 149.603 160.855 148.339 167.06 147.534C174.507 147.534 176.599 141.098 176.714 137.88C176.989 135.95 177.289 130.41 177.403 127.882C177.679 120.709 177.289 109.263 177.059 104.436C177.61 95.8854 171.542 94.2071 168.439 94.4371C160.28 94.5516 143.892 94.7124 143.617 94.4371Z" fill="#FFF3F3"/>
<path id="Vector_41" d="M158.333 131.981C161.946 131.981 165.412 130.546 167.967 127.991C170.521 125.436 171.957 121.97 171.957 118.357C171.957 114.744 170.521 111.278 167.967 108.723C165.412 106.169 161.946 104.733 158.333 104.733C154.72 104.733 151.254 106.169 148.699 108.723C146.144 111.278 144.709 114.744 144.709 118.357C144.709 121.97 146.144 125.436 148.699 127.991C151.254 130.546 154.72 131.981 158.333 131.981Z" fill="#D4AEAA" stroke="#B4A5A3" stroke-width="0.125" stroke-miterlimit="10"/>
<path id="Vector_42" d="M155.908 130.48C159.537 130.48 163.017 129.038 165.582 126.473C168.148 123.907 169.589 120.427 169.589 116.798C169.589 113.17 168.148 109.689 165.582 107.123C163.017 104.559 159.537 103.117 155.908 103.117C152.279 103.117 148.8 104.559 146.234 107.123C143.668 109.689 142.226 113.17 142.226 116.798C142.226 120.427 143.668 123.907 146.234 126.473C148.8 129.038 152.279 130.48 155.908 130.48Z" fill="#E06558" stroke="#C14A3A" stroke-width="0.125" stroke-miterlimit="10"/>
<path id="Vector_43" d="M151.636 112.238C151.405 113.392 151.521 114.547 152.098 115.586H152.444C153.137 114.431 153.253 112.815 152.56 111.661H152.213C151.636 112.584 151.752 113.97 152.329 114.893C152.444 115.009 152.675 115.009 152.675 114.778C152.791 113.854 152.791 112.931 152.444 112.122C152.444 111.891 152.213 111.891 152.098 112.122C151.867 112.815 151.983 113.623 152.329 114.201C152.444 114.431 152.56 114.316 152.675 114.201C152.906 113.508 152.791 112.815 152.213 112.238H151.983C151.752 112.7 151.521 113.277 151.636 113.739C151.636 113.97 151.983 113.97 151.983 113.739C151.867 113.277 151.983 112.815 152.329 112.469H151.983C152.444 112.931 152.56 113.508 152.329 114.085H152.675C152.329 113.508 152.213 112.815 152.444 112.238H152.098C152.329 113.046 152.444 113.854 152.329 114.778L152.675 114.662C152.098 113.854 151.983 112.7 152.56 111.776H152.213C152.906 112.931 152.791 114.316 152.098 115.471H152.444C151.867 114.431 151.752 113.392 151.983 112.353C152.098 112.122 151.752 112.007 151.636 112.238ZM160.295 112.584C160.642 112.584 160.642 112.122 160.411 112.007L159.949 112.122L159.834 112.584C159.834 113.508 160.18 114.431 160.642 115.124H160.873C161.681 113.97 161.681 112.238 160.873 111.083H160.642C159.949 112.353 159.949 113.97 160.757 115.124C160.873 115.24 160.988 115.24 161.104 115.009C161.45 113.97 161.335 112.815 160.988 111.776H160.642C160.295 112.7 160.295 113.623 160.642 114.547H160.873C161.335 113.97 161.45 113.161 160.988 112.469C160.873 112.353 160.757 112.353 160.642 112.584C160.411 113.046 160.411 113.739 160.411 114.316C160.411 114.547 160.757 114.547 160.757 114.316C160.757 113.739 160.757 113.161 160.988 112.7H160.642C160.988 113.161 160.988 113.854 160.642 114.316L160.988 114.431C160.642 113.623 160.642 112.7 160.988 112.007L160.642 111.891C160.988 112.931 161.104 113.97 160.757 115.009L161.104 114.893C160.295 113.854 160.295 112.469 160.873 111.314H160.642C161.335 112.353 161.335 113.854 160.642 114.893H160.873C160.41 114.17 160.169 113.328 160.18 112.469L160.295 112.353H160.18L160.295 112.238C160.065 112.238 160.065 112.584 160.295 112.584ZM150.482 123.091C150.943 121.359 152.444 120.089 154.176 119.512C155.908 118.819 157.986 119.05 159.487 120.32C160.18 120.897 160.757 121.705 160.988 122.629C160.988 122.86 161.335 122.744 161.335 122.629C160.873 120.782 159.372 119.396 157.524 118.934C155.562 118.472 153.368 119.05 151.867 120.435C151.059 121.128 150.366 122.052 150.135 123.091C150.135 123.206 150.366 123.322 150.482 123.091Z" fill="#30130E"/>
<path id="Vector_44" d="M71.572 94.4371C71.2962 94.1609 68.9289 94.5516 67.7797 94.7816C62.2634 95.3331 60.4246 100.882 60.1948 103.589V122.709L60.8843 140.638C62.2634 146.707 68.5841 148.224 71.572 148.224C75.4334 149.603 88.8105 148.339 95.0156 147.534C102.463 147.534 104.554 141.098 104.67 137.88C104.945 135.95 105.244 130.41 105.359 127.882C105.635 120.709 105.244 109.263 105.014 104.436C105.566 95.8854 99.4981 94.2071 96.3946 94.4371C88.236 94.5516 71.8478 94.7124 71.572 94.4371Z" fill="#FFF3F3"/>
<path id="Vector_45" d="M82.8242 131.404C86.4532 131.404 89.9326 129.962 92.4985 127.397C95.0644 124.831 96.5053 121.351 96.5053 117.722C96.5053 114.094 95.0644 110.613 92.4985 108.047C89.9326 105.482 86.4532 104.041 82.8242 104.041C79.1956 104.041 75.7157 105.482 73.1498 108.047C70.584 110.613 69.1426 114.094 69.1426 117.722C69.1426 121.351 70.584 124.831 73.1498 127.397C75.7157 129.962 79.1956 131.404 82.8242 131.404Z" fill="#A8A3A3" stroke="#807A7A" stroke-width="0.125" stroke-miterlimit="10"/>
<path id="Vector_46" d="M80.6303 129.095C84.2589 129.095 87.7387 127.653 90.3046 125.088C92.8706 122.522 94.3114 119.042 94.3114 115.413C94.3114 111.784 92.8706 108.304 90.3046 105.738C87.7387 103.173 84.2589 101.731 80.6303 101.731C77.0018 101.731 73.5218 103.173 70.956 105.738C68.3902 108.304 66.9487 111.784 66.9487 115.413C66.9487 119.042 68.3902 122.522 70.956 125.088C73.5218 127.653 77.0018 129.095 80.6303 129.095Z" fill="#E0D9D9"/>
<path id="Vector_47" d="M74.7426 112.469C74.55 113.148 74.55 113.867 74.7426 114.547L74.9735 115.009C75.0889 115.24 75.4353 115.009 75.5508 114.778C75.8173 114.116 75.8579 113.386 75.6662 112.7L75.4353 112.238C75.3199 112.007 74.9735 112.238 74.9735 112.469L74.858 113.508L74.9735 114.547H75.2044C75.4353 113.97 75.4353 113.277 75.3199 112.7C75.3199 112.469 74.9735 112.584 74.9735 112.7L75.0889 114.201C75.0889 114.431 75.4353 114.431 75.4353 114.201L75.3199 112.584C75.3199 112.353 74.9735 112.469 74.9735 112.7V113.97H75.3199V112.7H74.9735L75.0889 114.201H75.4353L75.3199 112.7L74.9735 112.815V114.431H75.2044C75.0793 113.861 75.0793 113.27 75.2044 112.7V112.584H75.3199V112.469H75.2044V112.7C75.4126 113.253 75.4528 113.855 75.3199 114.431L75.2044 114.662V114.778L75.0889 114.662C74.8762 113.986 74.8762 113.26 75.0889 112.584C75.0889 112.353 74.7426 112.238 74.7426 112.469ZM86.2881 112.469V113.97C86.2881 114.316 86.519 114.778 86.8654 115.009L87.0963 114.893C87.6736 114.085 87.6736 112.93 87.0963 112.122L86.8654 112.007C86.519 112.238 86.4036 112.7 86.4036 113.046L86.75 114.547C86.75 114.778 87.0963 114.778 87.0963 114.547L86.9809 112.469C86.9809 112.238 86.6345 112.353 86.6345 112.584L86.8654 113.97C86.8654 114.201 87.2118 114.085 87.2118 113.97L87.0963 112.815H86.75L86.9809 113.739C86.9809 113.97 87.2118 113.97 87.3272 113.739L87.2118 112.815C87.0963 112.584 86.8654 112.7 86.8654 112.93L86.9809 113.623L87.0963 113.854L87.3272 113.623L87.2118 112.93H86.8654L86.9809 113.739H87.3272L87.0963 112.7C87.0963 112.584 86.75 112.584 86.75 112.815L86.8654 113.97L87.2118 113.854L86.9809 112.584H86.6345L86.75 114.547H87.0963L86.75 113.161C86.75 112.93 86.75 112.469 86.9809 112.353L86.75 112.238C87.2118 113.046 87.3272 113.97 86.8654 114.778L87.0963 114.662C86.4036 114.201 86.519 113.277 86.6345 112.584C86.75 112.353 86.4036 112.238 86.2881 112.469ZM77.1672 119.627C79.8107 119.318 82.4733 119.201 85.1336 119.281C85.3645 119.396 85.3645 119.05 85.1336 118.934C82.4733 118.855 79.8107 118.971 77.1672 119.281C76.9363 119.396 76.9363 119.742 77.1672 119.627Z" fill="#2D2626"/>
<path id="Vector_48" d="M104.992 81.5383C104.622 81.1688 101.451 81.6916 99.9116 82.0001C92.5224 82.7381 90.059 90.1717 89.7515 93.7961V119.408L90.6751 143.423C92.5224 151.551 100.99 153.583 104.992 153.583C110.164 155.43 128.083 153.736 136.396 152.659C146.371 152.659 149.173 144.038 149.327 139.728C149.696 137.142 150.096 129.722 150.251 126.335C150.62 116.729 150.096 101.397 149.789 94.9312C150.528 83.478 142.4 81.2298 138.243 81.5383C127.314 81.6916 105.361 81.9078 104.992 81.5383Z" fill="white"/>
<path id="Vector_49" d="M120.463 128.402C125.04 128.402 129.431 126.583 132.668 123.347C135.905 120.109 137.723 115.719 137.723 111.142C137.723 106.563 135.905 102.173 132.668 98.9355C129.431 95.699 125.04 93.8804 120.463 93.8804C115.885 93.8804 111.495 95.699 108.258 98.9355C105.02 102.173 103.202 106.563 103.202 111.142C103.202 115.719 105.02 120.109 108.258 123.347C111.495 126.583 115.885 128.402 120.463 128.402Z" fill="#E0D9D9"/>
<path id="Vector_50" d="M110.536 93.3031L108.573 94.4577C106.992 95.5873 105.59 96.9497 104.416 98.4987C103.345 99.8851 102.525 101.448 101.992 103.117L101.415 105.311C101.032 107.368 100.993 109.475 101.299 111.545C101.542 113.407 102.129 115.208 103.031 116.856L104.301 118.934C105.506 120.568 106.993 121.975 108.688 123.091L109.843 123.668C112.316 124.888 115.052 125.483 117.809 125.4C119.872 125.471 121.934 125.237 123.929 124.707C126.393 123.971 128.644 122.653 130.493 120.865C132.341 119.077 133.733 116.87 134.551 114.432C134.998 113.206 135.27 111.923 135.359 110.622C135.498 109.548 135.498 108.462 135.359 107.389C135.127 105.517 134.621 103.688 133.858 101.962C133.238 100.415 132.381 98.9734 131.318 97.6905C130.269 96.3549 129.023 95.1874 127.623 94.2268C126.258 93.1877 124.739 92.3702 123.12 91.8022C119.619 90.4629 115.74 90.5045 112.268 91.9177C111.377 92.3213 110.558 92.8672 109.843 93.534C109.069 94.103 108.404 94.8068 107.88 95.6123L107.303 96.5359L107.072 97.575V98.6141L107.534 99.5378L108.342 100.346C109.035 100.692 109.727 100.808 110.536 100.577L111.113 100.346C111.575 99.9996 111.921 99.7687 112.152 99.3069L112.845 98.1523L112.383 98.7296L113.768 97.3441L113.191 97.8059C113.623 97.4549 114.086 97.1455 114.577 96.8823L116.886 96.305L116.078 96.4205H119.195L118.387 96.305C119.413 96.4685 120.419 96.7391 121.389 97.1132C122.774 97.575 123.929 98.2678 125.083 99.1914L124.506 98.7296C125.545 99.6532 126.584 100.577 127.508 101.731L127.046 101.154C127.97 102.309 128.662 103.579 129.124 104.849L128.893 104.156C129.355 105.311 129.701 106.581 129.932 107.966L129.817 107.158V110.737L129.932 109.929C129.817 111.199 129.471 112.353 129.009 113.508L129.24 112.815C128.778 113.97 128.085 115.124 127.277 116.048L127.739 115.471C127.046 116.51 126.238 117.318 125.199 118.011L125.776 117.664C124.968 118.242 124.044 118.819 123.005 119.281L123.698 118.934C122.659 119.396 121.619 119.627 120.58 119.858L121.273 119.743L118.156 119.858L115.154 119.627L115.847 119.743C114.692 119.512 113.422 119.281 112.268 118.819L112.96 119.05C112.313 118.764 111.694 118.415 111.113 118.011C110.189 117.434 109.497 116.625 108.804 115.702L109.15 116.279C108.457 115.355 107.88 114.201 107.418 113.162L107.649 113.854C107.23 112.851 106.92 111.807 106.726 110.737C106.495 109.352 106.495 108.082 106.726 106.696L106.61 107.504C106.726 106.234 107.072 105.08 107.534 103.925L107.303 104.502C107.705 103.529 108.208 102.6 108.804 101.731L111.459 99.076L110.882 99.5378L113.307 98.0368C113.653 97.9214 113.884 97.6905 114.115 97.3441L114.577 96.4205V95.2659L114.346 94.2268C113.884 93.6495 113.307 93.1877 112.614 92.9568L111.921 92.8413C111.459 92.8413 110.882 92.9568 110.536 93.3031Z" fill="#FF9679"/>
<path id="Vector_51" d="M117 91.2247C115.227 91.0492 113.439 91.3272 111.804 92.0329C108.6 93.2401 105.855 95.4209 103.953 98.2675C101.501 101.937 100.399 106.345 100.836 110.737C101.077 112.57 101.582 114.359 102.337 116.048C103.032 117.538 103.969 118.903 105.108 120.089C106.428 121.363 108.001 122.345 109.726 122.975L111.804 123.437C113.259 123.701 114.752 123.662 116.191 123.322L117.115 122.86L117.923 122.052L118.27 121.012L118.154 119.858L126.813 121.59C126.583 121.128 126.236 120.782 125.774 120.551L125.082 120.32H123.696L122.888 120.435L123.581 120.32C123.085 120.404 122.582 120.443 122.08 120.435C121.272 120.32 127.622 120.435 126.813 120.089L127.506 120.435C126.944 120.216 126.402 119.946 125.89 119.627L132.124 117.78L132.586 118.357C131.894 117.549 131.432 116.625 130.97 115.701L131.316 116.394C130.739 115.24 130.508 113.97 130.277 112.815L130.393 113.508V109.582L130.277 110.275C130.508 108.89 130.854 107.504 131.432 106.234L131.085 106.811C131.663 105.541 132.355 104.387 133.164 103.348L132.817 103.809C133.625 102.886 126.352 101.847 127.391 101.039L126.813 101.5C127.737 100.808 125.197 99.8839 126.236 99.4221L125.89 99.0757C126.698 98.7294 126.813 98.9058 124.62 98.9603L123.812 99.0757H125.89L130.277 98.2675L122.08 95.0348C107.301 94.342 119.309 95.3811 119.424 95.0348L119.771 93.9957L119.655 93.1875C119.54 92.7256 119.193 92.3793 118.847 92.0329L118.385 91.5711L117 91.2247Z" fill="#FF9679"/>
<path id="Vector_52" d="M109.955 103.232C109.628 103.675 109.422 104.197 109.362 104.744C109.301 105.292 109.386 105.845 109.609 106.35L109.955 106.927L110.302 107.273C110.648 107.504 110.995 107.158 111.11 106.812L111.456 105.772V104.618C111.341 104.271 111.341 103.81 111.11 103.463C110.995 103.117 110.764 102.886 110.302 102.886C109.955 102.886 109.725 103.001 109.609 103.348C109.494 103.579 109.84 103.579 109.84 103.463C109.955 103.232 110.186 103.117 110.417 103.117L110.995 103.694L111.11 104.618L111.225 105.541L110.995 106.465C110.879 106.696 110.648 107.273 110.302 107.042L109.84 106.234C109.649 105.763 109.58 105.251 109.64 104.746C109.701 104.241 109.889 103.76 110.186 103.348C110.302 103.232 110.071 103.117 109.955 103.232ZM124.734 103.694C124.421 104.171 124.244 104.724 124.224 105.295C124.204 105.865 124.34 106.429 124.618 106.927C124.849 107.158 125.08 107.504 125.427 107.273L125.773 106.927C126.008 106.38 126.126 105.79 126.119 105.195L126.004 103.925C125.888 103.579 125.773 103.232 125.427 103.117C125.08 103.001 124.734 103.232 124.618 103.579C124.387 103.925 124.387 104.502 124.272 104.849C124.157 105.08 124.503 105.08 124.503 104.964C124.734 104.502 124.618 103.463 125.311 103.348C125.542 103.348 125.657 103.694 125.773 103.925C126.05 104.933 125.926 106.009 125.427 106.927C125.427 107.042 125.311 107.158 125.08 107.042L124.849 106.696L124.618 105.888C124.503 105.195 124.618 104.387 124.965 103.81C125.08 103.694 124.849 103.579 124.734 103.694ZM113.65 112.007C114.689 113.162 115.959 114.201 117.576 114.547C118.961 114.893 120.577 114.663 121.732 113.854C122.425 113.393 123.002 112.815 123.348 112.123C123.464 111.892 123.233 111.776 123.117 111.892C122.54 113.162 121.27 114.085 120 114.316C118.499 114.663 116.998 114.316 115.728 113.508C115.035 113.046 114.343 112.469 113.881 111.776C113.765 111.661 113.535 111.892 113.65 112.007Z" fill="#40261E"/>
<path id="Vector_53" d="M124.968 103.579C124.737 104.041 124.621 104.502 124.737 105.08C124.737 105.195 124.852 105.311 124.968 105.08V103.579H124.737C124.506 104.387 124.39 105.195 124.506 105.888L124.621 106.35C124.852 106.35 124.852 106.119 124.852 106.003V104.733H124.621C124.506 105.426 124.506 106.003 124.737 106.696H124.968C125.083 106.234 124.968 105.772 124.852 105.311C124.737 105.08 124.506 105.195 124.506 105.311L124.852 106.927H125.198C125.198 106.581 125.198 106.234 124.968 106.003C124.968 105.772 124.737 105.888 124.737 106.119L124.968 107.042C124.968 107.273 125.198 107.273 125.198 107.042L125.314 105.888H125.083C125.198 106.234 125.314 106.581 125.429 106.927L125.66 105.657H125.429L125.198 106.696C125.198 106.927 125.429 106.927 125.429 106.811L125.66 105.888C125.776 105.657 125.545 105.657 125.429 105.772L125.198 106.927C125.083 107.042 125.314 107.158 125.429 107.042C125.776 106.581 125.891 106.003 125.776 105.426H125.545C125.545 105.849 125.545 106.273 125.545 106.696C125.776 106.119 126.007 105.426 125.891 104.618H125.66L125.545 106.003H125.891L125.66 103.81C125.66 103.579 125.429 103.694 125.429 103.81V105.541C125.429 105.772 125.66 105.772 125.66 105.541L125.545 103.579H125.314C125.083 104.387 124.968 105.195 125.083 106.003H125.314L125.429 104.964C125.429 104.733 125.314 104.156 124.968 104.271L124.852 104.618L124.737 105.311C124.737 105.657 124.737 106.003 124.968 106.234H125.198C125.314 105.541 125.314 104.849 125.083 104.271C124.968 104.156 124.852 104.041 124.737 104.271L124.852 105.772H125.083V104.271C125.083 104.156 124.852 103.694 125.083 103.694C125.314 103.694 125.198 104.156 125.198 104.271H125.429L125.314 103.463H125.083C125.198 103.694 125.083 104.041 124.968 104.271H125.198V103.694H124.968L125.083 104.156H125.429V103.348L125.198 103.463C125.429 103.81 125.545 104.271 125.545 104.618H125.776L125.66 103.694H125.429C125.66 103.925 125.66 104.156 125.66 104.502L125.891 104.387L125.776 103.579L125.545 103.694L125.776 104.271C125.776 104.387 126.122 104.387 126.007 104.156L125.545 103.232C125.545 103.117 125.314 103.117 125.314 103.348L125.545 104.618L125.776 104.502L125.66 103.81C125.66 103.579 125.429 103.694 125.429 103.81V104.156H125.66V103.81H125.429C125.468 103.655 125.506 103.502 125.545 103.348H125.314L125.776 104.271L126.007 104.156L125.776 103.579H125.545L125.66 104.502H125.891C125.891 104.156 125.891 103.81 125.66 103.579C125.545 103.463 125.429 103.579 125.429 103.694L125.545 104.733C125.545 104.849 125.776 104.849 125.776 104.618C125.776 104.156 125.66 103.694 125.429 103.348H125.198L125.083 104.156L125.429 104.041L125.198 103.579C125.198 103.463 124.968 103.463 124.968 103.694V104.271L125.198 104.387C125.429 104.041 125.429 103.694 125.314 103.348C125.314 103.232 125.083 103.232 125.083 103.463L125.198 104.387H125.429C125.545 104.041 125.545 103.694 125.314 103.579C125.198 103.463 124.852 103.463 124.737 103.694V104.041C124.898 104.563 124.938 105.117 124.852 105.657H125.083V104.271H124.737C124.968 104.849 125.083 105.541 124.968 106.119L125.083 106.003L124.968 105.426L125.083 104.618V104.502V104.733L125.198 105.195L125.083 105.888L125.314 106.003C125.314 105.195 125.314 104.387 125.545 103.694H125.314L125.429 105.541H125.66V103.81H125.429C125.545 104.502 125.66 105.311 125.545 106.003H125.891V104.733L125.66 104.618C125.66 105.311 125.545 106.003 125.314 106.581L125.545 106.696L125.776 105.541H125.545C125.66 106.003 125.545 106.465 125.198 106.927L125.429 107.042C125.428 106.619 125.428 106.195 125.429 105.772L125.198 106.696H125.429L125.66 105.772L125.429 105.657C125.314 106.119 125.314 106.465 125.083 106.811H125.429C125.314 106.504 125.198 106.195 125.083 105.888L124.968 107.042H125.198L124.968 106.003L124.737 106.119C124.852 106.35 124.968 106.581 124.852 106.927H125.198C124.968 106.35 124.852 105.888 124.852 105.311H124.506C124.737 105.772 124.852 106.119 124.737 106.581H124.968C124.852 106.003 124.737 105.426 124.852 104.849H124.621C124.66 105.194 124.66 105.542 124.621 105.888V106.003H124.737V106.119C124.621 105.311 124.737 104.387 124.968 103.694H124.737V105.08H124.968C124.852 104.618 124.968 104.156 125.198 103.694C125.198 103.579 124.968 103.348 124.968 103.579Z" fill="#40261E"/>
<path id="Vector_54" d="M125.429 104.618V104.387H125.082L125.313 106.119H125.66L125.544 104.387C125.544 104.156 125.313 104.156 125.198 104.271L124.967 106.003C125.082 106.234 125.313 106.234 125.313 106.003C125.313 105.426 125.313 104.964 125.544 104.387H125.198L125.313 106.119L125.429 106.234L125.66 106.119C125.544 105.426 125.544 104.849 125.313 104.271C125.313 104.156 125.082 104.156 125.082 104.387V104.618C125.082 104.849 125.429 104.849 125.429 104.618ZM110.419 103.001C110.073 103.001 109.842 103.232 109.727 103.579L109.496 104.387C109.393 105.275 109.596 106.17 110.073 106.927C110.419 107.273 110.766 107.158 110.997 106.811C111.228 106.581 111.228 106.234 111.228 105.888L111.343 105.08C111.343 104.387 111.228 103.694 110.766 103.232C110.65 103.001 110.304 103.117 110.188 103.348C109.957 104.271 109.957 105.311 110.073 106.234C110.188 106.581 110.881 106.581 110.766 106.119L110.65 104.387V103.694C110.535 103.463 110.535 103.117 110.304 103.001C109.957 102.77 109.611 103.001 109.611 103.348L109.496 104.041L109.727 105.657L110.188 105.888C110.304 105.772 110.535 105.657 110.419 105.426C110.19 104.879 110.111 104.282 110.188 103.694V103.579H109.842L109.957 103.694V103.925L110.073 104.618V106.119H110.766C110.65 105.195 110.65 104.387 110.881 103.579L110.304 103.694C110.535 103.925 110.65 104.387 110.65 104.733L110.535 106.003L110.419 106.35V106.465H110.65C110.555 106.321 110.478 106.166 110.419 106.003C110.135 105.306 110.094 104.533 110.304 103.81L110.419 103.694C110.535 103.694 110.766 103.579 110.766 103.348C110.766 103.117 110.535 103.001 110.419 103.001Z" fill="#40261E"/>
<path id="Vector_55" d="M102.567 138.908L99.4497 137.754L96.6788 139.486L96.9097 136.253L94.3696 134.175L97.6024 133.366L98.757 130.249L100.489 133.02L103.837 133.251L101.643 135.791L102.567 138.908ZM112.843 139.255L109.725 138.1L106.954 139.832L107.185 136.599L104.645 134.521L107.878 133.713L109.033 130.595L110.764 133.366L114.113 133.597L111.919 136.137L112.843 139.255ZM123.811 139.37L120.694 138.216L118.038 139.947L118.154 136.715L115.614 134.636L118.846 133.828L120.001 130.711L121.733 133.482L125.081 133.713L122.887 136.253L123.811 139.37ZM133.509 139.37L130.392 138.216L127.737 139.947L127.852 136.715L125.312 134.636L128.545 133.828L129.699 130.711L131.431 133.482L134.779 133.713L132.586 136.253L133.509 139.37ZM144.131 139.024L141.014 137.869L138.359 139.601L138.474 136.368L135.934 134.29L139.167 133.482L140.321 130.364L142.053 133.135L145.401 133.366L143.208 135.906L144.131 139.024Z" fill="#F2CA55" stroke="#F2CA55" stroke-width="0.125" stroke-miterlimit="10"/>
<path id="Vector_56" opacity="0.1" d="M69.7777 124.13V124.707L69.6622 124.938C69.4269 125.93 69.2343 126.931 69.085 127.94L69.8932 126.093L70.1241 124.823V124.361L69.7777 124.014V124.13Z" fill="#F4E7E2"/>
<path id="Vector_57" opacity="0.1" d="M70.0085 124.476L70.2394 124.823C70.1545 125.051 70.0775 125.282 70.0085 125.515C69.7776 126.093 69.6621 126.67 69.6621 127.363H69.893C70.0858 126.516 70.2783 125.67 70.4703 124.823L70.2394 124.361L70.0085 124.476Z" fill="#F4E7E2"/>
<g id="Group_4" opacity="0.4">
<path id="Vector_58" opacity="0.1" d="M65.9673 135.56C67.0064 136.253 68.2764 136.715 69.6619 137.061V136.946C68.4383 136.462 67.2065 136.001 65.9673 135.56Z" fill="#F4E7E2"/>
<path id="Vector_59" opacity="0.1" d="M65.6211 135.329C67.5839 136.83 66.5447 136.253 69.2002 136.945C67.9989 136.425 66.8056 135.887 65.6211 135.329ZM65.6211 134.983C66.7757 135.791 68.0457 136.253 69.3157 136.484L69.4312 136.368C68.1616 135.905 66.8916 135.444 65.6211 134.983Z" fill="#F4E7E2"/>
<path id="Vector_60" opacity="0.1" d="M65.622 135.445C66.5457 136.484 67.7003 137.061 69.2012 137.177L69.5476 136.83C68.2775 136.137 67.0075 135.676 65.7375 135.329C65.622 135.214 65.5066 135.445 65.622 135.445Z" fill="#F4E7E2"/>
<path id="Vector_61" opacity="0.1" d="M65.8521 134.983C66.8912 135.791 68.0457 136.368 69.4312 136.599L69.5467 136.368C68.3217 135.889 67.09 135.427 65.8521 134.983Z" fill="#F4E7E2"/>
<path id="Vector_62" opacity="0.1" d="M67.5849 136.368L69.5477 137.061L69.4322 136.945L67.7004 136.137C67.5849 136.137 67.4695 136.253 67.5849 136.368Z" fill="#F4E7E2"/>
<path id="Vector_63" opacity="0.1" d="M65.8521 135.329C67.8148 136.83 66.7757 136.253 69.5467 137.061L69.6621 136.715C68.4168 136.187 67.1451 135.725 65.8521 135.329Z" fill="#F4E7E2"/>
<path id="Vector_64" opacity="0.1" d="M65.6211 135.098C66.6602 135.906 67.9302 136.368 69.2002 136.599L69.3157 136.484C68.0821 136.027 66.8506 135.566 65.6211 135.098Z" fill="#F4E7E2"/>
<path id="Vector_65" opacity="0.1" d="M65.6211 135.214C67.4684 136.599 66.4293 136.022 69.0848 136.83C69.2002 136.945 69.5466 136.599 69.4312 136.484L65.6211 134.983V135.214Z" fill="#F4E7E2"/>
<path id="Vector_66" opacity="0.1" d="M65.9673 135.445C68.0455 136.946 66.8909 136.368 69.6619 137.061V136.83C68.4447 136.33 67.2126 135.869 65.9673 135.445Z" fill="#F4E7E2"/>
<path id="Vector_67" opacity="0.1" d="M67.353 136.137L69.2003 136.83V136.714L67.353 135.906V136.137Z" fill="#F4E7E2"/>
</g>
<g id="Group_5" opacity="0.4">
<path id="Vector_68" opacity="0.1" d="M66.4312 135.676L68.6248 136.83L71.0494 137.523V137.407C69.475 136.928 67.9325 136.35 66.4312 135.676Z" fill="#F4E7E2"/>
<path id="Vector_69" opacity="0.1" d="M65.9697 135.675L68.1634 136.83C68.9716 137.176 69.7798 137.523 70.7034 137.523L70.8189 137.407C69.1717 136.921 67.5528 136.342 65.9697 135.675ZM66.0852 135.214L68.2789 136.253C69.0871 136.715 69.8952 136.945 70.8189 137.061V136.945C69.2022 136.48 67.6204 135.902 66.0852 135.214Z" fill="#F4E7E2"/>
<path id="Vector_70" opacity="0.1" d="M65.8538 135.906L68.0475 136.946C68.8557 137.407 69.7793 137.638 70.703 137.754L70.9339 137.407L69.202 136.715L66.2002 135.445C66.0847 135.445 65.7383 135.791 65.8538 135.906Z" fill="#F4E7E2"/>
<path id="Vector_71" opacity="0.1" d="M66.2007 135.214L68.3944 136.368C69.2026 136.83 70.0107 137.061 70.9344 137.176L71.0499 136.945C69.4131 136.426 67.7957 135.849 66.2007 135.214Z" fill="#F4E7E2"/>
<path id="Vector_72" opacity="0.1" d="M65.9697 135.329L68.2789 136.484C69.075 136.754 69.8843 136.986 70.7034 137.176C69.1419 136.52 67.5635 135.904 65.9697 135.329Z" fill="#F4E7E2"/>
<path id="Vector_73" opacity="0.1" d="M66.3159 135.676L67.355 136.253L67.9323 136.484L69.0869 136.946C69.6528 137.17 70.231 137.363 70.8187 137.523L69.2023 136.83C68.2124 136.519 67.2475 136.133 66.3159 135.676Z" fill="#F4E7E2"/>
<path id="Vector_74" opacity="0.1" d="M66.2007 135.676C67.1243 136.137 67.9325 136.715 68.9716 137.061C70.0107 137.523 69.4335 137.292 71.0499 137.638L71.1653 137.292C69.5255 136.708 67.8699 136.169 66.2007 135.676Z" fill="#F4E7E2"/>
<path id="Vector_75" opacity="0.1" d="M66.085 135.329C66.9609 135.772 67.8462 136.195 68.7405 136.599C69.3177 136.945 70.0105 137.176 70.7032 137.176V137.061C69.1237 136.596 67.5802 136.018 66.085 135.329Z" fill="#F4E7E2"/>
<path id="Vector_76" opacity="0.1" d="M65.8541 135.56C66.7778 136.022 67.586 136.484 68.6251 136.83C69.5487 137.292 68.9715 137.061 70.5878 137.523L70.8188 137.176L68.5096 136.253L66.085 135.214C66.085 135.214 65.7387 135.445 65.8541 135.56Z" fill="#F4E7E2"/>
<path id="Vector_77" opacity="0.1" d="M66.3149 135.791L69.0859 137.176C70.125 137.523 69.5477 137.407 71.0486 137.638L71.1641 137.407C69.548 136.894 67.9667 136.277 66.4304 135.56C66.3149 135.56 66.1995 135.675 66.3149 135.791Z" fill="#F4E7E2"/>
<path id="Vector_78" opacity="0.1" d="M66.085 135.445C67.0469 135.906 68.0091 136.368 68.9714 136.83L70.7032 137.407V137.292C69.1825 136.631 67.6424 136.014 66.085 135.445Z" fill="#F4E7E2"/>
</g>
<g id="Group_6" opacity="0.4">
<path id="Vector_79" opacity="0.1" d="M66.6602 136.137L69.662 137.292V137.176C68.6454 136.878 67.6436 136.532 66.6602 136.137Z" fill="#F4E7E2"/>
<path id="Vector_80" opacity="0.1" d="M66.7759 136.137C68.228 136.803 69.7344 137.345 71.2787 137.754L66.7759 136.022V136.137Z" fill="#F4E7E2"/>
<path id="Vector_81" opacity="0.1" d="M66.1982 136.137C67.7418 136.772 69.3227 137.311 70.932 137.754V137.638C69.3919 137.026 67.8099 136.524 66.1982 136.137ZM66.4292 135.676C67.9393 136.294 69.4808 136.834 71.0474 137.292V137.061C69.4978 136.634 67.958 136.172 66.4292 135.676Z" fill="#F4E7E2"/>
<path id="Vector_82" opacity="0.1" d="M66.083 136.368C67.6794 136.965 69.2969 137.504 70.9322 137.985L71.1631 137.638L68.9694 136.715L66.5448 135.906L66.3139 136.137L66.083 136.368ZM66.4294 135.676C67.9769 136.3 69.557 136.839 71.1631 137.292V137.176C69.6265 136.554 68.0438 136.052 66.4294 135.676Z" fill="#F4E7E2"/>
<path id="Vector_83" opacity="0.1" d="M66.4292 135.791C67.8375 136.466 69.3065 137.007 70.8165 137.407L68.6229 136.484C67.8828 136.281 67.151 136.051 66.4292 135.791Z" fill="#F4E7E2"/>
<path id="Vector_84" opacity="0.1" d="M66.4292 136.137L69.4311 137.407C70.0853 137.446 70.7395 137.485 71.3938 137.523L69.0847 136.599L66.7756 135.791L66.4292 136.137Z" fill="#F4E7E2"/>
<path id="Vector_85" opacity="0.1" d="M66.3149 135.791C67.8219 136.418 69.3639 136.958 70.9332 137.407V137.292L66.4304 135.56C66.3149 135.56 66.1995 135.676 66.3149 135.791Z" fill="#F4E7E2"/>
<path id="Vector_86" opacity="0.1" d="M66.0835 136.022C67.6474 136.601 69.2258 137.14 70.8172 137.638L71.0481 137.407L69.5472 136.715L66.4298 135.676C66.4298 135.676 65.968 135.906 66.0835 136.022Z" fill="#F4E7E2"/>
<path id="Vector_87" opacity="0.1" d="M66.5437 136.253C68.1011 136.85 69.6801 137.389 71.2774 137.869L71.3928 137.638L69.0837 136.83L66.7746 135.906C66.6591 135.906 66.4282 136.137 66.5437 136.253Z" fill="#F4E7E2"/>
<path id="Vector_88" opacity="0.1" d="M66.4292 135.906L68.6229 136.83C67.8978 136.508 67.1665 136.2 66.4292 135.906Z" fill="#F4E7E2"/>
</g>
<g id="Group_7" opacity="0.4">
<path id="Vector_89" opacity="0.1" d="M69.2006 137.061L69.3161 137.176L69.4315 136.945L69.2006 136.599H69.0851V136.715L69.2006 137.061ZM68.9697 136.83L69.0851 136.945V136.715L68.8542 136.368H68.7388V136.484L68.9697 136.83Z" fill="#F4E7E2"/>
<path id="Vector_90" opacity="0.1" d="M69.0854 136.715H69.2009V136.599H69.0854V136.715Z" fill="#F4E7E2"/>
<path id="Vector_91" opacity="0.1" d="M69.2006 136.715L69.3161 136.83V136.599C69.2507 136.401 69.1736 136.209 69.0852 136.022C68.9697 135.906 68.9697 136.253 68.9697 136.253C69.0388 136.41 69.1158 136.564 69.2006 136.715Z" fill="#F4E7E2"/>
<path id="Vector_92" opacity="0.1" d="M69.2009 136.715H69.4318V136.599H69.3163C69.2009 136.484 69.2009 136.599 69.2009 136.715ZM68.8545 136.945H68.9699V136.715H68.8545V136.945Z" fill="#F4E7E2"/>
<path id="Vector_93" opacity="0.1" d="M69.0852 137.176H69.2007V137.061L69.0852 136.83H68.8543L69.0852 137.176ZM69.3161 136.83H69.547V136.715L69.4316 136.253H69.3161V136.83ZM68.9697 136.715L69.0852 136.83V136.599L68.9697 136.484C68.7388 136.484 68.8543 136.715 68.9697 136.715Z" fill="#F4E7E2"/>
<path id="Vector_94" opacity="0.1" d="M69.0852 136.599L69.2006 136.714L69.3161 136.484L69.0852 136.253L68.9697 136.137V136.253L69.0852 136.599Z" fill="#F4E7E2"/>
</g>
<g id="Group_8" opacity="0.4">
<path id="Vector_95" opacity="0.1" d="M67.353 134.867C67.4685 134.29 67.4685 133.828 67.6994 133.366L68.1612 131.981L68.0458 131.865L67.4685 133.597L67.353 134.752V134.867Z" fill="#F4E7E2"/>
<path id="Vector_96" opacity="0.1" d="M67.4685 134.983L67.6994 133.482L68.1612 132.097L68.0458 131.981L67.5839 133.482C67.353 133.828 67.353 134.406 67.353 134.868L67.4685 134.983ZM67.8149 135.098L67.9303 134.406L68.1612 133.367L68.854 131.635L68.7385 131.519L68.1612 132.674L67.8149 133.713C67.815 134.175 67.815 134.637 67.8149 135.098Z" fill="#F4E7E2"/>
<path id="Vector_97" opacity="0.1" d="M67.4687 134.983C67.5834 134.367 67.6989 133.752 67.8151 133.136L68.3924 131.519C68.5078 131.404 68.2769 131.288 68.2769 131.404L67.6996 132.674C67.4687 132.905 67.3532 133.367 67.3532 133.713L67.2378 134.406L67.3532 134.983H67.4687Z" fill="#F4E7E2"/>
<path id="Vector_98" opacity="0.1" d="M67.5837 134.637L67.6992 133.828L67.9301 132.789L68.6228 131.057L68.5074 130.942C68.2765 131.519 67.9301 131.866 67.8146 132.443L67.5837 133.136L67.4683 134.521L67.5837 134.637Z" fill="#F4E7E2"/>
<path id="Vector_99" opacity="0.1" d="M67.5839 134.983L68.0457 133.136L68.2766 132.443L68.5075 131.404L68.1612 131.519L67.5839 132.674C67.353 133.02 67.2375 133.367 67.2375 133.828L67.1221 134.406L67.2375 135.098L67.5839 134.983Z" fill="#F4E7E2"/>
<path id="Vector_100" opacity="0.1" d="M67.6992 134.521L67.8146 133.828L68.0455 132.789L68.7383 131.057V130.942L67.9301 132.096L67.6992 133.136L67.4683 133.828L67.6992 134.521C67.6992 134.637 67.6992 134.637 67.6992 134.521Z" fill="#F4E7E2"/>
<path id="Vector_101" opacity="0.1" d="M67.584 135.214L67.6994 134.406L68.0458 133.367L68.6231 131.635L68.5076 131.519C68.1552 132.338 67.8844 133.188 67.6994 134.059L67.584 135.098V135.214Z" fill="#F4E7E2"/>
<path id="Vector_102" opacity="0.1" d="M67.8146 134.867L68.161 133.02L68.7383 131.288H68.5074L67.8146 132.674L67.5837 133.713L67.4683 134.406L67.5837 134.867C67.5837 135.098 67.8146 134.983 67.8146 134.867Z" fill="#F4E7E2"/>
<path id="Vector_103" opacity="0.1" d="M67.4683 134.637C67.5833 134.059 67.6988 133.482 67.8146 132.905L68.5074 131.173L68.3919 131.057C68.0455 131.635 67.8146 131.981 67.6992 132.558L67.4683 133.251V134.637Z" fill="#F4E7E2"/>
<path id="Vector_104" opacity="0.1" d="M67.469 134.752L67.9308 132.905L68.5081 131.173H68.2772C67.9308 131.519 67.6999 131.866 67.5844 132.327L67.2381 133.367C67.2377 133.828 67.2377 134.29 67.2381 134.752H67.469Z" fill="#F4E7E2"/>
<path id="Vector_105" opacity="0.1" d="M67.8151 134.983L68.1614 133.251L68.7387 131.519H68.6232L67.8151 133.136L67.6996 133.828C67.4687 134.175 67.4687 134.637 67.5841 134.983H67.8151Z" fill="#F4E7E2"/>
</g>
<path id="Vector_106" d="M152.33 16.6399H152.792L152.561 16.7553L152.099 16.6399H152.561L152.907 16.8708" stroke="#CDD7F5" stroke-width="0.375" stroke-linecap="round"/>
<path id="Vector_107" d="M124.084 162.692H109.915L108.025 174.099C105.663 174.265 100.468 174.793 98.5791 175.587C96.6893 176.38 96.2173 180.877 96.2173 183.026C110.072 184.514 137.782 186.498 137.782 182.53C137.782 178.563 135.893 176.248 134.948 175.587L125.974 173.603L124.084 162.692Z" fill="#2E395F"/>
</g>
</g>
</g>
</g>
</g>
</g>
</g>
<defs>
<clipPath id="clip0_2759_12697">
<rect width="208" height="208" fill="white"/>
</clipPath>
</defs>
</svg>
