<?xml version="1.0" encoding="UTF-8"?>
<svg width="171px" height="135px" viewBox="0 0 171 135" version="1.1" xmlns="http://www.w3.org/2000/svg" xmlns:xlink="http://www.w3.org/1999/xlink">
    <!-- Generator: Sketch 52.6 (67491) - http://www.bohemiancoding.com/sketch -->
    <title>illustration</title>
    <desc>Created with Sketch.</desc>
    <g id="Page-1" stroke="none" stroke-width="1" fill="none" fill-rule="evenodd">
        <g id="0.1.-New-financial-year" transform="translate(-618.000000, -242.000000)" fill="#E0E6EE">
            <g id="Content" transform="translate(500.000000, 242.000000)">
                <g id="main">
                    <g id="empty-state">
                        <g id="empty-content">
                            <g id="illustration" transform="translate(118.000000, 0.000000)">
                                <polygon id="Fill-142" points="122 37 139 37 139 34 122 34"></polygon>
                                <polygon id="Fill-143" points="75 100 75 97 132.991201 97 133 100"></polygon>
                                <polygon id="Fill-144" points="78 66.8595989 107.85979 37 110 39.1375358 80.1402095 69"></polygon>
                                <path d="M107.5,58.2173679 C104.58754,58.2173679 102.216792,60.5885407 102.216792,63.5015219 C102.216792,66.4145031 104.58754,68.7856759 107.5,68.7856759 C110.415503,68.7856759 112.783208,66.4145031 112.783208,63.5015219 C112.783208,60.5885407 110.415503,58.2173679 107.5,58.2173679 M107.5,72 C102.813283,72 99,68.186034 99,63.5015219 C99,58.813966 102.813283,55 107.5,55 C112.186717,55 116,58.813966 116,63.5015219 C116,68.186034 112.186717,72 107.5,72" id="Fill-145"></path>
                                <polygon id="Fill-147" points="122 51 139 51 139 48 122 48"></polygon>
                                <polygon id="Fill-148" points="75 88 75 85 86.9913937 85 87 88"></polygon>
                                <polygon id="Fill-149" points="122 63 122 60 139 60 139 62.9773157 134.268799 62.9773157 134.268799 63"></polygon>
                                <path d="M84.5,38.2173679 C81.5875403,38.2173679 79.216792,40.5854969 79.216792,43.4984781 C79.216792,46.4145031 81.5875403,48.7856759 84.5,48.7856759 C87.415503,48.7856759 89.783208,46.4145031 89.783208,43.4984781 C89.783208,40.5854969 87.415503,38.2173679 84.5,38.2173679 M84.5,52 C79.8132832,52 76,48.186034 76,43.4984781 C76,38.813966 79.8132832,35 84.5,35 C89.1867168,35 93,38.813966 93,43.4984781 C93,48.186034 89.1867168,52 84.5,52" id="Fill-150"></path>
                                <path d="M81.6879605,4.26349145 C83.0972635,6.11868638 83.8440489,8.32821202 83.8440489,10.6558479 L83.8440489,13.8304206 L167.855947,13.6806222 L167.855947,10.6558479 C167.855947,6.49894373 164.444561,3.11983868 160.254427,3.11983868 L80.8191324,3.11983868 L81.6879605,4.26349145 Z M47.1440534,124.347033 C47.1440534,128.501056 50.5554386,131.880161 54.7484785,131.880161 C58.9386125,131.880161 62.3499977,128.501056 62.3499977,124.347033 L62.3499977,121.359708 L47.1440534,121.359708 L47.1440534,124.347033 Z M54.0917723,135 L53.8331579,134.965431 C48.3208942,134.498752 44,129.834838 44,124.347033 L44,118.239869 L62.3499977,118.239869 L62.3499977,10.6558479 C62.3499977,4.77914346 67.1706859,0 73.0955704,0 L160.254427,0 C166.179312,0 171,4.77914346 171,10.6558479 L171,16.7946994 L152.652908,16.8263876 L152,132 L150,131.880161 L149.508855,16.832149 L80.6970896,16.95314 L80.6970896,10.6558479 C80.6970896,6.49894373 77.2857045,3.11983868 73.0955704,3.11983868 C68.9054363,3.11983868 65.4940512,6.49894373 65.4940512,10.6558479 L65.4940512,124.347033 C65.4940512,126.677549 64.7501716,128.884194 63.3408685,130.736509 L62.4691347,131.880161 L93.0175948,131.880161 L93.0175948,135 L54.0917723,135 Z" id="Fill-152"></path>
                                <g id="balls-and-lines" transform="translate(0.000000, 22.000000)">
                                    <path d="M11.3117284,3.83333333 C10.8019881,3.83341179 10.3135947,3.62866456 9.95630165,3.26510326 C9.59900864,2.90154196 9.40278554,2.40966179 9.41172835,1.9 C9.41172835,0.850658975 10.2623873,1.55431223e-13 11.3117284,1.55431223e-13 L22.7117284,1.55431223e-13 C23.2156397,1.53457494e-13 23.6989121,0.200177997 24.0552312,0.556497116 C24.4115504,0.912816235 24.6117284,1.39608867 24.6117284,1.9 C24.6117284,2.94934102 23.7610694,3.8 22.7117284,3.8 L11.3117284,3.8 L11.3117284,3.83333333 Z" id="Shape"></path>
                                    <path d="M5.68950613,10.2111111 C5.1855948,10.2111111 4.70232237,10.0109331 4.34600325,9.654614 C3.98968413,9.29829488 3.78950613,8.81502244 3.78950613,8.31111111 C3.78950613,7.26177009 4.64016511,6.41111111 5.68950613,6.41111111 L17.1006172,6.41111111 C18.1499583,6.41111111 19.0006172,7.26177009 19.0006172,8.31111111 C19.0006172,8.81502244 18.8004392,9.29829488 18.4441201,9.654614 C18.087801,10.0109331 17.6045286,10.2111111 17.1006172,10.2111111 L5.68950613,10.2111111 Z" id="Shape"></path>
                                    <circle id="Oval" transform="translate(8.258256, 67.399366) rotate(-89.500000) translate(-8.258256, -67.399366) " cx="8.25825591" cy="67.3993661" r="7.17777778"></circle>
                                    <path d="M6.44506169,59.3888889 C8.89005844,58.8429972 11.4505061,59.4431456 13.3982614,61.0186633 C15.3460168,62.594181 16.4679711,64.9726866 16.4450617,67.4777778 C16.4130389,71.7792389 13.0709517,75.3289981 8.77922307,75.6199595 C4.48749443,75.9109208 0.69687331,72.8447295 0.0845697594,68.586951 C-0.527733791,64.3291725 2.24525947,60.3190795 6.44506169,59.3888889 Z M9.61172835,73.3888889 C12.3882478,72.7568486 14.3688472,70.3029273 14.4006172,67.4555556 C14.4154184,65.8288746 13.7833823,64.2629455 12.6435636,63.1022891 C11.5037448,61.9416327 9.94952166,61.2813344 8.32283946,61.2666667 C5.94180298,61.2174506 3.74676712,62.5485728 2.68976185,64.6826995 C1.63275658,66.8168262 1.90417365,69.3695506 3.38629416,71.2337061 C4.86841468,73.0978615 7.29427356,73.9376695 9.61172835,73.3888889 Z" id="Shape"></path>
                                    <circle id="Oval" transform="translate(22.535047, 52.536850) rotate(-89.510000) translate(-22.535047, -52.536850) " cx="22.5350473" cy="52.5368498" r="5.41111111"></circle>
                                    <path d="M21.1561728,46.2555556 C21.6410382,46.1464011 22.1369843,46.0941962 22.6339506,46.1 C26.1513573,46.1847291 28.9531384,49.0705142 28.9339506,52.5888889 C28.9190774,55.9707812 26.292498,58.7658682 22.9180568,58.9907309 C19.5436156,59.2155937 16.5693939,56.7937274 16.1059263,53.4437104 C15.6424587,50.0936933 17.84743,46.9552969 21.1561728,46.2555556 Z M26.9450617,52.5777778 C26.9630434,50.1720918 25.0318526,48.2050276 22.6262432,48.1787335 C20.2206337,48.1524395 18.2469082,50.0768218 18.2123021,52.482326 C18.177696,54.8878302 20.095247,56.8681933 22.5006172,56.9111111 C23.6655179,56.9289115 24.7894652,56.4816461 25.6236316,55.6683338 C26.457798,54.8550216 26.9333699,53.7427558 26.9450617,52.5777778 Z" id="Shape"></path>
                                </g>
                                <polygon id="Fill-154" points="75 109 75 106 132.991205 106 133 109"></polygon>
                                <path d="M92,132 L150.5,132 C151.328427,132 152,132.671573 152,133.5 L152,133.5 C152,134.328427 151.328427,135 150.5,135 L92,135 L92,132 Z" id="Rectangle"></path>
                            </g>
                        </g>
                    </g>
                </g>
            </g>
        </g>
    </g>
</svg>